M48
;Layer_Color=9474304
;FILE_FORMAT=2:5
INCH,LZ
;TYPE=PLATED
T1F00S00C0.01181
T2F00S00C0.02362
T3F00S00C0.02756
T4F00S00C0.03150
T5F00S00C0.03937
T6F00S00C0.04724
T7F00S00C0.11811
%
T01
X0354331Y0295276
X0393701
X0413386
X0305118Y0314961
X0285433
X0295276Y0334646
X0275591
X0285433Y0354331
X0305118
X0295276Y0374016
X0275591
X0285433Y0393701
X0305118
X0265748
X0275591Y0413386
X0285433Y0433071
X0265748
X0246063
X0226378
X0236221Y0452756
X0255906
X0275591
X0280472Y0455394
X0288622Y045563
X0298Y04555
X0236221Y0413386
X0265748Y0354331
X0324803
X0344488
X0354331Y0334646
X0334646
X0314961
X0324803Y0314961
X0344488
X0364173
X0383858
X0393701Y0334646
X0413386
X0433071
X0452756
X0462598Y0354331
X0442913
X0423228
X0433071Y0374016
X0452756
X0462598Y0393701
X0442913
X0423228
X0383858
X0364173
X0344488
X0349134Y0414134
X0353Y04145
X03555Y04195
X035874Y0420354
X0344488Y0433071
X0324803
X0334646Y0452756
X0348543Y0449882
X03525Y045
X03555Y04535
X0358976Y0456063
X038315Y0463228
X0395551Y0467244
X0393701Y0452756
X0413386
X0452756
X0442913Y0433071
X0452756Y0413386
X0393701
X0383858Y0433071
X0393701Y0374016
X0383858Y0354331
X0334646Y0374016
X0314961
Y0413386
X0334646
X0314961Y0452756
X0423228Y0314961
X0442913
X0462598
X0472441Y0334646
X0492126
X0511811
X0521654Y0354331
X0501968
X0482283
X0492126Y0374016
X0472441
X0482283Y0393701
X0501968
X0521654
X0541339
X0551181Y0413386
X0531496
X0511811
X0492126
X0472441
X0482283Y0433071
X0501968
X0521654
X0531496Y0452756
X0551181
X0561024Y0433071
X0511811Y0452756
X0492126
X0531496Y0374016
X0521654Y0472441
X0501968
X0482283
Y0511811
X0501968
X0521654
X0529961Y051689
X0525315Y0525394
X0519842Y0535512
X0511811Y0531496
X0513386Y0548189
X0501968Y0551181
X051063Y0560236
X0492126Y0570866
X0501968Y0590551
X0492126Y0610236
X0471142Y0584094
X0471Y058
X0492126Y0531496
X0511811Y0492126
X0531496
X0551181
X0561024Y0472441
X0442913
X0447244Y0486535
X04515Y04865
X0442913Y0511811
X0445905Y0518937
X0444Y0522
X0442913Y0551181
X0447362Y0560748
X0446Y0564
X0442913Y0590551
X0423228
X0413386Y0570866
X0393701
X0374016
X0383858Y0590551
X0363543Y0600827
X03605Y06025
X032185Y0602283
X0324803Y0590551
X03235Y0582626
X0337087Y0581653
X0337756Y0537913
X0329449Y0544488
X0325811Y05445
X0319843Y0554055
X0320905Y0515276
X03255Y0517
X033252Y0516142
X0333Y052
X03295Y0523
X0337402Y0515158
X0336614Y0499094
X03345Y0495876
X0334646Y0492126
X0338228Y0484803
X0344488Y0472441
X0324803
X0321929Y049248
X03225Y0496
X0363189Y0485709
X0374016Y0492126
X0393701
X03945Y04705
X0423228Y0472441
Y0511811
X0403543
X03905Y05175
X0391378Y052126
X0393701Y0531496
X0374016
X0368329Y0529071
X0368465Y0522008
X036076Y0522039
X0364173Y0551181
X0403543
X0423228
X045685Y0543976
X0467677Y0549449
X046874Y0537126
X04685Y05325
X0295276Y0531496
X0275591
X0255906
X0236221
X0243898Y0515158
X0246063Y0511811
X0265748
X0285433
X0305118
X0305Y0514921
X0295276Y0492126
X0305118Y0472441
X0272835Y0471575
X0262992Y0471693
X02635Y04845
X0259882Y0485118
X0255906Y0492126
X0236221
X0216535
X0226378Y0511811
Y0472441
X0246063
X0206693
X0262677Y054689
X0265748Y0551181
X0285433
X0294213Y0555984
X0295276Y0570866
X0275591
X0285433Y0590551
X0305118
X0310827Y056559
T02
X0470761Y0298165
X0470579Y0307093
X0478221Y0311714
X0486043Y0307407
X0486224Y0298479
X0478583Y0293858
X030642Y0298479
X0306239Y0307407
X0298417Y0311714
X0290776Y0307093
X0290957Y0298165
X029878Y0293858
X0216519Y0454193
X0216338Y0463121
X0208516Y0467428
X0200875Y0462807
X0201056Y0453879
X0208878Y0449572
X0560662Y0453879
X0560481Y0462807
X0568122Y0467428
X0575944Y0463121
X0576125Y0454193
X0568484Y0449572
X0486224Y0609907
X0486043Y0618835
X0478221Y0623142
X0470579Y0618521
X0470761Y0609593
X0478583Y0605287
X030642Y0609907
X0306239Y0618835
X0298417Y0623142
X0290776Y0618521
X0290957Y0609593
X029878Y0605287
T03
X03395Y04
Y0407874
Y0429819
Y0437693
X0314
Y0429819
X0438Y0430819
Y0438693
X04635
Y0430819
X0438Y0408874
Y0401
X04845Y0495376
Y050325
Y0538626
Y05465
Y0581876
Y058975
X0406Y05905
Y0582626
Y0547125
Y0539251
Y050375
Y0495876
X03685
Y050375
Y0539251
Y0547125
Y0582626
Y05905
X029Y05905
Y0582626
Y0547125
Y0539251
Y0504874
Y0497
T04
X0314Y0485376
Y0495376
Y0505376
Y0515376
Y0528624
Y0538624
Y0548624
Y0558624
Y0572126
Y0582126
Y0592126
Y0602126
X0345
Y0592126
Y0582126
Y0572126
Y0558624
Y0548624
Y0538624
Y0528624
Y0515376
Y0505376
Y0495376
Y0485376
X04295
Y0495376
Y0505376
Y0515376
Y0528751
Y0538751
Y0548751
Y0558751
Y0572126
Y0582126
Y0592126
Y0602126
X04605
Y0592126
Y0582126
Y0572126
Y0558751
Y0548751
Y0538751
Y0528751
Y0515376
Y0505376
Y0495376
Y0485376
T05
X03195Y0297
X03295
X03395
X0373972Y0295614
Y0305614
X04035
Y0295614
X04295Y02965
X04395
X04495
X0257072Y0371137
X0252073Y0379797
X0247073Y0388457
X0373972Y0385614
Y0395614
Y0405614
Y0415614
Y0425614
Y0435614
Y0445614
Y0455614
X04035
Y0445614
Y0435614
Y0425614
Y0415614
Y0405614
Y0395614
Y0385614
Y0375614
Y0365614
Y0355614
Y0345614
Y0335614
Y0325614
Y0315614
X0373972
Y0325614
Y0335614
Y0345614
Y0355614
Y0365614
Y0375614
X0519899Y0371087
X0524899Y0379748
X0529899Y0388408
X05365Y0521
X05315Y052966
X05265Y053832
X05215Y0546981
X05165Y0555641
X03985Y0616
X03885
X03785
X02555Y0549
X02505Y054034
X02455Y0531679
X02405Y0523019
T06
X0293347Y0401
X0315
X0462Y04045
X0483653
T07
X0478402Y0302786
X0298598
X0208697Y04585
X0568303
X0478402Y0614214
X0298598
M30
