G04*
G04 #@! TF.GenerationSoftware,Altium Limited,Altium Designer,21.0.9 (235)*
G04*
G04 Layer_Physical_Order=2*
G04 Layer_Color=16711680*
%FSLAX25Y25*%
%MOIN*%
G70*
G04*
G04 #@! TF.SameCoordinates,40033AE3-64CB-4EA6-9D7A-4CABB624556D*
G04*
G04*
G04 #@! TF.FilePolarity,Positive*
G04*
G01*
G75*
%ADD19C,0.02756*%
%ADD20C,0.01000*%
%ADD21C,0.00984*%
%ADD22C,0.05118*%
%ADD23C,0.23622*%
%ADD24C,0.11811*%
%ADD25C,0.07874*%
%ADD26P,0.11136X4X195.0*%
%ADD27R,0.07874X0.07874*%
%ADD28P,0.11136X4X75.0*%
%ADD29R,0.07874X0.07874*%
%ADD30C,0.02362*%
%ADD31R,0.05118X0.02756*%
%ADD32R,0.05118X0.03543*%
%ADD33R,0.02756X0.05118*%
%ADD34R,0.03543X0.05118*%
G36*
X584377Y458500D02*
X486439Y288865D01*
X290562D01*
X192623Y458500D01*
X290562Y628134D01*
X486439D01*
X584377Y458500D01*
D02*
G37*
%LPC*%
G36*
X393213Y615606D02*
X388894D01*
Y611287D01*
X389733Y611397D01*
X390883Y611873D01*
X391869Y612631D01*
X392627Y613617D01*
X393103Y614767D01*
X393213Y615606D01*
D02*
G37*
G36*
X388106D02*
X383787D01*
X383897Y614767D01*
X384373Y613617D01*
X385131Y612631D01*
X386117Y611873D01*
X387267Y611397D01*
X388106Y611287D01*
Y615606D01*
D02*
G37*
G36*
X477748Y626676D02*
X475807Y626421D01*
X473929Y625865D01*
X472162Y625022D01*
X470548Y623912D01*
X469128Y622565D01*
X467936Y621011D01*
X467001Y619290D01*
X466347Y617444D01*
X465990Y615519D01*
X465939Y613561D01*
X466195Y611620D01*
X466751Y609742D01*
X467238Y608720D01*
X466824Y608427D01*
X450437Y624815D01*
X450063Y625064D01*
X449622Y625152D01*
X377000D01*
X376559Y625064D01*
X376185Y624815D01*
X349685Y598315D01*
X349436Y597941D01*
X349348Y597500D01*
Y595042D01*
X348848Y594872D01*
X348370Y595496D01*
X347383Y596253D01*
X346233Y596729D01*
X345356Y596844D01*
X345132Y596874D01*
Y597378D01*
X345356Y597408D01*
X346233Y597523D01*
X347383Y597999D01*
X348370Y598757D01*
X349127Y599743D01*
X349603Y600893D01*
X349713Y601732D01*
X345000D01*
X340287D01*
X340397Y600893D01*
X340873Y599743D01*
X341631Y598757D01*
X342617Y597999D01*
X343767Y597523D01*
X344644Y597408D01*
X344868Y597378D01*
Y596874D01*
X344644Y596844D01*
X343767Y596729D01*
X342617Y596253D01*
X341631Y595496D01*
X340873Y594509D01*
X340397Y593359D01*
X340287Y592520D01*
X345000D01*
Y592126D01*
X345394D01*
Y587413D01*
X346233Y587523D01*
X347383Y587999D01*
X348370Y588757D01*
X348848Y589380D01*
X349348Y589210D01*
Y588103D01*
X348557Y587313D01*
X348504Y587268D01*
X348335Y587165D01*
X348111Y587064D01*
X347831Y586970D01*
X347495Y586888D01*
X347121Y586821D01*
X345622Y586708D01*
X345201Y586706D01*
X345000Y586732D01*
X343808Y586575D01*
X342697Y586115D01*
X341743Y585383D01*
X341011Y584429D01*
X340551Y583318D01*
X340394Y582126D01*
X340551Y580934D01*
X341011Y579823D01*
X341743Y578869D01*
X342697Y578137D01*
X343808Y577677D01*
X345000Y577520D01*
X346192Y577677D01*
X347303Y578137D01*
X348257Y578869D01*
X348989Y579823D01*
X349449Y580934D01*
X349606Y582126D01*
X349580Y582327D01*
X349582Y582755D01*
X349640Y583799D01*
X349693Y584233D01*
X349762Y584621D01*
X349845Y584957D01*
X349938Y585237D01*
X350039Y585461D01*
X350142Y585630D01*
X350187Y585683D01*
X351315Y586811D01*
X351564Y587185D01*
X351652Y587626D01*
Y597023D01*
X377477Y622848D01*
X383012D01*
X383219Y622348D01*
X382057Y621187D01*
X382004Y621142D01*
X381835Y621039D01*
X381611Y620938D01*
X381330Y620844D01*
X380995Y620762D01*
X380621Y620695D01*
X379122Y620582D01*
X378701Y620580D01*
X378500Y620606D01*
X377308Y620449D01*
X376197Y619989D01*
X375243Y619257D01*
X374511Y618303D01*
X374051Y617192D01*
X374013Y616909D01*
X373997Y616849D01*
X373996Y616848D01*
X373974Y616837D01*
X373930Y616822D01*
X373861Y616807D01*
X373811Y616801D01*
X373649D01*
X373208Y616713D01*
X372834Y616463D01*
X360827Y604456D01*
X360778Y604420D01*
X360729Y604389D01*
X360685Y604365D01*
X360645Y604348D01*
X360610Y604337D01*
X360582Y604330D01*
X360500Y604347D01*
X359793Y604206D01*
X359194Y603806D01*
X358794Y603207D01*
X358653Y602500D01*
X358794Y601793D01*
X359194Y601194D01*
X359793Y600794D01*
X360500Y600654D01*
X361207Y600794D01*
X361806Y601194D01*
X362206Y601793D01*
X362347Y602500D01*
X362330Y602582D01*
X362337Y602610D01*
X362348Y602645D01*
X362366Y602685D01*
X362389Y602729D01*
X362420Y602778D01*
X362456Y602827D01*
X373772Y614142D01*
X373837Y614165D01*
X373865Y614173D01*
X374371Y614035D01*
X374511Y613697D01*
X375243Y612743D01*
X376197Y612011D01*
X377308Y611551D01*
X378500Y611394D01*
X379692Y611551D01*
X380803Y612011D01*
X381757Y612743D01*
X382489Y613697D01*
X382949Y614808D01*
X383106Y616000D01*
X383080Y616201D01*
X383082Y616629D01*
X383140Y617673D01*
X383193Y618107D01*
X383262Y618495D01*
X383345Y618830D01*
X383438Y619111D01*
X383539Y619335D01*
X383642Y619504D01*
X383687Y619557D01*
X384977Y620848D01*
X386552D01*
X386651Y620348D01*
X386117Y620127D01*
X385131Y619370D01*
X384373Y618383D01*
X383897Y617233D01*
X383787Y616394D01*
X388500D01*
Y616000D01*
D01*
Y616394D01*
X393213D01*
X393103Y617233D01*
X392627Y618383D01*
X391869Y619370D01*
X390883Y620127D01*
X390349Y620348D01*
X390448Y620848D01*
X393549D01*
X393933Y620567D01*
X393933Y620348D01*
Y611433D01*
X403067D01*
Y620348D01*
X403067Y620567D01*
X403450Y620848D01*
X448389D01*
X462423Y606814D01*
X462140Y606390D01*
X461692Y606575D01*
X460500Y606732D01*
X459308Y606575D01*
X458197Y606115D01*
X457243Y605383D01*
X456511Y604429D01*
X456051Y603318D01*
X455894Y602126D01*
X456051Y600934D01*
X456511Y599823D01*
X457243Y598869D01*
X458197Y598137D01*
X459308Y597677D01*
X460500Y597520D01*
X461692Y597677D01*
X462803Y598137D01*
X463757Y598869D01*
X464489Y599823D01*
X464949Y600934D01*
X465106Y602126D01*
X464949Y603318D01*
X464764Y603766D01*
X465188Y604049D01*
X476613Y592624D01*
X476986Y592375D01*
X477427Y592287D01*
X481797D01*
X482043Y591787D01*
X481714Y591358D01*
X481393Y590583D01*
X481284Y589750D01*
X481393Y588917D01*
X481714Y588142D01*
X482226Y587476D01*
X482892Y586964D01*
X483668Y586643D01*
X484500Y586533D01*
X485332Y586643D01*
X486108Y586964D01*
X486774Y587476D01*
X487286Y588142D01*
X487607Y588917D01*
X487677Y589453D01*
X488205Y589632D01*
X511177Y566660D01*
X512350Y561402D01*
X512390Y561311D01*
X512444Y561040D01*
X512562Y560862D01*
X512584Y560798D01*
X512585Y560796D01*
X513449Y559300D01*
X513476Y559242D01*
X513499Y559182D01*
X510261Y557313D01*
X514828Y549403D01*
X522739Y553969D01*
X518172Y561880D01*
X515882Y560558D01*
X515248Y560761D01*
X514828Y561488D01*
X514614Y561902D01*
X514614Y561902D01*
X514501Y562292D01*
X514470Y562406D01*
X513335Y567497D01*
X513309Y567556D01*
X513283Y567690D01*
X513187Y567833D01*
X513155Y567906D01*
X513109Y567950D01*
X513033Y568063D01*
X487487Y593609D01*
X487652Y594152D01*
X487678Y594157D01*
X518177Y563658D01*
X523687Y553519D01*
X523678Y553497D01*
X523688Y553474D01*
X523419Y552973D01*
X523380Y552914D01*
X523248Y552768D01*
X523063Y552607D01*
X522821Y552437D01*
X522523Y552261D01*
X522183Y552090D01*
X520776Y551548D01*
X520455Y551449D01*
X520308Y551430D01*
X519197Y550970D01*
X518243Y550238D01*
X517511Y549284D01*
X517051Y548173D01*
X516894Y546981D01*
X517051Y545789D01*
X517511Y544678D01*
X518243Y543724D01*
X519197Y542992D01*
X520308Y542531D01*
X521500Y542374D01*
X522692Y542531D01*
X523803Y542992D01*
X524757Y543724D01*
X525489Y544678D01*
X525949Y545789D01*
X526106Y546981D01*
X525949Y548173D01*
X525854Y548402D01*
X525705Y548907D01*
X525458Y549927D01*
X525383Y550358D01*
X525336Y550751D01*
X525318Y551096D01*
X525326Y551392D01*
X525357Y551635D01*
X525407Y551825D01*
X525434Y551891D01*
X525757Y552490D01*
X525769Y552531D01*
X525865Y552675D01*
X526029Y553497D01*
X525865Y554319D01*
X525765Y554469D01*
X525751Y554513D01*
X520155Y564810D01*
X520154Y564816D01*
X520144Y564831D01*
X520095Y564921D01*
X520038Y564990D01*
X519904Y565189D01*
X488610Y596484D01*
X488236Y596734D01*
X487795Y596821D01*
X478430D01*
X472628Y602624D01*
X472930Y603028D01*
X473326Y602814D01*
X475172Y602160D01*
X477097Y601803D01*
X479055Y601752D01*
X480996Y602007D01*
X482874Y602564D01*
X484641Y603407D01*
X486255Y604516D01*
X487676Y605864D01*
X488868Y607417D01*
X489802Y609138D01*
X490456Y610984D01*
X490813Y612910D01*
X490864Y614867D01*
X490608Y616809D01*
X490052Y618686D01*
X489209Y620454D01*
X488100Y622068D01*
X486752Y623488D01*
X485198Y624680D01*
X483477Y625615D01*
X481632Y626268D01*
X479706Y626625D01*
X477748Y626676D01*
D02*
G37*
G36*
X345394Y606839D02*
Y602520D01*
X349713D01*
X349603Y603359D01*
X349127Y604509D01*
X348370Y605496D01*
X347383Y606253D01*
X346233Y606729D01*
X345394Y606839D01*
D02*
G37*
G36*
X344606D02*
X343767Y606729D01*
X342617Y606253D01*
X341631Y605496D01*
X340873Y604509D01*
X340397Y603359D01*
X340287Y602520D01*
X344606D01*
Y606839D01*
D02*
G37*
G36*
X298598Y626693D02*
X296646Y626540D01*
X294742Y626083D01*
X292933Y625333D01*
X291263Y624310D01*
X289774Y623038D01*
X288502Y621549D01*
X287479Y619880D01*
X286730Y618070D01*
X286273Y616166D01*
X286119Y614214D01*
X286273Y612262D01*
X286730Y610358D01*
X287479Y608549D01*
X288502Y606879D01*
X289774Y605390D01*
X291263Y604118D01*
X292933Y603095D01*
X294742Y602346D01*
X296646Y601888D01*
X298598Y601735D01*
X300551Y601888D01*
X302455Y602346D01*
X304264Y603095D01*
X305934Y604118D01*
X307423Y605390D01*
X308695Y606879D01*
X309718Y608549D01*
X310467Y610358D01*
X310924Y612262D01*
X311078Y614214D01*
X310924Y616166D01*
X310467Y618070D01*
X309718Y619880D01*
X308695Y621549D01*
X307423Y623038D01*
X305934Y624310D01*
X304264Y625333D01*
X302455Y626083D01*
X300551Y626540D01*
X298598Y626693D01*
D02*
G37*
G36*
X429500Y606732D02*
X428308Y606575D01*
X427197Y606115D01*
X426243Y605383D01*
X425511Y604429D01*
X425051Y603318D01*
X424894Y602126D01*
X425051Y600934D01*
X425511Y599823D01*
X426243Y598869D01*
X427197Y598137D01*
X428308Y597677D01*
X429500Y597520D01*
X430692Y597677D01*
X431803Y598137D01*
X432757Y598869D01*
X433489Y599823D01*
X433949Y600934D01*
X434106Y602126D01*
X433949Y603318D01*
X433489Y604429D01*
X432757Y605383D01*
X431803Y606115D01*
X430692Y606575D01*
X429500Y606732D01*
D02*
G37*
G36*
X314000D02*
X312808Y606575D01*
X311697Y606115D01*
X310743Y605383D01*
X310011Y604429D01*
X309551Y603318D01*
X309394Y602126D01*
X309551Y600934D01*
X310011Y599823D01*
X310743Y598869D01*
X311697Y598137D01*
X312808Y597677D01*
X314000Y597520D01*
X315192Y597677D01*
X316303Y598137D01*
X317257Y598869D01*
X317989Y599823D01*
X318449Y600934D01*
X318606Y602126D01*
X318449Y603318D01*
X317989Y604429D01*
X317257Y605383D01*
X316303Y606115D01*
X315192Y606575D01*
X314000Y606732D01*
D02*
G37*
G36*
X460500Y596732D02*
X459308Y596575D01*
X458197Y596115D01*
X457243Y595383D01*
X456511Y594429D01*
X456051Y593318D01*
X455894Y592126D01*
X456051Y590934D01*
X456511Y589823D01*
X457243Y588869D01*
X458197Y588137D01*
X459308Y587677D01*
X460500Y587520D01*
X461692Y587677D01*
X462803Y588137D01*
X463757Y588869D01*
X464489Y589823D01*
X464949Y590934D01*
X465106Y592126D01*
X464949Y593318D01*
X464489Y594429D01*
X463757Y595383D01*
X462803Y596115D01*
X461692Y596575D01*
X460500Y596732D01*
D02*
G37*
G36*
X344606Y591732D02*
X340287D01*
X340397Y590893D01*
X340873Y589743D01*
X341631Y588757D01*
X342617Y587999D01*
X343767Y587523D01*
X344606Y587413D01*
Y591732D01*
D02*
G37*
G36*
X406000Y593716D02*
X405167Y593607D01*
X404392Y593286D01*
X403726Y592774D01*
X403214Y592108D01*
X402893Y591332D01*
X402783Y590500D01*
X402893Y589668D01*
X403214Y588892D01*
X403726Y588226D01*
X404392Y587714D01*
X405167Y587393D01*
X406000Y587284D01*
X406833Y587393D01*
X407608Y587714D01*
X408274Y588226D01*
X408786Y588892D01*
X409107Y589668D01*
X409216Y590500D01*
X409107Y591332D01*
X408786Y592108D01*
X408274Y592774D01*
X407608Y593286D01*
X406833Y593607D01*
X406000Y593716D01*
D02*
G37*
G36*
X368500D02*
X367668Y593607D01*
X366892Y593286D01*
X366226Y592774D01*
X365714Y592108D01*
X365393Y591332D01*
X365283Y590500D01*
X365292Y590437D01*
X365285Y590408D01*
X365259Y590338D01*
X365213Y590242D01*
X365145Y590127D01*
X365062Y590005D01*
X364808Y589703D01*
X349531Y574427D01*
X349279Y574428D01*
X348921Y574518D01*
X348257Y575383D01*
X347303Y576115D01*
X346192Y576575D01*
X345000Y576732D01*
X343808Y576575D01*
X342697Y576115D01*
X341743Y575383D01*
X341011Y574429D01*
X340551Y573318D01*
X340394Y572126D01*
X340551Y570934D01*
X341011Y569823D01*
X341743Y568869D01*
X342697Y568137D01*
X343808Y567677D01*
X345000Y567520D01*
X346192Y567677D01*
X347303Y568137D01*
X348257Y568869D01*
X348989Y569823D01*
X349095Y570079D01*
X350126D01*
X350126Y570079D01*
X350909Y570235D01*
X351574Y570678D01*
X364913Y584018D01*
X365337Y583735D01*
X365240Y583500D01*
X365177Y583020D01*
X368106D01*
Y585950D01*
X367626Y585886D01*
X367391Y585789D01*
X367108Y586213D01*
X367765Y586870D01*
X367849Y586944D01*
X367993Y587054D01*
X368127Y587145D01*
X368242Y587213D01*
X368337Y587259D01*
X368408Y587285D01*
X368437Y587292D01*
X368500Y587284D01*
X369333Y587393D01*
X370108Y587714D01*
X370774Y588226D01*
X371286Y588892D01*
X371607Y589668D01*
X371716Y590500D01*
X371607Y591332D01*
X371286Y592108D01*
X370774Y592774D01*
X370108Y593286D01*
X369333Y593607D01*
X368500Y593716D01*
D02*
G37*
G36*
X406394Y585950D02*
Y583020D01*
X409324D01*
X409260Y583500D01*
X408923Y584314D01*
X408387Y585013D01*
X407688Y585549D01*
X406874Y585886D01*
X406394Y585950D01*
D02*
G37*
G36*
X368894D02*
Y583020D01*
X371824D01*
X371760Y583500D01*
X371423Y584314D01*
X370887Y585013D01*
X370188Y585549D01*
X369374Y585886D01*
X368894Y585950D01*
D02*
G37*
G36*
X290394Y585950D02*
Y583020D01*
X293323D01*
X293260Y583500D01*
X292923Y584314D01*
X292387Y585013D01*
X291688Y585549D01*
X290874Y585886D01*
X290394Y585950D01*
D02*
G37*
G36*
X405606Y585950D02*
X405126Y585886D01*
X404312Y585549D01*
X403613Y585013D01*
X403077Y584314D01*
X402740Y583500D01*
X402676Y583020D01*
X405606D01*
Y585950D01*
D02*
G37*
G36*
X289606Y585950D02*
X289126Y585886D01*
X288312Y585549D01*
X287613Y585013D01*
X287077Y584314D01*
X286740Y583500D01*
X286677Y583020D01*
X289606D01*
Y585950D01*
D02*
G37*
G36*
X429894Y586839D02*
Y582520D01*
X434213D01*
X434103Y583359D01*
X433627Y584509D01*
X432869Y585496D01*
X431883Y586253D01*
X430733Y586729D01*
X429894Y586839D01*
D02*
G37*
G36*
X429106D02*
X428267Y586729D01*
X427117Y586253D01*
X426130Y585496D01*
X425373Y584509D01*
X424897Y583359D01*
X424787Y582520D01*
X429106D01*
Y586839D01*
D02*
G37*
G36*
X484894Y585199D02*
Y582270D01*
X487823D01*
X487760Y582750D01*
X487423Y583564D01*
X486887Y584263D01*
X486188Y584799D01*
X485374Y585136D01*
X484894Y585199D01*
D02*
G37*
G36*
X484106D02*
X483626Y585136D01*
X482812Y584799D01*
X482113Y584263D01*
X481577Y583564D01*
X481240Y582750D01*
X481177Y582270D01*
X484106D01*
Y585199D01*
D02*
G37*
G36*
X314000Y596732D02*
X312808Y596575D01*
X311697Y596115D01*
X310743Y595383D01*
X310011Y594429D01*
X309551Y593318D01*
X309394Y592126D01*
X309551Y590934D01*
X310011Y589823D01*
X310743Y588869D01*
X311697Y588137D01*
X312808Y587677D01*
X314000Y587520D01*
X314201Y587546D01*
X314629Y587544D01*
X315673Y587486D01*
X316107Y587433D01*
X316495Y587364D01*
X316830Y587282D01*
X317111Y587188D01*
X317335Y587087D01*
X317504Y586984D01*
X317557Y586939D01*
X321544Y582953D01*
X321580Y582904D01*
X321611Y582855D01*
X321635Y582811D01*
X321652Y582771D01*
X321663Y582736D01*
X321670Y582708D01*
X321654Y582626D01*
X321794Y581919D01*
X322194Y581320D01*
X322793Y580920D01*
X323500Y580780D01*
X324207Y580920D01*
X324806Y581320D01*
X325206Y581919D01*
X325346Y582626D01*
X325206Y583333D01*
X324806Y583932D01*
X324207Y584332D01*
X323500Y584473D01*
X323418Y584456D01*
X323390Y584463D01*
X323355Y584474D01*
X323315Y584491D01*
X323271Y584515D01*
X323222Y584546D01*
X323173Y584582D01*
X319187Y588569D01*
X319142Y588622D01*
X319039Y588791D01*
X318938Y589015D01*
X318845Y589295D01*
X318762Y589631D01*
X318695Y590005D01*
X318582Y591503D01*
X318580Y591924D01*
X318606Y592126D01*
X318449Y593318D01*
X317989Y594429D01*
X317257Y595383D01*
X316303Y596115D01*
X315192Y596575D01*
X314000Y596732D01*
D02*
G37*
G36*
X293323Y582232D02*
X290394D01*
Y579303D01*
X290874Y579366D01*
X291688Y579703D01*
X292387Y580239D01*
X292923Y580938D01*
X293260Y581752D01*
X293323Y582232D01*
D02*
G37*
G36*
X289606D02*
X286677D01*
X286740Y581752D01*
X287077Y580938D01*
X287613Y580239D01*
X288312Y579703D01*
X289126Y579366D01*
X289606Y579303D01*
Y582232D01*
D02*
G37*
G36*
X409324D02*
X406394D01*
Y579303D01*
X406874Y579366D01*
X407688Y579703D01*
X408387Y580239D01*
X408923Y580938D01*
X409260Y581752D01*
X409324Y582232D01*
D02*
G37*
G36*
X371824D02*
X368894D01*
Y579303D01*
X369374Y579366D01*
X370188Y579703D01*
X370887Y580239D01*
X371423Y580938D01*
X371760Y581752D01*
X371824Y582232D01*
D02*
G37*
G36*
X368106D02*
X365177D01*
X365240Y581752D01*
X365577Y580938D01*
X366113Y580239D01*
X366812Y579703D01*
X367626Y579366D01*
X368106Y579303D01*
Y582232D01*
D02*
G37*
G36*
X405606D02*
X402676D01*
X402740Y581752D01*
X403077Y580938D01*
X403613Y580239D01*
X404312Y579703D01*
X405126Y579366D01*
X405606Y579303D01*
Y582232D01*
D02*
G37*
G36*
X487823Y581482D02*
X484894D01*
Y578552D01*
X485374Y578616D01*
X486188Y578953D01*
X486887Y579489D01*
X487423Y580188D01*
X487760Y581002D01*
X487823Y581482D01*
D02*
G37*
G36*
X484106D02*
X481177D01*
X481240Y581002D01*
X481577Y580188D01*
X482113Y579489D01*
X482812Y578953D01*
X483626Y578616D01*
X484106Y578552D01*
Y581482D01*
D02*
G37*
G36*
X460500Y586732D02*
X459308Y586575D01*
X458197Y586115D01*
X457243Y585383D01*
X456511Y584429D01*
X456051Y583318D01*
X455894Y582126D01*
X456051Y580934D01*
X456511Y579823D01*
X457243Y578869D01*
X458197Y578137D01*
X459308Y577677D01*
X460500Y577520D01*
X461692Y577677D01*
X462803Y578137D01*
X463757Y578869D01*
X463881Y579030D01*
X464185Y579331D01*
X464964Y580028D01*
X465308Y580297D01*
X465632Y580523D01*
X465927Y580702D01*
X466192Y580834D01*
X466422Y580921D01*
X466613Y580968D01*
X466683Y580974D01*
X468397D01*
X469044Y580327D01*
X469080Y580278D01*
X469111Y580229D01*
X469135Y580185D01*
X469152Y580145D01*
X469163Y580110D01*
X469170Y580082D01*
X469153Y580000D01*
X469294Y579293D01*
X469694Y578694D01*
X470293Y578294D01*
X471000Y578154D01*
X471707Y578294D01*
X472306Y578694D01*
X472706Y579293D01*
X472847Y580000D01*
X472706Y580707D01*
X472306Y581306D01*
X471707Y581706D01*
X471000Y581847D01*
X470918Y581830D01*
X470890Y581837D01*
X470855Y581848D01*
X470815Y581866D01*
X470771Y581889D01*
X470722Y581920D01*
X470673Y581956D01*
X469689Y582941D01*
X469315Y583190D01*
X468874Y583278D01*
X466683D01*
X466613Y583284D01*
X466422Y583331D01*
X466191Y583418D01*
X465927Y583550D01*
X465632Y583729D01*
X465320Y583946D01*
X464180Y584926D01*
X463881Y585222D01*
X463757Y585383D01*
X462803Y586115D01*
X461692Y586575D01*
X460500Y586732D01*
D02*
G37*
G36*
X314000D02*
X312808Y586575D01*
X311697Y586115D01*
X310743Y585383D01*
X310011Y584429D01*
X309551Y583318D01*
X309394Y582126D01*
X309551Y580934D01*
X310011Y579823D01*
X310743Y578869D01*
X311697Y578137D01*
X312808Y577677D01*
X314000Y577520D01*
X315192Y577677D01*
X316303Y578137D01*
X317257Y578869D01*
X317989Y579823D01*
X318449Y580934D01*
X318606Y582126D01*
X318449Y583318D01*
X317989Y584429D01*
X317257Y585383D01*
X316303Y586115D01*
X315192Y586575D01*
X314000Y586732D01*
D02*
G37*
G36*
X434213Y581732D02*
X424787D01*
X424897Y580893D01*
X425373Y579743D01*
X426130Y578757D01*
X427117Y577999D01*
X428267Y577523D01*
X429144Y577408D01*
X429368Y577378D01*
Y576874D01*
X429144Y576844D01*
X428267Y576729D01*
X427117Y576253D01*
X426130Y575495D01*
X425373Y574509D01*
X424897Y573359D01*
X424787Y572520D01*
X434213D01*
X434103Y573359D01*
X433627Y574509D01*
X432869Y575495D01*
X431883Y576253D01*
X430733Y576729D01*
X429856Y576844D01*
X429632Y576874D01*
Y577378D01*
X429856Y577408D01*
X430733Y577523D01*
X431883Y577999D01*
X432869Y578757D01*
X433627Y579743D01*
X434103Y580893D01*
X434213Y581732D01*
D02*
G37*
G36*
X290000Y593716D02*
X289167Y593607D01*
X288392Y593286D01*
X287726Y592774D01*
X287214Y592108D01*
X286893Y591332D01*
X286784Y590500D01*
X286893Y589668D01*
X287214Y588892D01*
X287726Y588226D01*
X288392Y587714D01*
X289167Y587393D01*
X290000Y587284D01*
X290503Y587350D01*
X290537Y587346D01*
X290607Y587353D01*
X290637Y587350D01*
X290694Y587337D01*
X290776Y587306D01*
X290882Y587253D01*
X291007Y587176D01*
X291144Y587079D01*
X291280Y586964D01*
X295521Y582723D01*
X295521Y582723D01*
X307108Y571136D01*
X307108Y571136D01*
X307772Y570692D01*
X308556Y570536D01*
X308556Y570536D01*
X309203D01*
X309305Y570527D01*
X309485Y570501D01*
X309626Y570471D01*
X309724Y570441D01*
X309762Y570424D01*
X310011Y569823D01*
X310743Y568869D01*
X311697Y568137D01*
X312808Y567677D01*
X314000Y567520D01*
X315192Y567677D01*
X316303Y568137D01*
X317257Y568869D01*
X317989Y569823D01*
X318449Y570934D01*
X318606Y572126D01*
X318449Y573318D01*
X317989Y574429D01*
X317257Y575383D01*
X316303Y576115D01*
X315192Y576575D01*
X314000Y576732D01*
X312808Y576575D01*
X311697Y576115D01*
X310743Y575383D01*
X310262Y574757D01*
X310228Y574743D01*
X310120Y574714D01*
X309982Y574687D01*
X309391Y574643D01*
X298416Y585618D01*
X298416Y585618D01*
X298416Y585618D01*
X293555Y590480D01*
X293350Y590730D01*
X293270Y590841D01*
X293209Y590936D01*
X293172Y591005D01*
X293158Y591040D01*
X293144Y591090D01*
X293137Y591106D01*
X293107Y591332D01*
X292786Y592108D01*
X292274Y592774D01*
X291608Y593286D01*
X290832Y593607D01*
X290000Y593716D01*
D02*
G37*
G36*
X434213Y571732D02*
X429894D01*
Y567413D01*
X430733Y567523D01*
X431883Y567999D01*
X432869Y568756D01*
X433627Y569743D01*
X434103Y570893D01*
X434213Y571732D01*
D02*
G37*
G36*
X429106D02*
X424787D01*
X424897Y570893D01*
X425373Y569743D01*
X426130Y568756D01*
X427117Y567999D01*
X428267Y567523D01*
X429106Y567413D01*
Y571732D01*
D02*
G37*
G36*
X429500Y596732D02*
X428308Y596575D01*
X427197Y596115D01*
X426243Y595383D01*
X425511Y594429D01*
X425051Y593318D01*
X424894Y592126D01*
X425051Y590934D01*
X425511Y589823D01*
X426243Y588869D01*
X427197Y588137D01*
X428308Y587677D01*
X429500Y587520D01*
X430692Y587677D01*
X431803Y588137D01*
X432757Y588869D01*
X432853Y588994D01*
X432899Y589036D01*
X433069Y589172D01*
X433244Y589290D01*
X433424Y589391D01*
X433610Y589476D01*
X433803Y589546D01*
X434004Y589601D01*
X434213Y589641D01*
X458127Y565727D01*
X458238Y565652D01*
X458087Y565152D01*
X447614D01*
X447554Y565161D01*
X447498Y565174D01*
X447450Y565188D01*
X447410Y565204D01*
X447376Y565221D01*
X447352Y565236D01*
X447306Y565306D01*
X446707Y565706D01*
X446000Y565846D01*
X445293Y565706D01*
X444694Y565306D01*
X444294Y564707D01*
X444153Y564000D01*
X444294Y563293D01*
X444694Y562694D01*
X445293Y562294D01*
X446000Y562153D01*
X446707Y562294D01*
X447306Y562694D01*
X447352Y562764D01*
X447376Y562779D01*
X447410Y562796D01*
X447450Y562812D01*
X447498Y562826D01*
X447554Y562839D01*
X447614Y562848D01*
X457516D01*
X457686Y562348D01*
X457243Y562008D01*
X456511Y561054D01*
X456051Y559943D01*
X455894Y558751D01*
X456051Y557559D01*
X456511Y556448D01*
X457243Y555494D01*
X458197Y554762D01*
X459308Y554302D01*
X460500Y554145D01*
X461692Y554302D01*
X462803Y554762D01*
X463757Y555494D01*
X463791Y555538D01*
X463821Y555563D01*
X464087Y555758D01*
X464359Y555928D01*
X464636Y556075D01*
X464918Y556199D01*
X465207Y556299D01*
X465504Y556378D01*
X465809Y556434D01*
X465982Y556453D01*
X471652D01*
X480870Y547235D01*
X480944Y547151D01*
X481054Y547007D01*
X481145Y546873D01*
X481213Y546758D01*
X481259Y546663D01*
X481285Y546592D01*
X481292Y546563D01*
X481284Y546500D01*
X481393Y545668D01*
X481714Y544892D01*
X482226Y544226D01*
X482892Y543714D01*
X483668Y543393D01*
X484500Y543284D01*
X485332Y543393D01*
X486108Y543714D01*
X486774Y544226D01*
X487286Y544892D01*
X487607Y545668D01*
X487716Y546500D01*
X487607Y547332D01*
X487286Y548108D01*
X486774Y548774D01*
X486108Y549286D01*
X485332Y549607D01*
X484500Y549717D01*
X484437Y549708D01*
X484408Y549715D01*
X484338Y549741D01*
X484242Y549787D01*
X484127Y549855D01*
X484005Y549938D01*
X483703Y550192D01*
X473948Y559948D01*
X473283Y560391D01*
X472500Y560547D01*
X472500Y560547D01*
X466193D01*
X466002Y560570D01*
X465708Y560631D01*
X465428Y560715D01*
X465160Y560823D01*
X464904Y560955D01*
X464657Y561112D01*
X464419Y561295D01*
X464189Y561505D01*
X463951Y561760D01*
X463943Y561766D01*
X463757Y562008D01*
X463314Y562348D01*
X463484Y562848D01*
X475023D01*
X483685Y554185D01*
X484059Y553936D01*
X484500Y553848D01*
X493523D01*
X518525Y528846D01*
X518899Y528596D01*
X519340Y528508D01*
X525317D01*
X525387Y528502D01*
X525578Y528455D01*
X525808Y528368D01*
X526073Y528236D01*
X526368Y528058D01*
X526680Y527840D01*
X527820Y526861D01*
X528119Y526564D01*
X528243Y526403D01*
X529197Y525671D01*
X530308Y525211D01*
X531500Y525054D01*
X532692Y525211D01*
X533803Y525671D01*
X534757Y526403D01*
X535489Y527357D01*
X535949Y528468D01*
X536106Y529660D01*
X535949Y530853D01*
X535489Y531963D01*
X534757Y532917D01*
X533803Y533649D01*
X532692Y534110D01*
X531500Y534267D01*
X530308Y534110D01*
X529197Y533649D01*
X528243Y532917D01*
X528119Y532756D01*
X527815Y532455D01*
X527036Y531758D01*
X526692Y531489D01*
X526368Y531263D01*
X526073Y531084D01*
X525808Y530952D01*
X525578Y530865D01*
X525387Y530818D01*
X525317Y530812D01*
X519817D01*
X494815Y555815D01*
X494441Y556064D01*
X494000Y556152D01*
X484977D01*
X476315Y564815D01*
X476200Y564891D01*
X476351Y565391D01*
X491172D01*
X517447Y539117D01*
X517602Y538885D01*
X518299Y538419D01*
X518680Y538343D01*
X518806Y538299D01*
X520212Y538091D01*
X520282Y538075D01*
X520463Y538001D01*
X520677Y537881D01*
X520919Y537711D01*
X521186Y537491D01*
X521462Y537229D01*
X522450Y536090D01*
X522803Y535619D01*
X522847Y535579D01*
X523243Y535063D01*
X524197Y534331D01*
X525308Y533871D01*
X526500Y533714D01*
X527692Y533871D01*
X528803Y534331D01*
X529757Y535063D01*
X530489Y536017D01*
X530949Y537128D01*
X531106Y538320D01*
X530949Y539513D01*
X530489Y540624D01*
X529757Y541578D01*
X528803Y542310D01*
X527692Y542770D01*
X526500Y542927D01*
X525308Y542770D01*
X524197Y542310D01*
X523791Y541998D01*
X523740Y541974D01*
X523261Y541622D01*
X522386Y541044D01*
X522005Y540826D01*
X521651Y540649D01*
X521333Y540515D01*
X521052Y540422D01*
X520812Y540369D01*
X520617Y540351D01*
X520546Y540355D01*
X519266Y540544D01*
X519264Y540547D01*
X519166Y540588D01*
X519074Y540726D01*
X492455Y567344D01*
X492084Y567592D01*
X491646Y567679D01*
X462894D01*
X462877Y567764D01*
X462859Y568179D01*
X463757Y568869D01*
X464489Y569823D01*
X464949Y570934D01*
X465106Y572126D01*
X464949Y573318D01*
X464489Y574429D01*
X463757Y575383D01*
X462803Y576115D01*
X461692Y576575D01*
X460500Y576732D01*
X459308Y576575D01*
X458197Y576115D01*
X457243Y575383D01*
X456511Y574429D01*
X456051Y573318D01*
X455894Y572126D01*
X455933Y571826D01*
X455485Y571604D01*
X435473Y591617D01*
X435102Y591865D01*
X434664Y591952D01*
X434525D01*
X434424Y591971D01*
X434347Y591998D01*
X434291Y592030D01*
X434245Y592067D01*
X434202Y592118D01*
X434159Y592191D01*
X434117Y592294D01*
X434081Y592431D01*
X434051Y592631D01*
X434034Y592678D01*
X433949Y593318D01*
X433489Y594429D01*
X432757Y595383D01*
X431803Y596115D01*
X430692Y596575D01*
X429500Y596732D01*
D02*
G37*
G36*
X345394Y563337D02*
Y559018D01*
X349713D01*
X349603Y559857D01*
X349127Y561007D01*
X348370Y561994D01*
X347383Y562751D01*
X346233Y563227D01*
X345394Y563337D01*
D02*
G37*
G36*
X344606D02*
X343767Y563227D01*
X342617Y562751D01*
X341631Y561994D01*
X340873Y561007D01*
X340397Y559857D01*
X340287Y559018D01*
X344606D01*
Y563337D01*
D02*
G37*
G36*
X429500Y563357D02*
X428308Y563200D01*
X427197Y562740D01*
X426243Y562008D01*
X425511Y561054D01*
X425051Y559943D01*
X424894Y558751D01*
X425051Y557559D01*
X425511Y556448D01*
X426243Y555494D01*
X427197Y554762D01*
X428308Y554302D01*
X429500Y554145D01*
X430692Y554302D01*
X431803Y554762D01*
X432757Y555494D01*
X433489Y556448D01*
X433949Y557559D01*
X434106Y558751D01*
X433949Y559943D01*
X433489Y561054D01*
X432757Y562008D01*
X431803Y562740D01*
X430692Y563200D01*
X429500Y563357D01*
D02*
G37*
G36*
X314000Y563230D02*
X312808Y563073D01*
X311697Y562613D01*
X310743Y561881D01*
X310011Y560927D01*
X309551Y559816D01*
X309394Y558624D01*
X309551Y557432D01*
X310011Y556321D01*
X310743Y555367D01*
X311697Y554635D01*
X312808Y554175D01*
X314000Y554018D01*
X315192Y554175D01*
X316303Y554635D01*
X317257Y555367D01*
X317989Y556321D01*
X318449Y557432D01*
X318606Y558624D01*
X318449Y559816D01*
X317989Y560927D01*
X317257Y561881D01*
X316303Y562613D01*
X315192Y563073D01*
X314000Y563230D01*
D02*
G37*
G36*
X255500Y553765D02*
X254267Y553603D01*
X253117Y553127D01*
X252131Y552369D01*
X251615Y551698D01*
X255356Y549538D01*
X257516Y553279D01*
X256733Y553603D01*
X255500Y553765D01*
D02*
G37*
G36*
X349713Y558230D02*
X345000D01*
X340287D01*
X340397Y557391D01*
X340873Y556241D01*
X341631Y555255D01*
X342617Y554497D01*
X343767Y554021D01*
X344644Y553906D01*
X344868Y553876D01*
Y553372D01*
X344644Y553342D01*
X343767Y553227D01*
X342617Y552751D01*
X341631Y551994D01*
X340873Y551007D01*
X340397Y549857D01*
X340287Y549018D01*
X345000D01*
X349713D01*
X349603Y549857D01*
X349127Y551007D01*
X348370Y551994D01*
X347383Y552751D01*
X346233Y553227D01*
X345356Y553342D01*
X345132Y553372D01*
Y553876D01*
X345356Y553906D01*
X346233Y554021D01*
X347383Y554497D01*
X348370Y555255D01*
X349127Y556241D01*
X349603Y557391D01*
X349713Y558230D01*
D02*
G37*
G36*
X258198Y552885D02*
X256038Y549144D01*
X259779Y546984D01*
X260103Y547767D01*
X260265Y549000D01*
X260103Y550233D01*
X259627Y551383D01*
X258870Y552369D01*
X258198Y552885D01*
D02*
G37*
G36*
X251221Y551016D02*
X250897Y550233D01*
X250735Y549000D01*
X250897Y547767D01*
X251373Y546617D01*
X252131Y545631D01*
X252802Y545115D01*
X254962Y548856D01*
X251221Y551016D01*
D02*
G37*
G36*
X255644Y548462D02*
X253484Y544721D01*
X254267Y544397D01*
X255500Y544235D01*
X256733Y544397D01*
X257883Y544873D01*
X258870Y545631D01*
X259385Y546302D01*
X255644Y548462D01*
D02*
G37*
G36*
X460500Y553357D02*
X459308Y553200D01*
X458197Y552740D01*
X457243Y552008D01*
X456511Y551054D01*
X456051Y549943D01*
X455894Y548751D01*
X456051Y547559D01*
X456511Y546448D01*
X457243Y545494D01*
X458197Y544762D01*
X459308Y544302D01*
X460500Y544145D01*
X461692Y544302D01*
X462803Y544762D01*
X463757Y545494D01*
X464489Y546448D01*
X464949Y547559D01*
X465106Y548751D01*
X464949Y549943D01*
X464489Y551054D01*
X463757Y552008D01*
X462803Y552740D01*
X461692Y553200D01*
X460500Y553357D01*
D02*
G37*
G36*
X429500D02*
X428308Y553200D01*
X427197Y552740D01*
X426243Y552008D01*
X425511Y551054D01*
X425051Y549943D01*
X424894Y548751D01*
X425051Y547559D01*
X425511Y546448D01*
X426243Y545494D01*
X427197Y544762D01*
X428308Y544302D01*
X429500Y544145D01*
X430692Y544302D01*
X431803Y544762D01*
X432757Y545494D01*
X433489Y546448D01*
X433949Y547559D01*
X434106Y548751D01*
X433949Y549943D01*
X433489Y551054D01*
X432757Y552008D01*
X431803Y552740D01*
X430692Y553200D01*
X429500Y553357D01*
D02*
G37*
G36*
X314000Y553230D02*
X312808Y553073D01*
X311697Y552613D01*
X310743Y551881D01*
X310011Y550927D01*
X309551Y549816D01*
X309394Y548624D01*
X309551Y547432D01*
X310011Y546321D01*
X310743Y545367D01*
X311697Y544635D01*
X312808Y544175D01*
X314000Y544018D01*
X315192Y544175D01*
X316303Y544635D01*
X317257Y545367D01*
X317989Y546321D01*
X318449Y547432D01*
X318606Y548624D01*
X318449Y549816D01*
X317989Y550927D01*
X317257Y551881D01*
X316303Y552613D01*
X315192Y553073D01*
X314000Y553230D01*
D02*
G37*
G36*
X349713Y548230D02*
X345394D01*
Y543911D01*
X346233Y544021D01*
X347383Y544497D01*
X348370Y545255D01*
X349127Y546241D01*
X349603Y547391D01*
X349713Y548230D01*
D02*
G37*
G36*
X344606D02*
X340287D01*
X340397Y547391D01*
X340873Y546241D01*
X341631Y545255D01*
X342617Y544497D01*
X343767Y544021D01*
X344606Y543911D01*
Y548230D01*
D02*
G37*
G36*
X406000Y550342D02*
X405167Y550232D01*
X404392Y549911D01*
X403726Y549399D01*
X403214Y548733D01*
X402893Y547958D01*
X402783Y547125D01*
X402893Y546292D01*
X403214Y545517D01*
X403726Y544851D01*
X404392Y544339D01*
X405167Y544018D01*
X406000Y543909D01*
X406833Y544018D01*
X407608Y544339D01*
X408274Y544851D01*
X408786Y545517D01*
X409107Y546292D01*
X409216Y547125D01*
X409107Y547958D01*
X408786Y548733D01*
X408274Y549399D01*
X407608Y549911D01*
X406833Y550232D01*
X406000Y550342D01*
D02*
G37*
G36*
X368500D02*
X367668Y550232D01*
X366892Y549911D01*
X366226Y549399D01*
X365714Y548733D01*
X365393Y547958D01*
X365283Y547125D01*
X365393Y546292D01*
X365714Y545517D01*
X366226Y544851D01*
X366892Y544339D01*
X367668Y544018D01*
X368500Y543909D01*
X369333Y544018D01*
X370108Y544339D01*
X370774Y544851D01*
X371286Y545517D01*
X371607Y546292D01*
X371716Y547125D01*
X371607Y547958D01*
X371286Y548733D01*
X370774Y549399D01*
X370108Y549911D01*
X369333Y550232D01*
X368500Y550342D01*
D02*
G37*
G36*
X290000D02*
X289167Y550232D01*
X288392Y549911D01*
X287726Y549399D01*
X287214Y548733D01*
X286893Y547958D01*
X286784Y547125D01*
X286893Y546292D01*
X287214Y545517D01*
X287726Y544851D01*
X288392Y544339D01*
X289167Y544018D01*
X290000Y543909D01*
X290832Y544018D01*
X291608Y544339D01*
X292274Y544851D01*
X292786Y545517D01*
X293107Y546292D01*
X293216Y547125D01*
X293107Y547958D01*
X292786Y548733D01*
X292274Y549399D01*
X291608Y549911D01*
X290832Y550232D01*
X290000Y550342D01*
D02*
G37*
G36*
X406394Y542575D02*
Y539645D01*
X409324D01*
X409260Y540125D01*
X408923Y540939D01*
X408387Y541638D01*
X407688Y542174D01*
X406874Y542511D01*
X406394Y542575D01*
D02*
G37*
G36*
X368894D02*
Y539645D01*
X371824D01*
X371760Y540125D01*
X371423Y540939D01*
X370887Y541638D01*
X370188Y542174D01*
X369374Y542511D01*
X368894Y542575D01*
D02*
G37*
G36*
X290394D02*
Y539645D01*
X293323D01*
X293260Y540125D01*
X292923Y540939D01*
X292387Y541638D01*
X291688Y542174D01*
X290874Y542511D01*
X290394Y542575D01*
D02*
G37*
G36*
X405606D02*
X405126Y542511D01*
X404312Y542174D01*
X403613Y541638D01*
X403077Y540939D01*
X402740Y540125D01*
X402676Y539645D01*
X405606D01*
Y542575D01*
D02*
G37*
G36*
X368106D02*
X367626Y542511D01*
X366812Y542174D01*
X366113Y541638D01*
X365577Y540939D01*
X365240Y540125D01*
X365177Y539645D01*
X368106D01*
Y542575D01*
D02*
G37*
G36*
X289606D02*
X289126Y542511D01*
X288312Y542174D01*
X287613Y541638D01*
X287077Y540939D01*
X286740Y540125D01*
X286677Y539645D01*
X289606D01*
Y542575D01*
D02*
G37*
G36*
X429894Y543464D02*
Y539145D01*
X434213D01*
X434103Y539984D01*
X433627Y541134D01*
X432869Y542121D01*
X431883Y542878D01*
X430733Y543354D01*
X429894Y543464D01*
D02*
G37*
G36*
X429106D02*
X428267Y543354D01*
X427117Y542878D01*
X426130Y542121D01*
X425373Y541134D01*
X424897Y539984D01*
X424787Y539145D01*
X429106D01*
Y543464D01*
D02*
G37*
G36*
X484894Y541950D02*
Y539020D01*
X487823D01*
X487760Y539500D01*
X487423Y540314D01*
X486887Y541013D01*
X486188Y541549D01*
X485374Y541886D01*
X484894Y541950D01*
D02*
G37*
G36*
X484106D02*
X483626Y541886D01*
X482812Y541549D01*
X482113Y541013D01*
X481577Y540314D01*
X481240Y539500D01*
X481177Y539020D01*
X484106D01*
Y541950D01*
D02*
G37*
G36*
X405606Y538857D02*
X402676D01*
X402740Y538377D01*
X403077Y537563D01*
X403613Y536864D01*
X404312Y536328D01*
X405126Y535991D01*
X405606Y535927D01*
Y538857D01*
D02*
G37*
G36*
X368106D02*
X365177D01*
X365240Y538377D01*
X365577Y537563D01*
X366113Y536864D01*
X366812Y536328D01*
X367626Y535991D01*
X368106Y535927D01*
Y538857D01*
D02*
G37*
G36*
X289606D02*
X286677D01*
X286740Y538377D01*
X287077Y537563D01*
X287613Y536864D01*
X288312Y536328D01*
X289126Y535991D01*
X289606Y535927D01*
Y538857D01*
D02*
G37*
G36*
X409324D02*
X406394D01*
Y535927D01*
X406874Y535991D01*
X407688Y536328D01*
X408387Y536864D01*
X408923Y537563D01*
X409260Y538377D01*
X409324Y538857D01*
D02*
G37*
G36*
X371824D02*
X368894D01*
Y535927D01*
X369374Y535991D01*
X370188Y536328D01*
X370887Y536864D01*
X371423Y537563D01*
X371760Y538377D01*
X371824Y538857D01*
D02*
G37*
G36*
X293323D02*
X290394D01*
Y535927D01*
X290874Y535991D01*
X291688Y536328D01*
X292387Y536864D01*
X292923Y537563D01*
X293260Y538377D01*
X293323Y538857D01*
D02*
G37*
G36*
X250500Y544946D02*
X249308Y544789D01*
X248197Y544329D01*
X247243Y543597D01*
X246511Y542643D01*
X246051Y541532D01*
X245894Y540340D01*
X246051Y539148D01*
X246511Y538037D01*
X247243Y537083D01*
X248197Y536350D01*
X249308Y535890D01*
X250500Y535733D01*
X251692Y535890D01*
X252803Y536350D01*
X253757Y537083D01*
X254489Y538037D01*
X254949Y539148D01*
X255106Y540340D01*
X254949Y541532D01*
X254489Y542643D01*
X253757Y543597D01*
X252803Y544329D01*
X251692Y544789D01*
X250500Y544946D01*
D02*
G37*
G36*
X487823Y538232D02*
X484894D01*
Y535302D01*
X485374Y535366D01*
X486188Y535703D01*
X486887Y536239D01*
X487423Y536938D01*
X487760Y537752D01*
X487823Y538232D01*
D02*
G37*
G36*
X484106D02*
X481177D01*
X481240Y537752D01*
X481577Y536938D01*
X482113Y536239D01*
X482812Y535703D01*
X483626Y535366D01*
X484106Y535302D01*
Y538232D01*
D02*
G37*
G36*
X345000Y543230D02*
X343808Y543073D01*
X342697Y542613D01*
X341743Y541881D01*
X341011Y540927D01*
X340551Y539816D01*
X340394Y538624D01*
X340551Y537432D01*
X341011Y536321D01*
X341743Y535367D01*
X342697Y534635D01*
X343808Y534175D01*
X345000Y534018D01*
X346192Y534175D01*
X347303Y534635D01*
X348257Y535367D01*
X348989Y536321D01*
X349449Y537432D01*
X349606Y538624D01*
X349449Y539816D01*
X348989Y540927D01*
X348257Y541881D01*
X347303Y542613D01*
X346192Y543073D01*
X345000Y543230D01*
D02*
G37*
G36*
X314000D02*
X312808Y543073D01*
X311697Y542613D01*
X310743Y541881D01*
X310011Y540927D01*
X309551Y539816D01*
X309394Y538624D01*
X309551Y537432D01*
X310011Y536321D01*
X310743Y535367D01*
X311697Y534635D01*
X312808Y534175D01*
X314000Y534018D01*
X315192Y534175D01*
X316303Y534635D01*
X317257Y535367D01*
X317989Y536321D01*
X318449Y537432D01*
X318606Y538624D01*
X318449Y539816D01*
X317989Y540927D01*
X317257Y541881D01*
X316303Y542613D01*
X315192Y543073D01*
X314000Y543230D01*
D02*
G37*
G36*
X460500Y543357D02*
X459308Y543200D01*
X458197Y542740D01*
X457243Y542008D01*
X456511Y541054D01*
X456051Y539943D01*
X455894Y538751D01*
X456051Y537559D01*
X456511Y536448D01*
X457243Y535494D01*
X458197Y534762D01*
X459308Y534302D01*
X460500Y534145D01*
X461692Y534302D01*
X461960Y534412D01*
X461967Y534413D01*
X462454Y534566D01*
X462890Y534676D01*
X463287Y534749D01*
X463644Y534786D01*
X463959Y534789D01*
X464233Y534761D01*
X464466Y534707D01*
X464662Y534630D01*
X464827Y534532D01*
X464901Y534469D01*
X466544Y532827D01*
X466580Y532778D01*
X466611Y532729D01*
X466635Y532685D01*
X466652Y532645D01*
X466663Y532610D01*
X466670Y532582D01*
X466653Y532500D01*
X466794Y531793D01*
X467194Y531194D01*
X467793Y530794D01*
X468500Y530653D01*
X469207Y530794D01*
X469806Y531194D01*
X470206Y531793D01*
X470346Y532500D01*
X470206Y533207D01*
X469806Y533806D01*
X469207Y534206D01*
X468500Y534346D01*
X468418Y534330D01*
X468390Y534337D01*
X468355Y534348D01*
X468315Y534366D01*
X468271Y534389D01*
X468222Y534420D01*
X468173Y534456D01*
X466321Y536308D01*
X466258Y536412D01*
X465083Y539464D01*
X464964Y539829D01*
X464949Y539943D01*
X464489Y541054D01*
X463757Y542008D01*
X462803Y542740D01*
X461692Y543200D01*
X460500Y543357D01*
D02*
G37*
G36*
X370406Y532335D02*
X368634D01*
Y529382D01*
X370406D01*
Y532335D01*
D02*
G37*
G36*
X367846D02*
X366075D01*
Y529382D01*
X367846D01*
Y532335D01*
D02*
G37*
G36*
X434213Y538357D02*
X424787D01*
X424897Y537518D01*
X425373Y536368D01*
X426130Y535382D01*
X427117Y534624D01*
X428267Y534148D01*
X429144Y534033D01*
X429368Y534003D01*
Y533499D01*
X429144Y533469D01*
X428267Y533354D01*
X427117Y532878D01*
X426130Y532121D01*
X425373Y531134D01*
X424897Y529984D01*
X424787Y529145D01*
X434213D01*
X434103Y529984D01*
X433627Y531134D01*
X432869Y532121D01*
X431883Y532878D01*
X430733Y533354D01*
X429856Y533469D01*
X429632Y533499D01*
Y534003D01*
X429856Y534033D01*
X430733Y534148D01*
X431883Y534624D01*
X432869Y535382D01*
X433627Y536368D01*
X434103Y537518D01*
X434213Y538357D01*
D02*
G37*
G36*
X245500Y536286D02*
X244308Y536129D01*
X243197Y535669D01*
X242243Y534937D01*
X241511Y533983D01*
X241051Y532872D01*
X240894Y531679D01*
X241051Y530487D01*
X241511Y529376D01*
X242243Y528422D01*
X243197Y527690D01*
X244308Y527230D01*
X245500Y527073D01*
X246692Y527230D01*
X247803Y527690D01*
X248757Y528422D01*
X249489Y529376D01*
X249949Y530487D01*
X250106Y531679D01*
X249949Y532872D01*
X249489Y533983D01*
X248757Y534937D01*
X247803Y535669D01*
X246692Y536129D01*
X245500Y536286D01*
D02*
G37*
G36*
X345000Y533230D02*
X343808Y533073D01*
X342697Y532613D01*
X341743Y531881D01*
X341011Y530927D01*
X340551Y529816D01*
X340394Y528624D01*
X340551Y527432D01*
X341011Y526321D01*
X341743Y525367D01*
X342674Y524652D01*
X342678Y524601D01*
X342496Y524152D01*
X331114D01*
X331054Y524161D01*
X330998Y524174D01*
X330950Y524188D01*
X330910Y524204D01*
X330876Y524221D01*
X330852Y524236D01*
X330806Y524306D01*
X330207Y524706D01*
X329500Y524847D01*
X328793Y524706D01*
X328194Y524306D01*
X327794Y523707D01*
X327654Y523000D01*
X327794Y522293D01*
X328194Y521694D01*
X328793Y521294D01*
X329500Y521153D01*
X330207Y521294D01*
X330806Y521694D01*
X330852Y521764D01*
X330876Y521779D01*
X330910Y521796D01*
X330950Y521812D01*
X330998Y521826D01*
X331054Y521839D01*
X331114Y521848D01*
X331606D01*
X331758Y521348D01*
X331694Y521306D01*
X331294Y520707D01*
X331153Y520000D01*
X331294Y519293D01*
X331694Y518694D01*
X332293Y518294D01*
X333000Y518153D01*
X333707Y518294D01*
X334306Y518694D01*
X334698Y519282D01*
X334701Y519282D01*
X334745Y519291D01*
X341822D01*
X341983Y518817D01*
X341743Y518633D01*
X341011Y517679D01*
X340551Y516568D01*
X340394Y515376D01*
X340551Y514184D01*
X341011Y513073D01*
X341743Y512119D01*
X342697Y511387D01*
X343808Y510927D01*
X345000Y510770D01*
X346192Y510927D01*
X347303Y511387D01*
X348257Y512119D01*
X348367Y512262D01*
X348512Y512400D01*
X348761Y512603D01*
X349016Y512781D01*
X349278Y512933D01*
X349548Y513062D01*
X349827Y513167D01*
X350116Y513249D01*
X350415Y513308D01*
X350599Y513329D01*
X371276D01*
X376453Y508152D01*
Y478052D01*
X376436Y477833D01*
X376385Y477467D01*
X376317Y477169D01*
X376238Y476943D01*
X376159Y476790D01*
X376092Y476706D01*
X376046Y476669D01*
X376009Y476654D01*
X375910Y476642D01*
X375311D01*
Y476002D01*
X375311Y476000D01*
X375311Y475998D01*
Y471839D01*
X374888Y471652D01*
X370284D01*
X370231Y471732D01*
X370498Y472232D01*
X374701D01*
Y476248D01*
X370001D01*
X369652Y476549D01*
Y491947D01*
X369675Y492066D01*
X369720Y492208D01*
X369787Y492366D01*
X369879Y492538D01*
X369997Y492726D01*
X370137Y492919D01*
X370519Y493364D01*
X370686Y493534D01*
X370774Y493602D01*
X371286Y494268D01*
X371607Y495044D01*
X371716Y495876D01*
X371607Y496708D01*
X371286Y497484D01*
X370774Y498150D01*
X370108Y498662D01*
X369333Y498983D01*
X368500Y499092D01*
X367668Y498983D01*
X366892Y498662D01*
X366226Y498150D01*
X365714Y497484D01*
X365393Y496708D01*
X365283Y495876D01*
X365393Y495044D01*
X365714Y494268D01*
X366226Y493602D01*
X366304Y493542D01*
X366690Y493131D01*
X366858Y492925D01*
X367003Y492726D01*
X367121Y492538D01*
X367213Y492366D01*
X367280Y492208D01*
X367325Y492066D01*
X367348Y491947D01*
Y476248D01*
X361323D01*
Y475411D01*
X361244Y475398D01*
X361181Y475392D01*
X360788D01*
X360723Y475398D01*
X360650Y475410D01*
Y476642D01*
X358630D01*
X358618Y476716D01*
X358613Y476780D01*
Y492915D01*
X358525Y493356D01*
X358275Y493730D01*
X350187Y501819D01*
X350142Y501872D01*
X350039Y502041D01*
X349938Y502265D01*
X349845Y502545D01*
X349762Y502881D01*
X349695Y503255D01*
X349582Y504753D01*
X349580Y505174D01*
X349606Y505376D01*
X349449Y506568D01*
X348989Y507679D01*
X348257Y508633D01*
X347303Y509365D01*
X346192Y509825D01*
X345000Y509982D01*
X343808Y509825D01*
X342697Y509365D01*
X341743Y508633D01*
X341011Y507679D01*
X340551Y506568D01*
X340394Y505376D01*
X340551Y504184D01*
X341011Y503073D01*
X341743Y502119D01*
X342697Y501387D01*
X343808Y500927D01*
X345000Y500770D01*
X345201Y500796D01*
X345629Y500794D01*
X346673Y500736D01*
X347107Y500683D01*
X347495Y500614D01*
X347831Y500531D01*
X348111Y500438D01*
X348335Y500337D01*
X348504Y500234D01*
X348557Y500189D01*
X356309Y492438D01*
Y476780D01*
X356303Y476716D01*
X356291Y476642D01*
X354924D01*
Y485728D01*
X354836Y486169D01*
X354586Y486543D01*
X349768Y491361D01*
X349712Y491428D01*
X349610Y491597D01*
X349521Y491811D01*
X349448Y492071D01*
X349395Y492379D01*
X349365Y492735D01*
X349361Y493128D01*
X349436Y494084D01*
X349517Y494623D01*
X349514Y494676D01*
X349606Y495376D01*
X349449Y496568D01*
X348989Y497679D01*
X348257Y498633D01*
X347303Y499365D01*
X346192Y499825D01*
X345000Y499982D01*
X343808Y499825D01*
X342697Y499365D01*
X341743Y498633D01*
X341011Y497679D01*
X340551Y496568D01*
X340394Y495376D01*
X340551Y494184D01*
X341011Y493073D01*
X341743Y492119D01*
X342697Y491387D01*
X343808Y490927D01*
X344270Y490866D01*
X344318Y490848D01*
X344319Y490848D01*
X344319Y490848D01*
X344961Y490746D01*
X346078Y490531D01*
X346971Y490302D01*
X347320Y490189D01*
X347612Y490074D01*
X347840Y489964D01*
X347999Y489866D01*
X348031Y489839D01*
X352620Y485251D01*
Y469661D01*
X352707Y469221D01*
X352957Y468847D01*
X353924Y467880D01*
X354087Y467704D01*
X354201Y467562D01*
X354272Y467460D01*
Y467107D01*
X354271Y467105D01*
X354272Y467104D01*
Y464358D01*
X360650D01*
Y465590D01*
X360723Y465602D01*
X360788Y465608D01*
X361181D01*
X361244Y465602D01*
X361323Y465589D01*
Y464752D01*
X367701D01*
Y465590D01*
X367775Y465602D01*
X367839Y465608D01*
X368181D01*
X368244Y465602D01*
X368323Y465589D01*
Y464752D01*
X374654D01*
X374701Y464752D01*
X375153Y464638D01*
Y464201D01*
X378106D01*
Y466760D01*
X378500D01*
Y467154D01*
X381846D01*
X381846Y469319D01*
X382334Y469348D01*
X392886D01*
X392946Y469339D01*
X393002Y469326D01*
X393050Y469312D01*
X393090Y469296D01*
X393124Y469279D01*
X393148Y469264D01*
X393194Y469194D01*
X393793Y468794D01*
X394500Y468653D01*
X395207Y468794D01*
X395806Y469194D01*
X396206Y469793D01*
X396346Y470500D01*
X396206Y471207D01*
X395881Y471693D01*
X396058Y472193D01*
X401605D01*
X434370Y439428D01*
X434444Y439344D01*
X434554Y439200D01*
X434645Y439066D01*
X434713Y438950D01*
X434759Y438855D01*
X434785Y438785D01*
X434792Y438756D01*
X434784Y438693D01*
X434893Y437860D01*
X435214Y437085D01*
X435726Y436418D01*
X436392Y435907D01*
X437168Y435586D01*
X438000Y435476D01*
X438833Y435586D01*
X439608Y435907D01*
X440274Y436418D01*
X440786Y437085D01*
X441107Y437860D01*
X441217Y438693D01*
X441107Y439525D01*
X440786Y440301D01*
X440274Y440967D01*
X439608Y441478D01*
X438833Y441800D01*
X438000Y441909D01*
X437937Y441901D01*
X437908Y441908D01*
X437838Y441934D01*
X437742Y441980D01*
X437627Y442048D01*
X437505Y442131D01*
X437203Y442385D01*
X403900Y475688D01*
X403236Y476131D01*
X402453Y476287D01*
X402453Y476287D01*
X382632D01*
X382095Y476319D01*
X381826Y476350D01*
X381689Y476373D01*
Y476642D01*
X381089D01*
X380991Y476654D01*
X380954Y476669D01*
X380908Y476706D01*
X380841Y476790D01*
X380762Y476943D01*
X380683Y477169D01*
X380615Y477467D01*
X380564Y477833D01*
X380547Y478052D01*
Y508626D01*
X380609Y508938D01*
X380453Y509721D01*
X380010Y510386D01*
X380010Y510386D01*
X374047Y516348D01*
X374254Y516848D01*
X388783D01*
X388794Y516793D01*
X389194Y516194D01*
X389793Y515794D01*
X390500Y515654D01*
X391207Y515794D01*
X391806Y516194D01*
X392206Y516793D01*
X392347Y517500D01*
X392206Y518207D01*
X391806Y518806D01*
X391207Y519206D01*
X390500Y519347D01*
X389793Y519206D01*
X389603Y519078D01*
X389233Y519152D01*
X370799D01*
Y521646D01*
X368240D01*
X365681D01*
Y519152D01*
X363161D01*
Y525228D01*
X362555D01*
X362404Y525490D01*
X362585Y525799D01*
X362768D01*
Y532177D01*
X358752D01*
Y530170D01*
X358678Y530158D01*
X358613Y530152D01*
X357000D01*
X356559Y530064D01*
X356185Y529815D01*
X350523Y524152D01*
X347504D01*
X347322Y524601D01*
X347326Y524652D01*
X348257Y525367D01*
X348989Y526321D01*
X349449Y527432D01*
X349606Y528624D01*
X349449Y529816D01*
X348989Y530927D01*
X348257Y531881D01*
X347303Y532613D01*
X346192Y533073D01*
X345000Y533230D01*
D02*
G37*
G36*
X460500Y533357D02*
X459308Y533200D01*
X458197Y532740D01*
X457243Y532008D01*
X456511Y531054D01*
X456051Y529943D01*
X455894Y528751D01*
X456051Y527559D01*
X456511Y526448D01*
X457243Y525494D01*
X458197Y524762D01*
X459308Y524302D01*
X460500Y524145D01*
X461692Y524302D01*
X462803Y524762D01*
X463757Y525494D01*
X464489Y526448D01*
X464949Y527559D01*
X465106Y528751D01*
X464949Y529943D01*
X464489Y531054D01*
X463757Y532008D01*
X462803Y532740D01*
X461692Y533200D01*
X460500Y533357D01*
D02*
G37*
G36*
X434213Y528357D02*
X429894D01*
Y524038D01*
X430733Y524148D01*
X431883Y524624D01*
X432869Y525382D01*
X433627Y526368D01*
X434103Y527518D01*
X434213Y528357D01*
D02*
G37*
G36*
X429106D02*
X424787D01*
X424897Y527518D01*
X425373Y526368D01*
X426130Y525382D01*
X427117Y524624D01*
X428267Y524148D01*
X429106Y524038D01*
Y528357D01*
D02*
G37*
G36*
X314000Y533230D02*
X312808Y533073D01*
X311697Y532613D01*
X310743Y531881D01*
X310011Y530927D01*
X309551Y529816D01*
X309394Y528624D01*
X309551Y527432D01*
X310011Y526321D01*
X310743Y525367D01*
X311697Y524635D01*
X312808Y524175D01*
X314000Y524018D01*
X315192Y524175D01*
X316303Y524635D01*
X317257Y525367D01*
X317989Y526321D01*
X318449Y527432D01*
X318606Y528624D01*
X318449Y529816D01*
X317989Y530927D01*
X317257Y531881D01*
X316303Y532613D01*
X315192Y533073D01*
X314000Y533230D01*
D02*
G37*
G36*
X536500Y525606D02*
X535308Y525449D01*
X534197Y524989D01*
X534021Y524854D01*
X533557Y524581D01*
X532042Y523749D01*
X531280Y523390D01*
X530987Y523273D01*
X530749Y523194D01*
X530582Y523154D01*
X530565Y523152D01*
X445614D01*
X445554Y523161D01*
X445498Y523174D01*
X445450Y523188D01*
X445410Y523204D01*
X445376Y523221D01*
X445352Y523236D01*
X445306Y523306D01*
X444707Y523706D01*
X444000Y523846D01*
X443293Y523706D01*
X442694Y523306D01*
X442294Y522707D01*
X442154Y522000D01*
X442294Y521293D01*
X442694Y520694D01*
X443293Y520294D01*
X444000Y520154D01*
X444707Y520294D01*
X445306Y520694D01*
X445352Y520764D01*
X445376Y520779D01*
X445410Y520796D01*
X445450Y520812D01*
X445498Y520826D01*
X445554Y520839D01*
X445614Y520848D01*
X530321D01*
X530415Y520840D01*
X530604Y520792D01*
X530805Y520706D01*
X531021Y520576D01*
X531251Y520399D01*
X531492Y520170D01*
X531735Y519897D01*
X532264Y519161D01*
X532440Y518867D01*
X532511Y518697D01*
X533243Y517743D01*
X534197Y517011D01*
X535308Y516551D01*
X536500Y516394D01*
X537692Y516551D01*
X538803Y517011D01*
X539757Y517743D01*
X540489Y518697D01*
X540949Y519808D01*
X541106Y521000D01*
X540949Y522192D01*
X540489Y523303D01*
X539757Y524257D01*
X538803Y524989D01*
X537692Y525449D01*
X536500Y525606D01*
D02*
G37*
G36*
X370406Y528594D02*
X368240D01*
X366075D01*
Y525886D01*
X366075Y525642D01*
X365681Y525386D01*
X365681Y525385D01*
Y522433D01*
X368240D01*
X370799D01*
X370799Y525386D01*
X370406Y525642D01*
X370406Y525886D01*
Y528594D01*
D02*
G37*
G36*
X238828Y529258D02*
X234261Y521348D01*
X242172Y516781D01*
X246739Y524691D01*
X238828Y529258D01*
D02*
G37*
G36*
X325811Y546347D02*
X325104Y546206D01*
X324505Y545806D01*
X324105Y545207D01*
X323965Y544500D01*
X324105Y543793D01*
X324218Y543624D01*
X324225Y543601D01*
X324254Y543547D01*
X324272Y543507D01*
X324289Y543461D01*
X324303Y543416D01*
X324334Y543271D01*
X324342Y543210D01*
X324348Y543133D01*
Y518614D01*
X324339Y518554D01*
X324326Y518498D01*
X324312Y518450D01*
X324296Y518410D01*
X324279Y518376D01*
X324264Y518352D01*
X324194Y518306D01*
X323794Y517707D01*
X323654Y517000D01*
X323794Y516293D01*
X324194Y515694D01*
X324793Y515294D01*
X325500Y515154D01*
X326207Y515294D01*
X326806Y515694D01*
X327206Y516293D01*
X327346Y517000D01*
X327206Y517707D01*
X326806Y518306D01*
X326736Y518352D01*
X326721Y518376D01*
X326704Y518410D01*
X326688Y518450D01*
X326674Y518498D01*
X326661Y518554D01*
X326652Y518614D01*
Y542771D01*
X326661Y542820D01*
X326672Y542857D01*
X326681Y542881D01*
X326688Y542895D01*
X326692Y542901D01*
X326694Y542902D01*
X326696Y542904D01*
X326734Y542928D01*
X326768Y542962D01*
X327117Y543194D01*
X327517Y543793D01*
X327658Y544500D01*
X327517Y545207D01*
X327117Y545806D01*
X326518Y546206D01*
X325811Y546347D01*
D02*
G37*
G36*
X429500Y519982D02*
X428308Y519825D01*
X427197Y519365D01*
X426243Y518633D01*
X425511Y517679D01*
X425051Y516568D01*
X424894Y515376D01*
X425051Y514184D01*
X425511Y513073D01*
X426243Y512119D01*
X427197Y511387D01*
X428308Y510927D01*
X429500Y510770D01*
X430692Y510927D01*
X431803Y511387D01*
X432757Y512119D01*
X433489Y513073D01*
X433949Y514184D01*
X434106Y515376D01*
X433949Y516568D01*
X433489Y517679D01*
X432757Y518633D01*
X431803Y519365D01*
X430692Y519825D01*
X429500Y519982D01*
D02*
G37*
G36*
X314000D02*
X312808Y519825D01*
X311697Y519365D01*
X310743Y518633D01*
X310011Y517679D01*
X309551Y516568D01*
X309394Y515376D01*
X309420Y515174D01*
X309418Y514747D01*
X309360Y513703D01*
X309307Y513269D01*
X309238Y512881D01*
X309156Y512545D01*
X309062Y512265D01*
X308961Y512041D01*
X308858Y511872D01*
X308813Y511819D01*
X303426Y506431D01*
X303176Y506057D01*
X303088Y505616D01*
Y483294D01*
X300886Y481092D01*
X300713Y480932D01*
X300571Y480818D01*
X300472Y480748D01*
X295823D01*
Y479911D01*
X295744Y479898D01*
X295681Y479892D01*
X293788D01*
X293724Y479898D01*
X293650Y479910D01*
Y481142D01*
X287272D01*
Y476339D01*
X293650D01*
Y477570D01*
X293724Y477583D01*
X293788Y477588D01*
X295681D01*
X295744Y477583D01*
X295823Y477569D01*
Y476732D01*
X302201D01*
Y479082D01*
X302259Y479164D01*
X302499Y479447D01*
X304256Y481204D01*
X304718Y481013D01*
Y477414D01*
X300915Y473611D01*
X300741Y473449D01*
X300598Y473334D01*
X300503Y473268D01*
X295823D01*
Y472431D01*
X295744Y472417D01*
X295681Y472412D01*
X293788D01*
X293724Y472417D01*
X293650Y472430D01*
Y473661D01*
X287272D01*
Y472431D01*
X287192Y472417D01*
X287130Y472412D01*
X284819D01*
X284756Y472417D01*
X284677Y472431D01*
Y473268D01*
X278299D01*
Y469252D01*
X284677D01*
Y470089D01*
X284756Y470102D01*
X284819Y470108D01*
X287130D01*
X287192Y470102D01*
X287272Y470089D01*
Y468858D01*
X293650D01*
Y470090D01*
X293724Y470102D01*
X293788Y470108D01*
X295681D01*
X295744Y470102D01*
X295823Y470089D01*
Y469252D01*
X302201D01*
Y471570D01*
X302262Y471657D01*
X302500Y471938D01*
X305886Y475324D01*
X306348Y475132D01*
Y471025D01*
X300415Y465091D01*
X300240Y464929D01*
X300097Y464814D01*
X300003Y464748D01*
X295323D01*
Y463911D01*
X295244Y463898D01*
X295181Y463892D01*
X293370D01*
X293308Y463898D01*
X293228Y463911D01*
Y465142D01*
X286850D01*
Y463910D01*
X286776Y463898D01*
X286712Y463892D01*
X283819D01*
X283756Y463898D01*
X283677Y463911D01*
Y464748D01*
X277299D01*
Y460732D01*
X283677D01*
Y461569D01*
X283756Y461583D01*
X283819Y461588D01*
X286712D01*
X286776Y461583D01*
X286850Y461570D01*
Y460339D01*
X293228D01*
Y461569D01*
X293308Y461583D01*
X293370Y461588D01*
X295181D01*
X295244Y461583D01*
X295323Y461569D01*
Y460732D01*
X301701D01*
Y463050D01*
X301762Y463138D01*
X302000Y463418D01*
X308315Y469733D01*
X308564Y470106D01*
X308652Y470547D01*
Y489023D01*
X310110Y490481D01*
X310173Y490534D01*
X310343Y490636D01*
X310560Y490729D01*
X310827Y490808D01*
X311144Y490869D01*
X311510Y490909D01*
X311916Y490926D01*
X312898Y490887D01*
X313453Y490830D01*
X313507Y490835D01*
X314000Y490770D01*
X315192Y490927D01*
X316303Y491387D01*
X317257Y492119D01*
X317989Y493073D01*
X318449Y494184D01*
X318606Y495376D01*
X318449Y496568D01*
X317989Y497679D01*
X317257Y498633D01*
X316303Y499365D01*
X315192Y499825D01*
X314000Y499982D01*
X312808Y499825D01*
X311697Y499365D01*
X310743Y498633D01*
X310011Y497679D01*
X309551Y496568D01*
X309464Y495912D01*
X309446Y495858D01*
X309294Y494641D01*
X309208Y494133D01*
X309010Y493249D01*
X308907Y492906D01*
X308798Y492617D01*
X308690Y492389D01*
X308590Y492226D01*
X308557Y492186D01*
X307484Y491113D01*
X307022Y491305D01*
Y496769D01*
X310443Y500189D01*
X310496Y500234D01*
X310665Y500337D01*
X310889Y500438D01*
X311170Y500531D01*
X311505Y500614D01*
X311879Y500681D01*
X313377Y500794D01*
X313798Y500796D01*
X314000Y500770D01*
X315192Y500927D01*
X316303Y501387D01*
X317257Y502119D01*
X317989Y503073D01*
X318449Y504184D01*
X318606Y505376D01*
X318449Y506568D01*
X317989Y507679D01*
X317257Y508633D01*
X316303Y509365D01*
X315192Y509825D01*
X314000Y509982D01*
X312808Y509825D01*
X311697Y509365D01*
X310743Y508633D01*
X310011Y507679D01*
X309551Y506568D01*
X309394Y505376D01*
X309420Y505174D01*
X309418Y504747D01*
X309360Y503703D01*
X309307Y503269D01*
X309238Y502881D01*
X309156Y502545D01*
X309062Y502265D01*
X308961Y502041D01*
X308858Y501872D01*
X308813Y501819D01*
X305854Y498859D01*
X305392Y499051D01*
Y505139D01*
X310443Y510189D01*
X310496Y510234D01*
X310665Y510337D01*
X310889Y510438D01*
X311170Y510532D01*
X311505Y510614D01*
X311879Y510681D01*
X313377Y510794D01*
X313798Y510796D01*
X314000Y510770D01*
X315192Y510927D01*
X316303Y511387D01*
X317257Y512119D01*
X317989Y513073D01*
X318449Y514184D01*
X318606Y515376D01*
X318449Y516568D01*
X317989Y517679D01*
X317257Y518633D01*
X316303Y519365D01*
X315192Y519825D01*
X314000Y519982D01*
D02*
G37*
G36*
X290000Y508090D02*
X289167Y507981D01*
X288392Y507660D01*
X287726Y507148D01*
X287214Y506482D01*
X286893Y505707D01*
X286784Y504874D01*
X286796Y504776D01*
X286779Y504213D01*
X286753Y503948D01*
X286714Y503705D01*
X286665Y503489D01*
X286608Y503302D01*
X286544Y503143D01*
X286475Y503011D01*
X286407Y502910D01*
X272225Y488728D01*
X271975Y488354D01*
X271887Y487913D01*
Y481780D01*
X271882Y481716D01*
X271869Y481642D01*
X269850D01*
Y480410D01*
X269776Y480398D01*
X269712Y480392D01*
X266319D01*
X266256Y480398D01*
X266177Y480411D01*
Y481248D01*
X264670D01*
X264658Y481322D01*
X264652Y481387D01*
Y482886D01*
X264661Y482946D01*
X264674Y483002D01*
X264688Y483050D01*
X264704Y483090D01*
X264721Y483124D01*
X264736Y483148D01*
X264806Y483194D01*
X265206Y483793D01*
X265347Y484500D01*
X265206Y485207D01*
X264806Y485806D01*
X264207Y486206D01*
X263500Y486346D01*
X262793Y486206D01*
X262194Y485806D01*
X261794Y485207D01*
X261653Y484500D01*
X261794Y483793D01*
X262194Y483194D01*
X262264Y483148D01*
X262279Y483124D01*
X262296Y483090D01*
X262312Y483050D01*
X262326Y483002D01*
X262339Y482946D01*
X262348Y482886D01*
Y481387D01*
X262342Y481322D01*
X262330Y481248D01*
X259799D01*
Y477232D01*
X266177D01*
Y478069D01*
X266256Y478083D01*
X266319Y478088D01*
X269712D01*
X269777Y478083D01*
X269850Y478070D01*
Y476839D01*
X276228D01*
Y481642D01*
X274209D01*
X274197Y481716D01*
X274191Y481780D01*
Y487436D01*
X288036Y501281D01*
X288137Y501349D01*
X288269Y501418D01*
X288427Y501482D01*
X288615Y501539D01*
X288831Y501588D01*
X289067Y501625D01*
X289651Y501670D01*
X289890Y501672D01*
X290000Y501657D01*
X290832Y501767D01*
X291608Y502088D01*
X292274Y502600D01*
X292786Y503266D01*
X293107Y504041D01*
X293216Y504874D01*
X293107Y505707D01*
X292786Y506482D01*
X292274Y507148D01*
X291608Y507660D01*
X290832Y507981D01*
X290000Y508090D01*
D02*
G37*
G36*
X460500Y509982D02*
X459308Y509825D01*
X458197Y509365D01*
X457243Y508633D01*
X456511Y507679D01*
X456051Y506568D01*
X455894Y505376D01*
X455920Y505174D01*
X455918Y504747D01*
X455860Y503703D01*
X455807Y503269D01*
X455738Y502881D01*
X455656Y502545D01*
X455562Y502265D01*
X455461Y502041D01*
X455358Y501872D01*
X455313Y501819D01*
X451059Y497564D01*
X450685Y497315D01*
X450436Y496941D01*
X450348Y496500D01*
Y488114D01*
X450339Y488054D01*
X450326Y487998D01*
X450312Y487950D01*
X450296Y487910D01*
X450279Y487876D01*
X450264Y487852D01*
X450194Y487806D01*
X449794Y487207D01*
X449653Y486500D01*
X449794Y485793D01*
X450194Y485194D01*
X450793Y484794D01*
X451500Y484654D01*
X452207Y484794D01*
X452806Y485194D01*
X453206Y485793D01*
X453346Y486500D01*
X453206Y487207D01*
X452806Y487806D01*
X452736Y487852D01*
X452721Y487876D01*
X452704Y487910D01*
X452688Y487950D01*
X452674Y487998D01*
X452661Y488054D01*
X452652Y488114D01*
Y495899D01*
X456943Y500189D01*
X456996Y500234D01*
X457165Y500337D01*
X457389Y500438D01*
X457669Y500531D01*
X458005Y500614D01*
X458379Y500681D01*
X459877Y500794D01*
X460298Y500796D01*
X460500Y500770D01*
X461692Y500927D01*
X462803Y501387D01*
X463757Y502119D01*
X464489Y503073D01*
X464949Y504184D01*
X465106Y505376D01*
X464949Y506568D01*
X464489Y507679D01*
X463757Y508633D01*
X462803Y509365D01*
X461692Y509825D01*
X460500Y509982D01*
D02*
G37*
G36*
X429500D02*
X428308Y509825D01*
X427197Y509365D01*
X426243Y508633D01*
X425511Y507679D01*
X425051Y506568D01*
X424894Y505376D01*
X425051Y504184D01*
X425511Y503073D01*
X426243Y502119D01*
X427197Y501387D01*
X428308Y500927D01*
X429500Y500770D01*
X430692Y500927D01*
X431803Y501387D01*
X432757Y502119D01*
X433489Y503073D01*
X433949Y504184D01*
X434106Y505376D01*
X433949Y506568D01*
X433489Y507679D01*
X432757Y508633D01*
X431803Y509365D01*
X430692Y509825D01*
X429500Y509982D01*
D02*
G37*
G36*
X406000Y506966D02*
X405167Y506857D01*
X404392Y506536D01*
X403726Y506024D01*
X403214Y505358D01*
X402893Y504583D01*
X402783Y503750D01*
X402893Y502917D01*
X403214Y502142D01*
X403726Y501476D01*
X404392Y500964D01*
X405167Y500643D01*
X406000Y500533D01*
X406833Y500643D01*
X407608Y500964D01*
X408274Y501476D01*
X408786Y502142D01*
X409107Y502917D01*
X409216Y503750D01*
X409107Y504583D01*
X408786Y505358D01*
X408274Y506024D01*
X407608Y506536D01*
X406833Y506857D01*
X406000Y506966D01*
D02*
G37*
G36*
X368500D02*
X367668Y506857D01*
X366892Y506536D01*
X366226Y506024D01*
X365714Y505358D01*
X365393Y504583D01*
X365283Y503750D01*
X365393Y502917D01*
X365714Y502142D01*
X366226Y501476D01*
X366892Y500964D01*
X367668Y500643D01*
X368500Y500533D01*
X369333Y500643D01*
X370108Y500964D01*
X370774Y501476D01*
X371286Y502142D01*
X371607Y502917D01*
X371716Y503750D01*
X371607Y504583D01*
X371286Y505358D01*
X370774Y506024D01*
X370108Y506536D01*
X369333Y506857D01*
X368500Y506966D01*
D02*
G37*
G36*
X460500Y519982D02*
X459308Y519825D01*
X458197Y519365D01*
X457243Y518633D01*
X456511Y517679D01*
X456051Y516568D01*
X455894Y515376D01*
X456051Y514184D01*
X456511Y513073D01*
X457243Y512119D01*
X458197Y511387D01*
X459308Y510927D01*
X460500Y510770D01*
X461692Y510927D01*
X462803Y511387D01*
X463757Y512119D01*
X463867Y512262D01*
X464012Y512400D01*
X464261Y512603D01*
X464516Y512781D01*
X464778Y512933D01*
X465048Y513062D01*
X465327Y513167D01*
X465616Y513249D01*
X465915Y513308D01*
X466099Y513329D01*
X471526D01*
X480870Y503985D01*
X480944Y503901D01*
X481054Y503757D01*
X481145Y503623D01*
X481213Y503508D01*
X481259Y503412D01*
X481285Y503342D01*
X481292Y503313D01*
X481284Y503250D01*
X481393Y502418D01*
X481714Y501642D01*
X482226Y500976D01*
X482892Y500464D01*
X483668Y500143D01*
X484500Y500034D01*
X485332Y500143D01*
X486108Y500464D01*
X486774Y500976D01*
X487286Y501642D01*
X487607Y502418D01*
X487716Y503250D01*
X487607Y504082D01*
X487286Y504858D01*
X486774Y505524D01*
X486108Y506036D01*
X485332Y506357D01*
X484500Y506466D01*
X484437Y506458D01*
X484408Y506465D01*
X484338Y506491D01*
X484242Y506537D01*
X484127Y506605D01*
X484005Y506688D01*
X483703Y506942D01*
X473822Y516824D01*
X473158Y517267D01*
X472374Y517423D01*
X472374Y517423D01*
X466099D01*
X465915Y517444D01*
X465616Y517503D01*
X465327Y517585D01*
X465048Y517690D01*
X464778Y517818D01*
X464516Y517971D01*
X464261Y518149D01*
X464012Y518352D01*
X463867Y518490D01*
X463757Y518633D01*
X462803Y519365D01*
X461692Y519825D01*
X460500Y519982D01*
D02*
G37*
G36*
X406394Y499199D02*
Y496270D01*
X409324D01*
X409260Y496750D01*
X408923Y497564D01*
X408387Y498263D01*
X407688Y498799D01*
X406874Y499136D01*
X406394Y499199D01*
D02*
G37*
G36*
X405606D02*
X405126Y499136D01*
X404312Y498799D01*
X403613Y498263D01*
X403077Y497564D01*
X402740Y496750D01*
X402676Y496270D01*
X405606D01*
Y499199D01*
D02*
G37*
G36*
X484894Y498700D02*
Y495770D01*
X487823D01*
X487760Y496250D01*
X487423Y497064D01*
X486887Y497763D01*
X486188Y498299D01*
X485374Y498636D01*
X484894Y498700D01*
D02*
G37*
G36*
X484106D02*
X483626Y498636D01*
X482812Y498299D01*
X482113Y497763D01*
X481577Y497064D01*
X481240Y496250D01*
X481177Y495770D01*
X484106D01*
Y498700D01*
D02*
G37*
G36*
X429894Y500089D02*
Y495770D01*
X434213D01*
X434103Y496609D01*
X433627Y497759D01*
X432869Y498745D01*
X431883Y499503D01*
X430733Y499979D01*
X429894Y500089D01*
D02*
G37*
G36*
X429106D02*
X428267Y499979D01*
X427117Y499503D01*
X426130Y498745D01*
X425373Y497759D01*
X424897Y496609D01*
X424787Y495770D01*
X429106D01*
Y500089D01*
D02*
G37*
G36*
X322500Y497847D02*
X321793Y497706D01*
X321194Y497306D01*
X320794Y496707D01*
X320654Y496000D01*
X320794Y495293D01*
X321194Y494694D01*
X321793Y494294D01*
X322500Y494153D01*
X323207Y494294D01*
X323806Y494694D01*
X323852Y494764D01*
X323876Y494779D01*
X323910Y494796D01*
X323950Y494812D01*
X323998Y494826D01*
X324054Y494839D01*
X324114Y494848D01*
X332826D01*
X332882Y494838D01*
X332931Y494826D01*
X332970Y494813D01*
X333000Y494799D01*
X333023Y494786D01*
X333041Y494773D01*
X333056Y494759D01*
X333093Y494717D01*
X333100Y494712D01*
X333194Y494570D01*
X333793Y494170D01*
X334500Y494030D01*
X335207Y494170D01*
X335806Y494570D01*
X336206Y495169D01*
X336347Y495876D01*
X336206Y496583D01*
X335806Y497182D01*
X335207Y497582D01*
X334500Y497722D01*
X333793Y497582D01*
X333395Y497316D01*
X333361Y497299D01*
X333311Y497261D01*
X333279Y497241D01*
X333242Y497222D01*
X333199Y497204D01*
X333150Y497187D01*
X333094Y497172D01*
X333038Y497162D01*
X332943Y497152D01*
X324114D01*
X324054Y497161D01*
X323998Y497174D01*
X323950Y497188D01*
X323910Y497204D01*
X323876Y497221D01*
X323852Y497236D01*
X323806Y497306D01*
X323207Y497706D01*
X322500Y497847D01*
D02*
G37*
G36*
X290000Y500216D02*
X289167Y500107D01*
X288392Y499786D01*
X287726Y499274D01*
X287214Y498608D01*
X286893Y497832D01*
X286784Y497000D01*
X286796Y496903D01*
X286779Y496339D01*
X286753Y496074D01*
X286714Y495831D01*
X286665Y495615D01*
X286608Y495428D01*
X286544Y495269D01*
X286475Y495137D01*
X286407Y495036D01*
X280674Y489303D01*
X280424Y488929D01*
X280336Y488488D01*
Y480887D01*
X280330Y480822D01*
X280318Y480748D01*
X278299D01*
Y476732D01*
X284677D01*
Y480748D01*
X282658D01*
X282646Y480822D01*
X282640Y480887D01*
Y488011D01*
X288036Y493407D01*
X288137Y493475D01*
X288269Y493544D01*
X288427Y493608D01*
X288615Y493665D01*
X288831Y493714D01*
X289067Y493751D01*
X289651Y493796D01*
X289890Y493798D01*
X290000Y493784D01*
X290832Y493893D01*
X291608Y494214D01*
X292274Y494726D01*
X292786Y495392D01*
X293107Y496168D01*
X293216Y497000D01*
X293107Y497832D01*
X292786Y498608D01*
X292274Y499274D01*
X291608Y499786D01*
X290832Y500107D01*
X290000Y500216D01*
D02*
G37*
G36*
X409324Y495482D02*
X406394D01*
Y492553D01*
X406874Y492616D01*
X407688Y492953D01*
X408387Y493489D01*
X408923Y494188D01*
X409260Y495002D01*
X409324Y495482D01*
D02*
G37*
G36*
X405606D02*
X402676D01*
X402740Y495002D01*
X403077Y494188D01*
X403613Y493489D01*
X404312Y492953D01*
X405126Y492616D01*
X405606Y492553D01*
Y495482D01*
D02*
G37*
G36*
X487823Y494982D02*
X484894D01*
Y492053D01*
X485374Y492116D01*
X486188Y492453D01*
X486887Y492989D01*
X487423Y493688D01*
X487760Y494502D01*
X487823Y494982D01*
D02*
G37*
G36*
X484106D02*
X481177D01*
X481240Y494502D01*
X481577Y493688D01*
X482113Y492989D01*
X482812Y492453D01*
X483626Y492116D01*
X484106Y492053D01*
Y494982D01*
D02*
G37*
G36*
X460500Y499982D02*
X459308Y499825D01*
X458197Y499365D01*
X457243Y498633D01*
X456511Y497679D01*
X456051Y496568D01*
X455894Y495376D01*
X456051Y494184D01*
X456511Y493073D01*
X457243Y492119D01*
X458197Y491387D01*
X459308Y490927D01*
X460500Y490770D01*
X461692Y490927D01*
X462803Y491387D01*
X463757Y492119D01*
X464489Y493073D01*
X464949Y494184D01*
X465106Y495376D01*
X464949Y496568D01*
X464489Y497679D01*
X463757Y498633D01*
X462803Y499365D01*
X461692Y499825D01*
X460500Y499982D01*
D02*
G37*
G36*
X434213Y494982D02*
X424787D01*
X424897Y494143D01*
X425373Y492993D01*
X426130Y492006D01*
X427117Y491249D01*
X428267Y490773D01*
X429144Y490658D01*
X429368Y490628D01*
Y490124D01*
X429144Y490094D01*
X428267Y489979D01*
X427117Y489503D01*
X426130Y488745D01*
X425373Y487759D01*
X424897Y486609D01*
X424787Y485770D01*
X434213D01*
X434103Y486609D01*
X433627Y487759D01*
X432869Y488745D01*
X431883Y489503D01*
X430733Y489979D01*
X429856Y490094D01*
X429632Y490124D01*
Y490628D01*
X429856Y490658D01*
X430733Y490773D01*
X431883Y491249D01*
X432869Y492006D01*
X433627Y492993D01*
X434103Y494143D01*
X434213Y494982D01*
D02*
G37*
G36*
X314394Y490089D02*
Y485770D01*
X318713D01*
X318603Y486609D01*
X318127Y487759D01*
X317370Y488745D01*
X316383Y489503D01*
X315233Y489979D01*
X314394Y490089D01*
D02*
G37*
G36*
X313606D02*
X312767Y489979D01*
X311617Y489503D01*
X310630Y488745D01*
X309873Y487759D01*
X309397Y486609D01*
X309287Y485770D01*
X313606D01*
Y490089D01*
D02*
G37*
G36*
X460500Y489982D02*
X459308Y489825D01*
X458197Y489365D01*
X457243Y488633D01*
X456511Y487679D01*
X456051Y486568D01*
X455894Y485376D01*
X456051Y484184D01*
X456511Y483073D01*
X457243Y482119D01*
X458197Y481387D01*
X459308Y480927D01*
X460500Y480770D01*
X461692Y480927D01*
X462803Y481387D01*
X463757Y482119D01*
X464489Y483073D01*
X464949Y484184D01*
X465106Y485376D01*
X464949Y486568D01*
X464489Y487679D01*
X463757Y488633D01*
X462803Y489365D01*
X461692Y489825D01*
X460500Y489982D01*
D02*
G37*
G36*
X345000D02*
X343808Y489825D01*
X342697Y489365D01*
X341743Y488633D01*
X341011Y487679D01*
X340551Y486568D01*
X340394Y485376D01*
X340551Y484184D01*
X341011Y483073D01*
X341743Y482119D01*
X342697Y481387D01*
X343808Y480927D01*
X345000Y480770D01*
X346192Y480927D01*
X347303Y481387D01*
X348257Y482119D01*
X348989Y483073D01*
X349449Y484184D01*
X349606Y485376D01*
X349449Y486568D01*
X348989Y487679D01*
X348257Y488633D01*
X347303Y489365D01*
X346192Y489825D01*
X345000Y489982D01*
D02*
G37*
G36*
X434213Y484982D02*
X429894D01*
Y480663D01*
X430733Y480773D01*
X431883Y481249D01*
X432869Y482007D01*
X433627Y482993D01*
X434103Y484143D01*
X434213Y484982D01*
D02*
G37*
G36*
X429106D02*
X424787D01*
X424897Y484143D01*
X425373Y482993D01*
X426130Y482007D01*
X427117Y481249D01*
X428267Y480773D01*
X429106Y480663D01*
Y484982D01*
D02*
G37*
G36*
X318713D02*
X314394D01*
Y480663D01*
X315233Y480773D01*
X316383Y481249D01*
X317370Y482007D01*
X318127Y482993D01*
X318603Y484143D01*
X318713Y484982D01*
D02*
G37*
G36*
X313606D02*
X309287D01*
X309397Y484143D01*
X309873Y482993D01*
X310630Y482007D01*
X311617Y481249D01*
X312767Y480773D01*
X313606Y480663D01*
Y484982D01*
D02*
G37*
G36*
X276386Y474319D02*
X273433D01*
Y472154D01*
X276386D01*
Y474319D01*
D02*
G37*
G36*
X266335Y473925D02*
X263382D01*
Y472154D01*
X266335D01*
Y473925D01*
D02*
G37*
G36*
X272646Y474319D02*
X269693D01*
Y472154D01*
X272646D01*
Y474319D01*
D02*
G37*
G36*
X262595Y473925D02*
X259642D01*
Y472154D01*
X262595D01*
Y473925D01*
D02*
G37*
G36*
X266335Y471366D02*
X263382D01*
Y469594D01*
X266335D01*
Y471366D01*
D02*
G37*
G36*
X262595D02*
X259642D01*
Y469594D01*
X262595D01*
Y471366D01*
D02*
G37*
G36*
X276386D02*
X273433D01*
Y469201D01*
X276386D01*
Y471366D01*
D02*
G37*
G36*
X272646D02*
X269693D01*
Y469201D01*
X272646D01*
Y471366D01*
D02*
G37*
G36*
X381846Y466366D02*
X378894D01*
Y464201D01*
X381846D01*
Y466366D01*
D02*
G37*
G36*
X374366Y460327D02*
Y456008D01*
X378686D01*
X378575Y456847D01*
X378099Y457997D01*
X377342Y458984D01*
X376355Y459741D01*
X375206Y460217D01*
X374366Y460327D01*
D02*
G37*
G36*
X403894D02*
Y456008D01*
X408213D01*
X408103Y456847D01*
X407627Y457997D01*
X406870Y458984D01*
X405883Y459741D01*
X404733Y460217D01*
X403894Y460327D01*
D02*
G37*
G36*
X373579D02*
X372739Y460217D01*
X371590Y459741D01*
X370603Y458984D01*
X369846Y457997D01*
X369370Y456847D01*
X369259Y456008D01*
X373579D01*
Y460327D01*
D02*
G37*
G36*
X403106D02*
X402267Y460217D01*
X401117Y459741D01*
X400131Y458984D01*
X399373Y457997D01*
X398897Y456847D01*
X398787Y456008D01*
X403106D01*
Y460327D01*
D02*
G37*
G36*
X293386Y457819D02*
X290433D01*
Y455653D01*
X293386D01*
Y457819D01*
D02*
G37*
G36*
X283835Y457425D02*
X280882D01*
Y455653D01*
X283835D01*
Y457425D01*
D02*
G37*
G36*
X289646Y457819D02*
X286693D01*
Y455653D01*
X289646D01*
Y457819D01*
D02*
G37*
G36*
X280095Y457425D02*
X277142D01*
Y455653D01*
X280095D01*
Y457425D01*
D02*
G37*
G36*
X298000Y457346D02*
X297604Y457268D01*
X295323D01*
Y453252D01*
X301701D01*
Y457268D01*
X298396D01*
X298000Y457346D01*
D02*
G37*
G36*
X283835Y454866D02*
X280882D01*
Y453094D01*
X283835D01*
Y454866D01*
D02*
G37*
G36*
X280095D02*
X277142D01*
Y453094D01*
X280095D01*
Y454866D01*
D02*
G37*
G36*
X293386D02*
X290433D01*
Y452701D01*
X293386D01*
Y454866D01*
D02*
G37*
G36*
X289646D02*
X286693D01*
Y452701D01*
X289646D01*
Y454866D01*
D02*
G37*
G36*
X355500Y455346D02*
X354793Y455206D01*
X354194Y454806D01*
X353794Y454207D01*
X353654Y453500D01*
X353794Y452793D01*
X354194Y452194D01*
X354364Y452081D01*
X354379Y452063D01*
X354420Y452028D01*
X354433Y452015D01*
X354444Y452000D01*
X354456Y451979D01*
X354469Y451952D01*
X354482Y451916D01*
X354494Y451869D01*
X354503Y451814D01*
Y451161D01*
X354004Y451010D01*
X353806Y451306D01*
X353207Y451706D01*
X352500Y451847D01*
X351793Y451706D01*
X351194Y451306D01*
X350794Y450707D01*
X350654Y450000D01*
X350794Y449293D01*
X351194Y448694D01*
X351462Y448516D01*
X351496Y448479D01*
X351537Y448450D01*
X351543Y448444D01*
X351549Y448436D01*
X351557Y448425D01*
X351567Y448406D01*
X351578Y448377D01*
X351589Y448336D01*
X351598Y448284D01*
Y415940D01*
X351591Y415854D01*
X351581Y415789D01*
X351567Y415724D01*
X351551Y415667D01*
X351534Y415617D01*
X351515Y415573D01*
X351496Y415535D01*
X351464Y415481D01*
X351447Y415436D01*
X351294Y415207D01*
X351153Y414500D01*
X351294Y413793D01*
X351694Y413194D01*
X352293Y412794D01*
X353000Y412653D01*
X353707Y412794D01*
X354306Y413194D01*
X354706Y413793D01*
X354847Y414500D01*
X354706Y415207D01*
X354306Y415806D01*
X354039Y415984D01*
X354004Y416021D01*
X353963Y416050D01*
X353957Y416056D01*
X353951Y416063D01*
X353943Y416075D01*
X353933Y416094D01*
X353922Y416123D01*
X353911Y416164D01*
X353902Y416216D01*
Y417800D01*
X354402Y418055D01*
X354793Y417794D01*
X355500Y417654D01*
X356207Y417794D01*
X356806Y418194D01*
X357206Y418793D01*
X357347Y419500D01*
X357206Y420207D01*
X356975Y420552D01*
X356953Y420601D01*
X356916Y420653D01*
X356896Y420686D01*
X356877Y420725D01*
X356859Y420770D01*
X356842Y420821D01*
X356827Y420880D01*
X356817Y420937D01*
X356808Y421031D01*
Y451993D01*
X356815Y452054D01*
X356827Y452120D01*
X356842Y452179D01*
X356859Y452230D01*
X356877Y452275D01*
X356896Y452314D01*
X356916Y452347D01*
X356953Y452399D01*
X356975Y452448D01*
X357206Y452793D01*
X357347Y453500D01*
X357206Y454207D01*
X356806Y454806D01*
X356207Y455206D01*
X355500Y455346D01*
D02*
G37*
G36*
X408213Y455220D02*
X403894D01*
Y450901D01*
X404733Y451011D01*
X405883Y451487D01*
X406870Y452245D01*
X407627Y453232D01*
X408103Y454381D01*
X408213Y455220D01*
D02*
G37*
G36*
X378686D02*
X374366D01*
Y450901D01*
X375206Y451011D01*
X376355Y451487D01*
X377342Y452245D01*
X378099Y453232D01*
X378575Y454381D01*
X378686Y455220D01*
D02*
G37*
G36*
X403106D02*
X398787D01*
X398897Y454381D01*
X399373Y453232D01*
X400131Y452245D01*
X401117Y451487D01*
X402267Y451011D01*
X403106Y450901D01*
Y455220D01*
D02*
G37*
G36*
X373579D02*
X369259D01*
X369370Y454381D01*
X369846Y453232D01*
X370603Y452245D01*
X371590Y451487D01*
X372739Y451011D01*
X373579Y450901D01*
Y455220D01*
D02*
G37*
G36*
X568956Y470962D02*
X566999Y470911D01*
X565073Y470554D01*
X563227Y469901D01*
X561506Y468966D01*
X559953Y467774D01*
X558605Y466354D01*
X557496Y464740D01*
X556653Y462972D01*
X556097Y461095D01*
X555841Y459153D01*
X555892Y457196D01*
X556249Y455270D01*
X556903Y453424D01*
X557837Y451703D01*
X559029Y450150D01*
X560450Y448802D01*
X562063Y447692D01*
X563831Y446849D01*
X565708Y446293D01*
X567650Y446038D01*
X569608Y446089D01*
X571533Y446446D01*
X573379Y447099D01*
X575100Y448034D01*
X576653Y449226D01*
X578001Y450646D01*
X579111Y452260D01*
X579954Y454028D01*
X580510Y455905D01*
X580765Y457847D01*
X580714Y459804D01*
X580357Y461730D01*
X579704Y463576D01*
X578769Y465297D01*
X577577Y466850D01*
X576157Y468198D01*
X574543Y469308D01*
X572775Y470151D01*
X570898Y470707D01*
X568956Y470962D01*
D02*
G37*
G36*
X209350D02*
X207392Y470911D01*
X205467Y470554D01*
X203621Y469901D01*
X201900Y468966D01*
X200346Y467774D01*
X198998Y466354D01*
X197889Y464740D01*
X197046Y462972D01*
X196490Y461095D01*
X196235Y459153D01*
X196286Y457196D01*
X196643Y455270D01*
X197296Y453424D01*
X198231Y451703D01*
X199423Y450150D01*
X200843Y448802D01*
X202457Y447692D01*
X204225Y446849D01*
X206102Y446293D01*
X208044Y446038D01*
X210001Y446089D01*
X211927Y446446D01*
X213773Y447099D01*
X215494Y448034D01*
X217047Y449226D01*
X218395Y450646D01*
X219504Y452260D01*
X220347Y454028D01*
X220903Y455905D01*
X221159Y457847D01*
X221108Y459804D01*
X220751Y461730D01*
X220097Y463576D01*
X219163Y465297D01*
X217971Y466850D01*
X216550Y468198D01*
X214937Y469308D01*
X213169Y470151D01*
X211292Y470707D01*
X209350Y470962D01*
D02*
G37*
G36*
X373972Y450220D02*
X372780Y450064D01*
X371669Y449603D01*
X370715Y448871D01*
X369983Y447917D01*
X369523Y446806D01*
X369366Y445614D01*
X369523Y444422D01*
X369983Y443311D01*
X370715Y442357D01*
X371669Y441625D01*
X372780Y441165D01*
X373972Y441008D01*
X375165Y441165D01*
X376276Y441625D01*
X377230Y442357D01*
X377962Y443311D01*
X378422Y444422D01*
X378579Y445614D01*
X378422Y446806D01*
X377962Y447917D01*
X377230Y448871D01*
X376276Y449603D01*
X375165Y450064D01*
X373972Y450220D01*
D02*
G37*
G36*
X403500D02*
X402308Y450064D01*
X401197Y449603D01*
X400243Y448871D01*
X399511Y447917D01*
X399051Y446806D01*
X398894Y445614D01*
X399051Y444422D01*
X399511Y443311D01*
X400243Y442357D01*
X401197Y441625D01*
X402308Y441165D01*
X403500Y441008D01*
X403679Y441031D01*
X403879Y441026D01*
X404199Y440994D01*
X404505Y440940D01*
X404798Y440862D01*
X405080Y440762D01*
X405351Y440639D01*
X405613Y440493D01*
X405866Y440323D01*
X406011Y440207D01*
X406586Y439633D01*
X406256Y439256D01*
X405803Y439603D01*
X404692Y440064D01*
X403500Y440220D01*
X402308Y440064D01*
X401197Y439603D01*
X400243Y438871D01*
X399511Y437917D01*
X399051Y436806D01*
X398894Y435614D01*
X399051Y434422D01*
X399511Y433311D01*
X400243Y432357D01*
X401197Y431625D01*
X402308Y431165D01*
X403500Y431008D01*
X404692Y431165D01*
X405803Y431625D01*
X406757Y432357D01*
X407489Y433311D01*
X407949Y434422D01*
X408106Y435614D01*
X407949Y436806D01*
X407489Y437917D01*
X407142Y438370D01*
X407519Y438700D01*
X419336Y426883D01*
X419566Y426539D01*
X435392Y410713D01*
X435214Y410482D01*
X434893Y409706D01*
X434784Y408874D01*
X434893Y408041D01*
X435214Y407266D01*
X435726Y406600D01*
X436392Y406088D01*
X437168Y405767D01*
X438000Y405657D01*
X438833Y405767D01*
X439608Y406088D01*
X440274Y406600D01*
X440313Y406650D01*
X440338Y406666D01*
X440407Y406697D01*
X440506Y406732D01*
X440636Y406766D01*
X440781Y406793D01*
X441174Y406827D01*
X454320D01*
X454407Y406733D01*
X454669Y406408D01*
X454895Y406094D01*
X455081Y405799D01*
X455226Y405523D01*
X455334Y405269D01*
X455405Y405038D01*
X455443Y404830D01*
X455450Y404678D01*
X455433Y404500D01*
X455559Y403219D01*
X455933Y401987D01*
X456540Y400851D01*
X457356Y399856D01*
X458352Y399040D01*
X459487Y398433D01*
X460719Y398059D01*
X462000Y397933D01*
X463281Y398059D01*
X464513Y398433D01*
X465649Y399040D01*
X466644Y399856D01*
X467460Y400851D01*
X468067Y401987D01*
X468441Y403219D01*
X468567Y404500D01*
X468441Y405781D01*
X468067Y407013D01*
X467460Y408148D01*
X466644Y409144D01*
X465649Y409960D01*
X464513Y410567D01*
X463281Y410941D01*
X462000Y411067D01*
X460719Y410941D01*
X459487Y410567D01*
X458352Y409960D01*
X458196Y409832D01*
X458065Y409753D01*
X457934Y409699D01*
X457812Y409671D01*
X457689Y409666D01*
X457555Y409684D01*
X457404Y409730D01*
X457231Y409811D01*
X457039Y409931D01*
X456925Y410020D01*
X456623Y410322D01*
X455959Y410765D01*
X455176Y410921D01*
X455176Y410921D01*
X441087D01*
X440975Y410929D01*
X440795Y410953D01*
X440636Y410982D01*
X440506Y411016D01*
X440407Y411051D01*
X440338Y411083D01*
X440313Y411098D01*
X440274Y411148D01*
X439608Y411660D01*
X439549Y411684D01*
X439439Y412235D01*
X438996Y412900D01*
X422691Y429204D01*
X422461Y429548D01*
X408907Y443103D01*
X408791Y443248D01*
X408621Y443501D01*
X408475Y443763D01*
X408352Y444034D01*
X408252Y444316D01*
X408175Y444610D01*
X408120Y444915D01*
X408088Y445235D01*
X408083Y445436D01*
X408106Y445614D01*
X407949Y446806D01*
X407489Y447917D01*
X406757Y448871D01*
X405803Y449603D01*
X404692Y450064D01*
X403500Y450220D01*
D02*
G37*
G36*
X463500Y441909D02*
X462668Y441800D01*
X461892Y441478D01*
X461226Y440967D01*
X460714Y440301D01*
X460393Y439525D01*
X460284Y438693D01*
X460393Y437860D01*
X460714Y437085D01*
X461226Y436418D01*
X461892Y435907D01*
X462668Y435586D01*
X463500Y435476D01*
X464332Y435586D01*
X465108Y435907D01*
X465774Y436418D01*
X466286Y437085D01*
X466607Y437860D01*
X466716Y438693D01*
X466607Y439525D01*
X466286Y440301D01*
X465774Y440967D01*
X465108Y441478D01*
X464332Y441800D01*
X463500Y441909D01*
D02*
G37*
G36*
X339500Y440909D02*
X338667Y440800D01*
X337892Y440479D01*
X337226Y439967D01*
X336714Y439301D01*
X336393Y438525D01*
X336283Y437693D01*
X336393Y436860D01*
X336714Y436085D01*
X337226Y435419D01*
X337892Y434907D01*
X338667Y434586D01*
X339500Y434476D01*
X340333Y434586D01*
X341108Y434907D01*
X341774Y435419D01*
X342286Y436085D01*
X342607Y436860D01*
X342717Y437693D01*
X342607Y438525D01*
X342286Y439301D01*
X341774Y439967D01*
X341108Y440479D01*
X340333Y440800D01*
X339500Y440909D01*
D02*
G37*
G36*
X314000D02*
X313168Y440800D01*
X312392Y440479D01*
X311726Y439967D01*
X311214Y439301D01*
X310893Y438525D01*
X310784Y437693D01*
X310893Y436860D01*
X311214Y436085D01*
X311726Y435419D01*
X312392Y434907D01*
X313168Y434586D01*
X314000Y434476D01*
X314832Y434586D01*
X315608Y434907D01*
X316274Y435419D01*
X316786Y436085D01*
X317107Y436860D01*
X317216Y437693D01*
X317107Y438525D01*
X316786Y439301D01*
X316274Y439967D01*
X315608Y440479D01*
X314832Y440800D01*
X314000Y440909D01*
D02*
G37*
G36*
X463894Y434142D02*
Y431213D01*
X466823D01*
X466760Y431693D01*
X466423Y432507D01*
X465887Y433206D01*
X465188Y433742D01*
X464374Y434079D01*
X463894Y434142D01*
D02*
G37*
G36*
X438394D02*
Y431213D01*
X441324D01*
X441260Y431693D01*
X440923Y432507D01*
X440387Y433206D01*
X439688Y433742D01*
X438874Y434079D01*
X438394Y434142D01*
D02*
G37*
G36*
X463106D02*
X462626Y434079D01*
X461812Y433742D01*
X461113Y433206D01*
X460577Y432507D01*
X460240Y431693D01*
X460177Y431213D01*
X463106D01*
Y434142D01*
D02*
G37*
G36*
X437606D02*
X437126Y434079D01*
X436312Y433742D01*
X435613Y433206D01*
X435077Y432507D01*
X434740Y431693D01*
X434677Y431213D01*
X437606D01*
Y434142D01*
D02*
G37*
G36*
X373972Y440220D02*
X372780Y440064D01*
X371669Y439603D01*
X370715Y438871D01*
X369983Y437917D01*
X369523Y436806D01*
X369366Y435614D01*
X369523Y434422D01*
X369983Y433311D01*
X370715Y432357D01*
X371669Y431625D01*
X372780Y431165D01*
X373972Y431008D01*
X375165Y431165D01*
X376276Y431625D01*
X377230Y432357D01*
X377962Y433311D01*
X378422Y434422D01*
X378579Y435614D01*
X378422Y436806D01*
X377962Y437917D01*
X377230Y438871D01*
X376276Y439603D01*
X375165Y440064D01*
X373972Y440220D01*
D02*
G37*
G36*
X339894Y433142D02*
Y430213D01*
X342824D01*
X342760Y430692D01*
X342423Y431506D01*
X341887Y432206D01*
X341188Y432742D01*
X340374Y433079D01*
X339894Y433142D01*
D02*
G37*
G36*
X314394D02*
Y430213D01*
X317323D01*
X317260Y430692D01*
X316923Y431506D01*
X316387Y432206D01*
X315688Y432742D01*
X314874Y433079D01*
X314394Y433142D01*
D02*
G37*
G36*
X313606D02*
X313126Y433079D01*
X312312Y432742D01*
X311613Y432206D01*
X311077Y431506D01*
X310740Y430692D01*
X310677Y430213D01*
X313606D01*
Y433142D01*
D02*
G37*
G36*
X339106D02*
X338626Y433079D01*
X337812Y432742D01*
X337113Y432206D01*
X336577Y431506D01*
X336240Y430692D01*
X336176Y430213D01*
X339106D01*
Y433142D01*
D02*
G37*
G36*
X463106Y430425D02*
X460177D01*
X460240Y429945D01*
X460577Y429131D01*
X461113Y428432D01*
X461812Y427896D01*
X462626Y427559D01*
X463106Y427495D01*
Y430425D01*
D02*
G37*
G36*
X437606D02*
X434677D01*
X434740Y429945D01*
X435077Y429131D01*
X435613Y428432D01*
X436312Y427896D01*
X437126Y427559D01*
X437606Y427495D01*
Y430425D01*
D02*
G37*
G36*
X466823D02*
X463894D01*
Y427495D01*
X464374Y427559D01*
X465188Y427896D01*
X465887Y428432D01*
X466423Y429131D01*
X466760Y429945D01*
X466823Y430425D01*
D02*
G37*
G36*
X441324D02*
X438394D01*
Y427495D01*
X438874Y427559D01*
X439688Y427896D01*
X440387Y428432D01*
X440923Y429131D01*
X441260Y429945D01*
X441324Y430425D01*
D02*
G37*
G36*
X339106Y429425D02*
X336176D01*
X336240Y428945D01*
X336577Y428131D01*
X337113Y427432D01*
X337812Y426896D01*
X338626Y426559D01*
X339106Y426495D01*
Y429425D01*
D02*
G37*
G36*
X313606D02*
X310677D01*
X310740Y428945D01*
X311077Y428131D01*
X311613Y427432D01*
X312312Y426896D01*
X313126Y426559D01*
X313606Y426495D01*
Y429425D01*
D02*
G37*
G36*
X342824D02*
X339894D01*
Y426495D01*
X340374Y426559D01*
X341188Y426896D01*
X341887Y427432D01*
X342423Y428131D01*
X342760Y428945D01*
X342824Y429425D01*
D02*
G37*
G36*
X317323D02*
X314394D01*
Y426495D01*
X314874Y426559D01*
X315688Y426896D01*
X316387Y427432D01*
X316923Y428131D01*
X317260Y428945D01*
X317323Y429425D01*
D02*
G37*
G36*
X403500Y430221D02*
X402308Y430064D01*
X401197Y429603D01*
X400243Y428871D01*
X399511Y427917D01*
X399051Y426806D01*
X398894Y425614D01*
X399051Y424422D01*
X399511Y423311D01*
X400243Y422357D01*
X401197Y421625D01*
X402308Y421165D01*
X403500Y421008D01*
X404692Y421165D01*
X405803Y421625D01*
X406757Y422357D01*
X407489Y423311D01*
X407949Y424422D01*
X408106Y425614D01*
X407949Y426806D01*
X407489Y427917D01*
X406757Y428871D01*
X405803Y429603D01*
X404692Y430064D01*
X403500Y430221D01*
D02*
G37*
G36*
X373972D02*
X372780Y430064D01*
X371669Y429603D01*
X370715Y428871D01*
X369983Y427917D01*
X369523Y426806D01*
X369366Y425614D01*
X369523Y424422D01*
X369983Y423311D01*
X370715Y422357D01*
X371669Y421625D01*
X372780Y421165D01*
X373972Y421008D01*
X375165Y421165D01*
X376276Y421625D01*
X377230Y422357D01*
X377962Y423311D01*
X378422Y424422D01*
X378579Y425614D01*
X378422Y426806D01*
X377962Y427917D01*
X377230Y428871D01*
X376276Y429603D01*
X375165Y430064D01*
X373972Y430221D01*
D02*
G37*
G36*
X403500Y420221D02*
X402308Y420064D01*
X401197Y419603D01*
X400243Y418871D01*
X399511Y417917D01*
X399051Y416806D01*
X398894Y415614D01*
X399051Y414422D01*
X399511Y413311D01*
X400243Y412357D01*
X401197Y411625D01*
X402308Y411165D01*
X403500Y411008D01*
X404692Y411165D01*
X405803Y411625D01*
X406757Y412357D01*
X407489Y413311D01*
X407949Y414422D01*
X408106Y415614D01*
X407949Y416806D01*
X407489Y417917D01*
X406757Y418871D01*
X405803Y419603D01*
X404692Y420064D01*
X403500Y420221D01*
D02*
G37*
G36*
X373972D02*
X372780Y420064D01*
X371669Y419603D01*
X370715Y418871D01*
X369983Y417917D01*
X369523Y416806D01*
X369366Y415614D01*
X369523Y414422D01*
X369983Y413311D01*
X370715Y412357D01*
X371669Y411625D01*
X372780Y411165D01*
X373972Y411008D01*
X375165Y411165D01*
X376276Y411625D01*
X377230Y412357D01*
X377962Y413311D01*
X378422Y414422D01*
X378579Y415614D01*
X378422Y416806D01*
X377962Y417917D01*
X377230Y418871D01*
X376276Y419603D01*
X375165Y420064D01*
X373972Y420221D01*
D02*
G37*
G36*
X339500Y411091D02*
X338667Y410981D01*
X337892Y410660D01*
X337226Y410148D01*
X336714Y409482D01*
X336393Y408707D01*
X336283Y407874D01*
X336393Y407042D01*
X336714Y406266D01*
X337226Y405600D01*
X337892Y405089D01*
X338667Y404767D01*
X339500Y404658D01*
X340333Y404767D01*
X341108Y405089D01*
X341774Y405600D01*
X342286Y406266D01*
X342607Y407042D01*
X342717Y407874D01*
X342607Y408707D01*
X342286Y409482D01*
X341774Y410148D01*
X341108Y410660D01*
X340333Y410981D01*
X339500Y411091D01*
D02*
G37*
G36*
X438394Y404323D02*
Y401394D01*
X441324D01*
X441260Y401874D01*
X440923Y402688D01*
X440387Y403387D01*
X439688Y403923D01*
X438874Y404260D01*
X438394Y404323D01*
D02*
G37*
G36*
X437606D02*
X437126Y404260D01*
X436312Y403923D01*
X435613Y403387D01*
X435077Y402688D01*
X434740Y401874D01*
X434677Y401394D01*
X437606D01*
Y404323D01*
D02*
G37*
G36*
X403500Y410220D02*
X402308Y410064D01*
X401197Y409603D01*
X400243Y408871D01*
X399511Y407917D01*
X399051Y406806D01*
X398894Y405614D01*
X399051Y404422D01*
X399511Y403311D01*
X400243Y402357D01*
X401197Y401625D01*
X402308Y401165D01*
X403500Y401008D01*
X404692Y401165D01*
X405803Y401625D01*
X406757Y402357D01*
X407489Y403311D01*
X407949Y404422D01*
X408106Y405614D01*
X407949Y406806D01*
X407489Y407917D01*
X406757Y408871D01*
X405803Y409603D01*
X404692Y410064D01*
X403500Y410220D01*
D02*
G37*
G36*
X373972D02*
X372780Y410064D01*
X371669Y409603D01*
X370715Y408871D01*
X369983Y407917D01*
X369523Y406806D01*
X369366Y405614D01*
X369523Y404422D01*
X369983Y403311D01*
X370715Y402357D01*
X371669Y401625D01*
X372780Y401165D01*
X373972Y401008D01*
X375165Y401165D01*
X376276Y401625D01*
X377230Y402357D01*
X377962Y403311D01*
X378422Y404422D01*
X378579Y405614D01*
X378422Y406806D01*
X377962Y407917D01*
X377230Y408871D01*
X376276Y409603D01*
X375165Y410064D01*
X373972Y410220D01*
D02*
G37*
G36*
X339894Y403324D02*
Y400394D01*
X342824D01*
X342760Y400874D01*
X342423Y401688D01*
X341887Y402387D01*
X341188Y402923D01*
X340374Y403260D01*
X339894Y403324D01*
D02*
G37*
G36*
X339106D02*
X338626Y403260D01*
X337812Y402923D01*
X337113Y402387D01*
X336577Y401688D01*
X336240Y400874D01*
X336176Y400394D01*
X339106D01*
Y403324D01*
D02*
G37*
G36*
X483653Y411067D02*
X482372Y410941D01*
X481140Y410567D01*
X480005Y409960D01*
X479010Y409144D01*
X478193Y408148D01*
X477586Y407013D01*
X477213Y405781D01*
X477086Y404500D01*
X477213Y403219D01*
X477586Y401987D01*
X478193Y400851D01*
X479010Y399856D01*
X480005Y399040D01*
X481140Y398433D01*
X482372Y398059D01*
X483653Y397933D01*
X484935Y398059D01*
X486167Y398433D01*
X487302Y399040D01*
X488297Y399856D01*
X489114Y400851D01*
X489721Y401987D01*
X490094Y403219D01*
X490221Y404500D01*
X490094Y405781D01*
X489721Y407013D01*
X489114Y408148D01*
X488297Y409144D01*
X487302Y409960D01*
X486167Y410567D01*
X484935Y410941D01*
X483653Y411067D01*
D02*
G37*
G36*
X441324Y400606D02*
X438394D01*
Y397676D01*
X438874Y397740D01*
X439688Y398077D01*
X440387Y398613D01*
X440923Y399312D01*
X441260Y400126D01*
X441324Y400606D01*
D02*
G37*
G36*
X437606D02*
X434677D01*
X434740Y400126D01*
X435077Y399312D01*
X435613Y398613D01*
X436312Y398077D01*
X437126Y397740D01*
X437606Y397676D01*
Y400606D01*
D02*
G37*
G36*
X342824Y399606D02*
X339894D01*
Y396676D01*
X340374Y396740D01*
X341188Y397077D01*
X341887Y397613D01*
X342423Y398312D01*
X342760Y399126D01*
X342824Y399606D01*
D02*
G37*
G36*
X339106D02*
X336176D01*
X336240Y399126D01*
X336577Y398312D01*
X337113Y397613D01*
X337812Y397077D01*
X338626Y396740D01*
X339106Y396676D01*
Y399606D01*
D02*
G37*
G36*
X315000Y407567D02*
X313719Y407441D01*
X312487Y407067D01*
X311351Y406460D01*
X310356Y405644D01*
X309540Y404648D01*
X308933Y403513D01*
X308559Y402281D01*
X308433Y401000D01*
X308559Y399719D01*
X308933Y398487D01*
X309540Y397352D01*
X310356Y396356D01*
X311351Y395540D01*
X312487Y394933D01*
X313719Y394559D01*
X315000Y394433D01*
X316281Y394559D01*
X317513Y394933D01*
X318649Y395540D01*
X319644Y396356D01*
X320460Y397352D01*
X321067Y398487D01*
X321441Y399719D01*
X321567Y401000D01*
X321441Y402281D01*
X321067Y403513D01*
X320460Y404648D01*
X319644Y405644D01*
X318649Y406460D01*
X317513Y407067D01*
X316281Y407441D01*
X315000Y407567D01*
D02*
G37*
G36*
X293347D02*
X292065Y407441D01*
X290833Y407067D01*
X289698Y406460D01*
X288703Y405644D01*
X287886Y404648D01*
X287279Y403513D01*
X286906Y402281D01*
X286779Y401000D01*
X286906Y399719D01*
X287279Y398487D01*
X287886Y397352D01*
X288703Y396356D01*
X289698Y395540D01*
X290833Y394933D01*
X292065Y394559D01*
X293347Y394433D01*
X294628Y394559D01*
X295860Y394933D01*
X296995Y395540D01*
X297990Y396356D01*
X298807Y397352D01*
X299414Y398487D01*
X299787Y399719D01*
X299914Y401000D01*
X299787Y402281D01*
X299414Y403513D01*
X298807Y404648D01*
X297990Y405644D01*
X296995Y406460D01*
X295860Y407067D01*
X294628Y407441D01*
X293347Y407567D01*
D02*
G37*
G36*
X403500Y400220D02*
X402308Y400064D01*
X401197Y399603D01*
X400243Y398871D01*
X399511Y397917D01*
X399051Y396806D01*
X398894Y395614D01*
X399051Y394422D01*
X399511Y393311D01*
X400243Y392357D01*
X401197Y391625D01*
X402308Y391165D01*
X403500Y391008D01*
X404692Y391165D01*
X405803Y391625D01*
X406757Y392357D01*
X407489Y393311D01*
X407949Y394422D01*
X408106Y395614D01*
X407949Y396806D01*
X407489Y397917D01*
X406757Y398871D01*
X405803Y399603D01*
X404692Y400064D01*
X403500Y400220D01*
D02*
G37*
G36*
X373972D02*
X372780Y400064D01*
X371669Y399603D01*
X370715Y398871D01*
X369983Y397917D01*
X369523Y396806D01*
X369366Y395614D01*
X369523Y394422D01*
X369983Y393311D01*
X370715Y392357D01*
X371669Y391625D01*
X372780Y391165D01*
X373972Y391008D01*
X375165Y391165D01*
X376276Y391625D01*
X377230Y392357D01*
X377962Y393311D01*
X378422Y394422D01*
X378579Y395614D01*
X378422Y396806D01*
X377962Y397917D01*
X377230Y398871D01*
X376276Y399603D01*
X375165Y400064D01*
X373972Y400220D01*
D02*
G37*
G36*
X529899Y393014D02*
X528707Y392857D01*
X527596Y392397D01*
X526642Y391665D01*
X525910Y390711D01*
X525449Y389600D01*
X525292Y388408D01*
X525449Y387215D01*
X525910Y386105D01*
X526642Y385151D01*
X527596Y384419D01*
X528707Y383958D01*
X529899Y383801D01*
X531091Y383958D01*
X532202Y384419D01*
X533156Y385151D01*
X533888Y386105D01*
X534348Y387215D01*
X534505Y388408D01*
X534348Y389600D01*
X533888Y390711D01*
X533156Y391665D01*
X532202Y392397D01*
X531091Y392857D01*
X529899Y393014D01*
D02*
G37*
G36*
X248744Y394696D02*
X240834Y390129D01*
X245401Y382219D01*
X253311Y386786D01*
X248744Y394696D01*
D02*
G37*
G36*
X403500Y390220D02*
X402308Y390064D01*
X401197Y389603D01*
X400243Y388871D01*
X399511Y387917D01*
X399051Y386806D01*
X398894Y385614D01*
X399051Y384422D01*
X399511Y383311D01*
X400243Y382357D01*
X401197Y381625D01*
X402308Y381165D01*
X403500Y381008D01*
X404692Y381165D01*
X405803Y381625D01*
X406757Y382357D01*
X407489Y383311D01*
X407949Y384422D01*
X408106Y385614D01*
X407949Y386806D01*
X407489Y387917D01*
X406757Y388871D01*
X405803Y389603D01*
X404692Y390064D01*
X403500Y390220D01*
D02*
G37*
G36*
X373972D02*
X372780Y390064D01*
X371669Y389603D01*
X370715Y388871D01*
X369983Y387917D01*
X369523Y386806D01*
X369366Y385614D01*
X369523Y384422D01*
X369983Y383311D01*
X370715Y382357D01*
X371669Y381625D01*
X372780Y381165D01*
X373972Y381008D01*
X375165Y381165D01*
X376276Y381625D01*
X377230Y382357D01*
X377962Y383311D01*
X378422Y384422D01*
X378579Y385614D01*
X378422Y386806D01*
X377962Y387917D01*
X377230Y388871D01*
X376276Y389603D01*
X375165Y390064D01*
X373972Y390220D01*
D02*
G37*
G36*
X252073Y384562D02*
X250839Y384400D01*
X250057Y384076D01*
X252217Y380335D01*
X255958Y382495D01*
X255442Y383167D01*
X254455Y383924D01*
X253306Y384400D01*
X252073Y384562D01*
D02*
G37*
G36*
X524899Y384513D02*
X523665Y384350D01*
X522516Y383874D01*
X521529Y383117D01*
X521014Y382445D01*
X524755Y380285D01*
X526915Y384026D01*
X526132Y384350D01*
X524899Y384513D01*
D02*
G37*
G36*
X249375Y383682D02*
X248703Y383167D01*
X247946Y382180D01*
X247470Y381030D01*
X247307Y379797D01*
X247470Y378564D01*
X247794Y377781D01*
X251535Y379941D01*
X249375Y383682D01*
D02*
G37*
G36*
X527596Y383632D02*
X525437Y379892D01*
X529178Y377732D01*
X529502Y378514D01*
X529664Y379748D01*
X529502Y380981D01*
X529026Y382130D01*
X528268Y383117D01*
X527596Y383632D01*
D02*
G37*
G36*
X256351Y381813D02*
X252610Y379653D01*
X254770Y375912D01*
X255442Y376428D01*
X256199Y377414D01*
X256675Y378564D01*
X256838Y379797D01*
X256675Y381030D01*
X256351Y381813D01*
D02*
G37*
G36*
X520620Y381763D02*
X520296Y380981D01*
X520134Y379748D01*
X520296Y378514D01*
X520772Y377365D01*
X521529Y376378D01*
X522201Y375863D01*
X524361Y379603D01*
X520620Y381763D01*
D02*
G37*
G36*
X251928Y379259D02*
X248187Y377099D01*
X248703Y376428D01*
X249690Y375670D01*
X250839Y375194D01*
X252073Y375032D01*
X253306Y375194D01*
X254088Y375518D01*
X251928Y379259D01*
D02*
G37*
G36*
X525043Y379210D02*
X522883Y375469D01*
X523665Y375145D01*
X524899Y374982D01*
X526132Y375145D01*
X527281Y375621D01*
X528268Y376378D01*
X528784Y377050D01*
X525043Y379210D01*
D02*
G37*
G36*
X403500Y380221D02*
X402308Y380064D01*
X401197Y379603D01*
X400243Y378871D01*
X399511Y377917D01*
X399051Y376806D01*
X398894Y375614D01*
X399051Y374422D01*
X399511Y373311D01*
X400243Y372357D01*
X401197Y371625D01*
X402308Y371165D01*
X403500Y371008D01*
X404692Y371165D01*
X405803Y371625D01*
X406757Y372357D01*
X407489Y373311D01*
X407949Y374422D01*
X408106Y375614D01*
X407949Y376806D01*
X407489Y377917D01*
X406757Y378871D01*
X405803Y379603D01*
X404692Y380064D01*
X403500Y380221D01*
D02*
G37*
G36*
X373972D02*
X372780Y380064D01*
X371669Y379603D01*
X370715Y378871D01*
X369983Y377917D01*
X369523Y376806D01*
X369366Y375614D01*
X369523Y374422D01*
X369983Y373311D01*
X370715Y372357D01*
X371669Y371625D01*
X372780Y371165D01*
X373972Y371008D01*
X375165Y371165D01*
X376276Y371625D01*
X377230Y372357D01*
X377962Y373311D01*
X378422Y374422D01*
X378579Y375614D01*
X378422Y376806D01*
X377962Y377917D01*
X377230Y378871D01*
X376276Y379603D01*
X375165Y380064D01*
X373972Y380221D01*
D02*
G37*
G36*
X257072Y375743D02*
X255880Y375586D01*
X254769Y375126D01*
X253815Y374394D01*
X253083Y373440D01*
X252623Y372329D01*
X252466Y371137D01*
X252623Y369945D01*
X253083Y368834D01*
X253815Y367880D01*
X254769Y367148D01*
X255880Y366687D01*
X257072Y366530D01*
X258265Y366687D01*
X259376Y367148D01*
X260330Y367880D01*
X261062Y368834D01*
X261522Y369945D01*
X261679Y371137D01*
X261522Y372329D01*
X261062Y373440D01*
X260330Y374394D01*
X259376Y375126D01*
X258265Y375586D01*
X257072Y375743D01*
D02*
G37*
G36*
X518227Y377326D02*
X513660Y369416D01*
X521570Y364849D01*
X526137Y372759D01*
X518227Y377326D01*
D02*
G37*
G36*
X403500Y370220D02*
X402308Y370063D01*
X401197Y369603D01*
X400243Y368871D01*
X399511Y367917D01*
X399051Y366806D01*
X398894Y365614D01*
X399051Y364422D01*
X399511Y363311D01*
X400243Y362357D01*
X401197Y361625D01*
X402308Y361165D01*
X403500Y361008D01*
X404692Y361165D01*
X405803Y361625D01*
X406757Y362357D01*
X407489Y363311D01*
X407949Y364422D01*
X408106Y365614D01*
X407949Y366806D01*
X407489Y367917D01*
X406757Y368871D01*
X405803Y369603D01*
X404692Y370063D01*
X403500Y370220D01*
D02*
G37*
G36*
X373972D02*
X372780Y370063D01*
X371669Y369603D01*
X370715Y368871D01*
X369983Y367917D01*
X369523Y366806D01*
X369366Y365614D01*
X369523Y364422D01*
X369983Y363311D01*
X370715Y362357D01*
X371669Y361625D01*
X372780Y361165D01*
X373972Y361008D01*
X375165Y361165D01*
X376276Y361625D01*
X377230Y362357D01*
X377962Y363311D01*
X378422Y364422D01*
X378579Y365614D01*
X378422Y366806D01*
X377962Y367917D01*
X377230Y368871D01*
X376276Y369603D01*
X375165Y370063D01*
X373972Y370220D01*
D02*
G37*
G36*
X403500Y360221D02*
X402308Y360064D01*
X401197Y359603D01*
X400243Y358871D01*
X399511Y357917D01*
X399051Y356806D01*
X398894Y355614D01*
X399051Y354422D01*
X399511Y353311D01*
X400243Y352357D01*
X401197Y351625D01*
X402308Y351165D01*
X403500Y351008D01*
X404692Y351165D01*
X405803Y351625D01*
X406757Y352357D01*
X407489Y353311D01*
X407949Y354422D01*
X408106Y355614D01*
X407949Y356806D01*
X407489Y357917D01*
X406757Y358871D01*
X405803Y359603D01*
X404692Y360064D01*
X403500Y360221D01*
D02*
G37*
G36*
X373972D02*
X372780Y360064D01*
X371669Y359603D01*
X370715Y358871D01*
X369983Y357917D01*
X369523Y356806D01*
X369366Y355614D01*
X369523Y354422D01*
X369983Y353311D01*
X370715Y352357D01*
X371669Y351625D01*
X372780Y351165D01*
X373972Y351008D01*
X375165Y351165D01*
X376276Y351625D01*
X377230Y352357D01*
X377962Y353311D01*
X378422Y354422D01*
X378579Y355614D01*
X378422Y356806D01*
X377962Y357917D01*
X377230Y358871D01*
X376276Y359603D01*
X375165Y360064D01*
X373972Y360221D01*
D02*
G37*
G36*
X403500Y350220D02*
X402308Y350063D01*
X401197Y349603D01*
X400243Y348871D01*
X399511Y347917D01*
X399051Y346806D01*
X398894Y345614D01*
X399051Y344422D01*
X399511Y343311D01*
X400243Y342357D01*
X401197Y341625D01*
X402308Y341165D01*
X403500Y341008D01*
X404692Y341165D01*
X405803Y341625D01*
X406757Y342357D01*
X407489Y343311D01*
X407949Y344422D01*
X408106Y345614D01*
X407949Y346806D01*
X407489Y347917D01*
X406757Y348871D01*
X405803Y349603D01*
X404692Y350063D01*
X403500Y350220D01*
D02*
G37*
G36*
X373972D02*
X372780Y350063D01*
X371669Y349603D01*
X370715Y348871D01*
X369983Y347917D01*
X369523Y346806D01*
X369366Y345614D01*
X369523Y344422D01*
X369983Y343311D01*
X370715Y342357D01*
X371669Y341625D01*
X372780Y341165D01*
X373972Y341008D01*
X375165Y341165D01*
X376276Y341625D01*
X377230Y342357D01*
X377962Y343311D01*
X378422Y344422D01*
X378579Y345614D01*
X378422Y346806D01*
X377962Y347917D01*
X377230Y348871D01*
X376276Y349603D01*
X375165Y350063D01*
X373972Y350220D01*
D02*
G37*
G36*
X403500Y340220D02*
X402308Y340064D01*
X401197Y339603D01*
X400243Y338871D01*
X399511Y337917D01*
X399051Y336806D01*
X398894Y335614D01*
X399051Y334422D01*
X399511Y333311D01*
X400243Y332357D01*
X401197Y331625D01*
X402308Y331165D01*
X403500Y331008D01*
X404692Y331165D01*
X405803Y331625D01*
X406757Y332357D01*
X407489Y333311D01*
X407949Y334422D01*
X408106Y335614D01*
X407949Y336806D01*
X407489Y337917D01*
X406757Y338871D01*
X405803Y339603D01*
X404692Y340064D01*
X403500Y340220D01*
D02*
G37*
G36*
X373972D02*
X372780Y340064D01*
X371669Y339603D01*
X370715Y338871D01*
X369983Y337917D01*
X369523Y336806D01*
X369366Y335614D01*
X369523Y334422D01*
X369983Y333311D01*
X370715Y332357D01*
X371669Y331625D01*
X372780Y331165D01*
X373972Y331008D01*
X375165Y331165D01*
X376276Y331625D01*
X377230Y332357D01*
X377962Y333311D01*
X378422Y334422D01*
X378579Y335614D01*
X378422Y336806D01*
X377962Y337917D01*
X377230Y338871D01*
X376276Y339603D01*
X375165Y340064D01*
X373972Y340220D01*
D02*
G37*
G36*
X403500Y330221D02*
X402308Y330064D01*
X401197Y329603D01*
X400243Y328871D01*
X399511Y327917D01*
X399051Y326806D01*
X398894Y325614D01*
X399051Y324422D01*
X399511Y323311D01*
X400243Y322357D01*
X401197Y321625D01*
X402308Y321165D01*
X403500Y321008D01*
X404692Y321165D01*
X405803Y321625D01*
X406757Y322357D01*
X407489Y323311D01*
X407949Y324422D01*
X408106Y325614D01*
X407949Y326806D01*
X407489Y327917D01*
X406757Y328871D01*
X405803Y329603D01*
X404692Y330064D01*
X403500Y330221D01*
D02*
G37*
G36*
X373972D02*
X372780Y330064D01*
X371669Y329603D01*
X370715Y328871D01*
X369983Y327917D01*
X369523Y326806D01*
X369366Y325614D01*
X369523Y324422D01*
X369983Y323311D01*
X370715Y322357D01*
X371669Y321625D01*
X372780Y321165D01*
X373972Y321008D01*
X375165Y321165D01*
X376276Y321625D01*
X377230Y322357D01*
X377962Y323311D01*
X378422Y324422D01*
X378579Y325614D01*
X378422Y326806D01*
X377962Y327917D01*
X377230Y328871D01*
X376276Y329603D01*
X375165Y330064D01*
X373972Y330221D01*
D02*
G37*
G36*
X403500Y320220D02*
X402308Y320063D01*
X401197Y319603D01*
X400243Y318871D01*
X399511Y317917D01*
X399051Y316806D01*
X398894Y315614D01*
X399051Y314422D01*
X399511Y313311D01*
X400243Y312357D01*
X401197Y311625D01*
X402308Y311165D01*
X403500Y311008D01*
X404692Y311165D01*
X405803Y311625D01*
X406757Y312357D01*
X407489Y313311D01*
X407949Y314422D01*
X408106Y315614D01*
X407949Y316806D01*
X407489Y317917D01*
X406757Y318871D01*
X405803Y319603D01*
X404692Y320063D01*
X403500Y320220D01*
D02*
G37*
G36*
X373972D02*
X372780Y320063D01*
X371669Y319603D01*
X370715Y318871D01*
X369983Y317917D01*
X369523Y316806D01*
X369366Y315614D01*
X369523Y314422D01*
X369983Y313311D01*
X370715Y312357D01*
X371669Y311625D01*
X372780Y311165D01*
X373972Y311008D01*
X375165Y311165D01*
X376276Y311625D01*
X377230Y312357D01*
X377962Y313311D01*
X378422Y314422D01*
X378579Y315614D01*
X378422Y316806D01*
X377962Y317917D01*
X377230Y318871D01*
X376276Y319603D01*
X375165Y320063D01*
X373972Y320220D01*
D02*
G37*
G36*
X403500Y310221D02*
X402308Y310064D01*
X401197Y309603D01*
X400243Y308871D01*
X399511Y307917D01*
X399051Y306806D01*
X398894Y305614D01*
X399051Y304422D01*
X399511Y303311D01*
X400243Y302357D01*
X401197Y301625D01*
X402308Y301165D01*
X403500Y301008D01*
X404692Y301165D01*
X405803Y301625D01*
X406757Y302357D01*
X407489Y303311D01*
X407949Y304422D01*
X408106Y305614D01*
X407949Y306806D01*
X407489Y307917D01*
X406757Y308871D01*
X405803Y309603D01*
X404692Y310064D01*
X403500Y310221D01*
D02*
G37*
G36*
X373972D02*
X372780Y310064D01*
X371669Y309603D01*
X370715Y308871D01*
X369983Y307917D01*
X369523Y306806D01*
X369366Y305614D01*
X369523Y304422D01*
X369983Y303311D01*
X370715Y302357D01*
X371669Y301625D01*
X372780Y301165D01*
X373972Y301008D01*
X375165Y301165D01*
X376276Y301625D01*
X377230Y302357D01*
X377962Y303311D01*
X378422Y304422D01*
X378579Y305614D01*
X378422Y306806D01*
X377962Y307917D01*
X377230Y308871D01*
X376276Y309603D01*
X375165Y310064D01*
X373972Y310221D01*
D02*
G37*
G36*
X449894Y301213D02*
Y296894D01*
X454213D01*
X454103Y297733D01*
X453627Y298883D01*
X452870Y299869D01*
X451883Y300627D01*
X450733Y301103D01*
X449894Y301213D01*
D02*
G37*
G36*
X434224Y301224D02*
X429894D01*
Y296894D01*
X434224D01*
Y301224D01*
D02*
G37*
G36*
X439106Y301213D02*
X438267Y301103D01*
X437117Y300627D01*
X436131Y299869D01*
X435373Y298883D01*
X434897Y297733D01*
X434787Y296894D01*
X439106D01*
Y301213D01*
D02*
G37*
G36*
X429106Y301224D02*
X424776D01*
Y296894D01*
X429106D01*
Y301224D01*
D02*
G37*
G36*
X324067Y301567D02*
X314933D01*
Y292433D01*
X324067D01*
Y301567D01*
D02*
G37*
G36*
X339500Y301606D02*
X338308Y301449D01*
X337197Y300989D01*
X336243Y300257D01*
X335511Y299303D01*
X335051Y298192D01*
X334894Y297000D01*
X335051Y295808D01*
X335511Y294697D01*
X336243Y293743D01*
X337197Y293011D01*
X338308Y292551D01*
X339500Y292394D01*
X340692Y292551D01*
X341803Y293011D01*
X342757Y293743D01*
X343489Y294697D01*
X343949Y295808D01*
X344106Y297000D01*
X343949Y298192D01*
X343489Y299303D01*
X342757Y300257D01*
X341803Y300989D01*
X340692Y301449D01*
X339500Y301606D01*
D02*
G37*
G36*
X329500D02*
X328308Y301449D01*
X327197Y300989D01*
X326243Y300257D01*
X325511Y299303D01*
X325051Y298192D01*
X324894Y297000D01*
X325051Y295808D01*
X325511Y294697D01*
X326243Y293743D01*
X327197Y293011D01*
X328308Y292551D01*
X329500Y292394D01*
X330692Y292551D01*
X331803Y293011D01*
X332757Y293743D01*
X333489Y294697D01*
X333949Y295808D01*
X334106Y297000D01*
X333949Y298192D01*
X333489Y299303D01*
X332757Y300257D01*
X331803Y300989D01*
X330692Y301449D01*
X329500Y301606D01*
D02*
G37*
G36*
X454213Y296106D02*
X449894D01*
Y291787D01*
X450733Y291897D01*
X451883Y292373D01*
X452870Y293130D01*
X453627Y294117D01*
X454103Y295267D01*
X454213Y296106D01*
D02*
G37*
G36*
X439894Y301213D02*
Y296500D01*
Y291787D01*
X440733Y291897D01*
X441883Y292373D01*
X442870Y293130D01*
X443627Y294117D01*
X444103Y295267D01*
X444218Y296144D01*
X444248Y296368D01*
X444752D01*
X444782Y296144D01*
X444897Y295267D01*
X445373Y294117D01*
X446131Y293130D01*
X447117Y292373D01*
X448267Y291897D01*
X449106Y291787D01*
Y296500D01*
Y301213D01*
X448267Y301103D01*
X447117Y300627D01*
X446131Y299869D01*
X445373Y298883D01*
X444897Y297733D01*
X444782Y296856D01*
X444752Y296632D01*
X444248D01*
X444218Y296856D01*
X444103Y297733D01*
X443627Y298883D01*
X442870Y299869D01*
X441883Y300627D01*
X440733Y301103D01*
X439894Y301213D01*
D02*
G37*
G36*
X439106Y296106D02*
X434787D01*
X434897Y295267D01*
X435373Y294117D01*
X436131Y293130D01*
X437117Y292373D01*
X438267Y291897D01*
X439106Y291787D01*
Y296106D01*
D02*
G37*
G36*
X434224D02*
X429894D01*
Y291776D01*
X434224D01*
Y296106D01*
D02*
G37*
G36*
X429106D02*
X424776D01*
Y291776D01*
X429106D01*
Y296106D01*
D02*
G37*
G36*
X408067Y300181D02*
X398933D01*
Y291047D01*
X408067D01*
Y300181D01*
D02*
G37*
G36*
X373972Y300220D02*
X372780Y300063D01*
X371669Y299603D01*
X370715Y298871D01*
X369983Y297917D01*
X369523Y296806D01*
X369366Y295614D01*
X369523Y294422D01*
X369983Y293311D01*
X370715Y292357D01*
X371669Y291625D01*
X372780Y291165D01*
X373972Y291008D01*
X375165Y291165D01*
X376276Y291625D01*
X377230Y292357D01*
X377962Y293311D01*
X378422Y294422D01*
X378579Y295614D01*
X378422Y296806D01*
X377962Y297917D01*
X377230Y298871D01*
X376276Y299603D01*
X375165Y300063D01*
X373972Y300220D01*
D02*
G37*
G36*
X297945Y315248D02*
X296004Y314993D01*
X294126Y314436D01*
X292359Y313593D01*
X290745Y312484D01*
X289324Y311136D01*
X288132Y309583D01*
X287198Y307862D01*
X286544Y306016D01*
X286187Y304090D01*
X286136Y302133D01*
X286392Y300191D01*
X286948Y298314D01*
X287791Y296546D01*
X288900Y294932D01*
X290248Y293512D01*
X291802Y292320D01*
X293523Y291385D01*
X295369Y290732D01*
X297294Y290375D01*
X299252Y290324D01*
X301193Y290579D01*
X303071Y291135D01*
X304838Y291978D01*
X306452Y293088D01*
X307872Y294436D01*
X309065Y295989D01*
X309999Y297710D01*
X310653Y299556D01*
X311010Y301481D01*
X311061Y303439D01*
X310805Y305381D01*
X310249Y307258D01*
X309406Y309026D01*
X308297Y310639D01*
X306949Y312060D01*
X305395Y313252D01*
X303674Y314186D01*
X301828Y314840D01*
X299903Y315197D01*
X297945Y315248D01*
D02*
G37*
G36*
X478402Y315265D02*
X476449Y315112D01*
X474545Y314654D01*
X472736Y313905D01*
X471066Y312882D01*
X469577Y311610D01*
X468305Y310121D01*
X467282Y308451D01*
X466533Y306642D01*
X466076Y304738D01*
X465922Y302786D01*
X466076Y300834D01*
X466533Y298930D01*
X467282Y297120D01*
X468305Y295451D01*
X469577Y293962D01*
X471066Y292690D01*
X472736Y291667D01*
X474545Y290917D01*
X476449Y290460D01*
X478402Y290306D01*
X480354Y290460D01*
X482258Y290917D01*
X484067Y291667D01*
X485737Y292690D01*
X487226Y293962D01*
X488498Y295451D01*
X489521Y297120D01*
X490270Y298930D01*
X490727Y300834D01*
X490881Y302786D01*
X490727Y304738D01*
X490270Y306642D01*
X489521Y308451D01*
X488498Y310121D01*
X487226Y311610D01*
X485737Y312882D01*
X484067Y313905D01*
X482258Y314654D01*
X480354Y315112D01*
X478402Y315265D01*
D02*
G37*
%LPD*%
G36*
X383285Y620078D02*
X383118Y619879D01*
X382970Y619635D01*
X382839Y619345D01*
X382727Y619009D01*
X382633Y618628D01*
X382557Y618202D01*
X382500Y617730D01*
X382440Y616648D01*
X382437Y616039D01*
X378539Y619937D01*
X379148Y619940D01*
X380702Y620057D01*
X381128Y620133D01*
X381509Y620227D01*
X381845Y620339D01*
X382135Y620470D01*
X382379Y620618D01*
X382578Y620785D01*
X383285Y620078D01*
D02*
G37*
G36*
X374827Y614582D02*
X374776Y614689D01*
X374710Y614786D01*
X374629Y614871D01*
X374534Y614945D01*
X374423Y615007D01*
X374298Y615058D01*
X374158Y615098D01*
X374003Y615126D01*
X373833Y615143D01*
X373649Y615149D01*
Y616149D01*
X373815Y616155D01*
X373967Y616173D01*
X374103Y616202D01*
X374224Y616244D01*
X374330Y616297D01*
X374421Y616363D01*
X374497Y616440D01*
X374558Y616529D01*
X374603Y616630D01*
X374634Y616743D01*
X374827Y614582D01*
D02*
G37*
G36*
X362111Y603404D02*
X362029Y603317D01*
X361955Y603229D01*
X361890Y603141D01*
X361834Y603053D01*
X361786Y602964D01*
X361748Y602874D01*
X361718Y602784D01*
X361697Y602694D01*
X361684Y602603D01*
X361681Y602512D01*
X360512Y603681D01*
X360603Y603685D01*
X360694Y603697D01*
X360784Y603718D01*
X360874Y603748D01*
X360964Y603786D01*
X361053Y603834D01*
X361141Y603890D01*
X361229Y603955D01*
X361317Y604029D01*
X361404Y604111D01*
X362111Y603404D01*
D02*
G37*
G36*
X349785Y586204D02*
X349618Y586005D01*
X349470Y585761D01*
X349339Y585471D01*
X349227Y585136D01*
X349133Y584754D01*
X349057Y584328D01*
X349000Y583855D01*
X348940Y582774D01*
X348937Y582165D01*
X345039Y586063D01*
X345648Y586066D01*
X347202Y586183D01*
X347628Y586259D01*
X348009Y586353D01*
X348345Y586465D01*
X348635Y586596D01*
X348879Y586744D01*
X349078Y586911D01*
X349785Y586204D01*
D02*
G37*
G36*
X514857Y560143D02*
X514955Y560004D01*
X515051Y559887D01*
X515146Y559792D01*
X515239Y559719D01*
X515330Y559668D01*
X515421Y559640D01*
X515510Y559633D01*
X515597Y559650D01*
X515683Y559688D01*
X513978Y558703D01*
X514054Y558759D01*
X514112Y558826D01*
X514151Y558907D01*
X514171Y558999D01*
X514173Y559104D01*
X514157Y559221D01*
X514122Y559350D01*
X514069Y559492D01*
X513997Y559646D01*
X513906Y559812D01*
X514759Y560304D01*
X514857Y560143D01*
D02*
G37*
G36*
X524899Y552271D02*
X524797Y552033D01*
X524726Y551757D01*
X524685Y551442D01*
X524675Y551089D01*
X524696Y550696D01*
X524747Y550265D01*
X524829Y549796D01*
X525084Y548740D01*
X525258Y548154D01*
X520402Y550762D01*
X520986Y550940D01*
X522444Y551502D01*
X522831Y551697D01*
X523170Y551897D01*
X523459Y552101D01*
X523699Y552308D01*
X523890Y552520D01*
X524031Y552736D01*
X524899Y552271D01*
D02*
G37*
G36*
X368474Y587941D02*
X368354Y587932D01*
X368225Y587902D01*
X368086Y587851D01*
X367939Y587780D01*
X367782Y587687D01*
X367617Y587574D01*
X367442Y587441D01*
X367066Y587111D01*
X366864Y586915D01*
X364915Y588864D01*
X365111Y589066D01*
X365575Y589617D01*
X365687Y589782D01*
X365780Y589939D01*
X365851Y590086D01*
X365902Y590225D01*
X365932Y590354D01*
X365941Y590474D01*
X368474Y587941D01*
D02*
G37*
G36*
X348700Y573511D02*
X348743Y573510D01*
X350126Y573504D01*
Y570748D01*
X348685Y570739D01*
Y573513D01*
X348700Y573511D01*
D02*
G37*
G36*
X317940Y591478D02*
X318057Y589924D01*
X318133Y589498D01*
X318227Y589116D01*
X318339Y588781D01*
X318470Y588491D01*
X318618Y588247D01*
X318785Y588048D01*
X318078Y587341D01*
X317879Y587508D01*
X317635Y587656D01*
X317345Y587787D01*
X317009Y587899D01*
X316628Y587993D01*
X316202Y588069D01*
X315729Y588126D01*
X314648Y588186D01*
X314039Y588189D01*
X317937Y592087D01*
X317940Y591478D01*
D02*
G37*
G36*
X322683Y584155D02*
X322771Y584081D01*
X322859Y584016D01*
X322947Y583960D01*
X323036Y583912D01*
X323126Y583874D01*
X323216Y583844D01*
X323306Y583823D01*
X323397Y583811D01*
X323488Y583807D01*
X322319Y582638D01*
X322316Y582729D01*
X322303Y582820D01*
X322282Y582910D01*
X322252Y583000D01*
X322214Y583090D01*
X322166Y583179D01*
X322110Y583267D01*
X322045Y583355D01*
X321971Y583443D01*
X321889Y583530D01*
X322596Y584237D01*
X322683Y584155D01*
D02*
G37*
G36*
X470183Y581529D02*
X470271Y581455D01*
X470359Y581390D01*
X470447Y581334D01*
X470536Y581286D01*
X470626Y581248D01*
X470716Y581218D01*
X470806Y581197D01*
X470897Y581184D01*
X470988Y581181D01*
X469819Y580012D01*
X469815Y580103D01*
X469803Y580194D01*
X469782Y580284D01*
X469752Y580374D01*
X469714Y580464D01*
X469666Y580553D01*
X469610Y580641D01*
X469545Y580729D01*
X469471Y580817D01*
X469389Y580904D01*
X470096Y581611D01*
X470183Y581529D01*
D02*
G37*
G36*
X463744Y584453D02*
X464926Y583438D01*
X465281Y583190D01*
X465617Y582987D01*
X465934Y582829D01*
X466231Y582716D01*
X466509Y582649D01*
X466767Y582626D01*
Y581626D01*
X466509Y581603D01*
X466231Y581536D01*
X465934Y581423D01*
X465617Y581265D01*
X465281Y581062D01*
X464926Y580814D01*
X464551Y580521D01*
X463744Y579799D01*
X463312Y579370D01*
Y584882D01*
X463744Y584453D01*
D02*
G37*
G36*
X292548Y590834D02*
X292592Y590728D01*
X292655Y590610D01*
X292738Y590480D01*
X292840Y590338D01*
X293104Y590017D01*
X293445Y589647D01*
X293645Y589443D01*
X292118Y587073D01*
X291916Y587267D01*
X291538Y587587D01*
X291361Y587713D01*
X291193Y587816D01*
X291033Y587895D01*
X290882Y587952D01*
X290739Y587986D01*
X290604Y587998D01*
X290477Y587986D01*
X292523Y590927D01*
X292548Y590834D01*
D02*
G37*
G36*
X310309Y570756D02*
X310262Y570841D01*
X310186Y570918D01*
X310081Y570985D01*
X309948Y571044D01*
X309787Y571093D01*
X309598Y571134D01*
X309380Y571165D01*
X309133Y571188D01*
X308556Y571206D01*
Y573962D01*
X308926Y573965D01*
X310066Y574049D01*
X310266Y574087D01*
X310432Y574133D01*
X310564Y574185D01*
X310662Y574245D01*
X310725Y574311D01*
X310309Y570756D01*
D02*
G37*
G36*
X433451Y592300D02*
X433507Y592090D01*
X433582Y591905D01*
X433677Y591744D01*
X433792Y591608D01*
X433927Y591497D01*
X434081Y591411D01*
X434256Y591349D01*
X434450Y591312D01*
X434664Y591300D01*
Y590316D01*
X434387Y590306D01*
X434119Y590276D01*
X433860Y590228D01*
X433609Y590159D01*
X433366Y590071D01*
X433132Y589964D01*
X432906Y589837D01*
X432689Y589690D01*
X432480Y589524D01*
X432280Y589338D01*
X433416Y592535D01*
X433451Y592300D01*
D02*
G37*
G36*
X446910Y564765D02*
X446983Y564709D01*
X447062Y564660D01*
X447147Y564618D01*
X447237Y564582D01*
X447334Y564552D01*
X447436Y564529D01*
X447544Y564513D01*
X447659Y564503D01*
X447779Y564500D01*
Y563500D01*
X447659Y563497D01*
X447544Y563487D01*
X447436Y563471D01*
X447334Y563448D01*
X447237Y563418D01*
X447147Y563382D01*
X447062Y563340D01*
X446983Y563291D01*
X446910Y563235D01*
X446843Y563173D01*
Y564827D01*
X446910Y564765D01*
D02*
G37*
G36*
X463737Y561048D02*
X464006Y560802D01*
X464288Y560586D01*
X464584Y560398D01*
X464892Y560239D01*
X465214Y560109D01*
X465550Y560008D01*
X465898Y559936D01*
X466260Y559892D01*
X466635Y559878D01*
X466446Y557122D01*
X466077Y557109D01*
X465716Y557070D01*
X465364Y557005D01*
X465019Y556914D01*
X464684Y556797D01*
X464356Y556654D01*
X464037Y556485D01*
X463726Y556290D01*
X463424Y556069D01*
X463130Y555821D01*
X463482Y561322D01*
X463737Y561048D01*
D02*
G37*
G36*
X483066Y549889D02*
X483617Y549426D01*
X483782Y549312D01*
X483939Y549220D01*
X484086Y549149D01*
X484225Y549098D01*
X484354Y549068D01*
X484474Y549059D01*
X481941Y546526D01*
X481932Y546646D01*
X481902Y546775D01*
X481851Y546914D01*
X481780Y547061D01*
X481687Y547218D01*
X481574Y547383D01*
X481441Y547558D01*
X481111Y547934D01*
X480915Y548136D01*
X482864Y550085D01*
X483066Y549889D01*
D02*
G37*
G36*
X523316Y536004D02*
X522950Y536493D01*
X521927Y537674D01*
X521612Y537972D01*
X521309Y538222D01*
X521019Y538425D01*
X520742Y538580D01*
X520478Y538688D01*
X520227Y538748D01*
X520370Y539722D01*
X520628Y539707D01*
X520912Y539733D01*
X521222Y539802D01*
X521558Y539913D01*
X521920Y540065D01*
X522308Y540260D01*
X522722Y540496D01*
X523628Y541095D01*
X524121Y541457D01*
X523316Y536004D01*
D02*
G37*
G36*
X528688Y526904D02*
X528256Y527333D01*
X527074Y528348D01*
X526719Y528596D01*
X526383Y528799D01*
X526066Y528957D01*
X525769Y529070D01*
X525491Y529138D01*
X525233Y529160D01*
Y530160D01*
X525491Y530183D01*
X525769Y530251D01*
X526066Y530363D01*
X526383Y530521D01*
X526719Y530724D01*
X527074Y530972D01*
X527449Y531266D01*
X528256Y531987D01*
X528688Y532416D01*
Y526904D01*
D02*
G37*
G36*
X464477Y539249D02*
X465679Y536128D01*
X465795Y535937D01*
X465897Y535810D01*
X465426Y534867D01*
X465201Y535057D01*
X464944Y535209D01*
X464657Y535322D01*
X464338Y535396D01*
X463988Y535431D01*
X463608Y535428D01*
X463196Y535385D01*
X462753Y535304D01*
X462279Y535184D01*
X461774Y535026D01*
X464250Y539950D01*
X464477Y539249D01*
D02*
G37*
G36*
X467683Y534029D02*
X467771Y533955D01*
X467859Y533890D01*
X467947Y533834D01*
X468036Y533786D01*
X468126Y533748D01*
X468216Y533718D01*
X468306Y533697D01*
X468397Y533684D01*
X468488Y533681D01*
X467319Y532512D01*
X467315Y532603D01*
X467303Y532694D01*
X467282Y532784D01*
X467252Y532874D01*
X467214Y532964D01*
X467166Y533053D01*
X467110Y533141D01*
X467045Y533229D01*
X466971Y533317D01*
X466889Y533404D01*
X467596Y534111D01*
X467683Y534029D01*
D02*
G37*
G36*
X359406Y528000D02*
X359396Y528095D01*
X359365Y528180D01*
X359315Y528255D01*
X359244Y528320D01*
X359153Y528375D01*
X359042Y528420D01*
X358910Y528455D01*
X358758Y528480D01*
X358586Y528495D01*
X358394Y528500D01*
Y529500D01*
X358586Y529505D01*
X358758Y529520D01*
X358910Y529545D01*
X359042Y529580D01*
X359153Y529625D01*
X359244Y529680D01*
X359315Y529745D01*
X359365Y529820D01*
X359396Y529905D01*
X359406Y530000D01*
Y528000D01*
D02*
G37*
G36*
X361665Y526443D02*
X361580Y526413D01*
X361505Y526362D01*
X361440Y526291D01*
X361385Y526200D01*
X361340Y526089D01*
X361305Y525957D01*
X361280Y525805D01*
X361265Y525633D01*
X361262Y525514D01*
X361265Y525396D01*
X361280Y525226D01*
X361305Y525076D01*
X361340Y524946D01*
X361385Y524836D01*
X361440Y524746D01*
X361505Y524676D01*
X361580Y524626D01*
X361665Y524596D01*
X361760Y524586D01*
X359760D01*
X359855Y524596D01*
X359940Y524626D01*
X360015Y524676D01*
X360080Y524746D01*
X360135Y524836D01*
X360180Y524946D01*
X360215Y525076D01*
X360240Y525226D01*
X360255Y525396D01*
X360258Y525514D01*
X360255Y525633D01*
X360240Y525805D01*
X360215Y525957D01*
X360180Y526089D01*
X360135Y526200D01*
X360080Y526291D01*
X360015Y526362D01*
X359940Y526413D01*
X359855Y526443D01*
X359760Y526453D01*
X361760D01*
X361665Y526443D01*
D02*
G37*
G36*
X361263Y523698D02*
X361273Y523584D01*
X361289Y523476D01*
X361312Y523373D01*
X361342Y523277D01*
X361378Y523186D01*
X361420Y523102D01*
X361469Y523023D01*
X361525Y522950D01*
X361587Y522883D01*
X359933D01*
X359995Y522950D01*
X360051Y523023D01*
X360100Y523102D01*
X360142Y523186D01*
X360178Y523277D01*
X360208Y523373D01*
X360230Y523476D01*
X360247Y523584D01*
X360257Y523698D01*
X360260Y523818D01*
X361260D01*
X361263Y523698D01*
D02*
G37*
G36*
X330411Y523765D02*
X330483Y523709D01*
X330562Y523660D01*
X330647Y523618D01*
X330737Y523582D01*
X330834Y523552D01*
X330936Y523529D01*
X331045Y523513D01*
X331159Y523503D01*
X331279Y523500D01*
Y522500D01*
X331159Y522497D01*
X331045Y522487D01*
X330936Y522471D01*
X330834Y522448D01*
X330737Y522418D01*
X330647Y522382D01*
X330562Y522340D01*
X330483Y522291D01*
X330411Y522235D01*
X330344Y522173D01*
Y523827D01*
X330411Y523765D01*
D02*
G37*
G36*
X333539Y521056D02*
X333612Y521032D01*
X333692Y521011D01*
X333869Y520978D01*
X333967Y520965D01*
X334298Y520944D01*
X334420Y520943D01*
X334888Y519943D01*
X334766Y519939D01*
X334653Y519927D01*
X334550Y519908D01*
X334456Y519880D01*
X334372Y519845D01*
X334297Y519801D01*
X334232Y519750D01*
X334176Y519691D01*
X334129Y519625D01*
X334092Y519550D01*
X333472Y521083D01*
X333539Y521056D01*
D02*
G37*
G36*
X348087Y517870D02*
X348373Y517636D01*
X348670Y517429D01*
X348978Y517250D01*
X349297Y517098D01*
X349626Y516974D01*
X349966Y516878D01*
X350317Y516809D01*
X350678Y516768D01*
X351050Y516754D01*
Y513998D01*
X350678Y513984D01*
X350317Y513943D01*
X349966Y513874D01*
X349626Y513777D01*
X349297Y513654D01*
X348978Y513502D01*
X348670Y513323D01*
X348373Y513116D01*
X348087Y512882D01*
X347812Y512620D01*
Y518132D01*
X348087Y517870D01*
D02*
G37*
G36*
X348940Y504728D02*
X349057Y503174D01*
X349133Y502747D01*
X349227Y502366D01*
X349339Y502031D01*
X349470Y501741D01*
X349618Y501497D01*
X349785Y501298D01*
X349078Y500591D01*
X348879Y500758D01*
X348635Y500906D01*
X348345Y501037D01*
X348009Y501149D01*
X347628Y501243D01*
X347202Y501319D01*
X346729Y501376D01*
X345648Y501436D01*
X345039Y501439D01*
X348937Y505337D01*
X348940Y504728D01*
D02*
G37*
G36*
X370046Y493798D02*
X369633Y493317D01*
X369465Y493086D01*
X369323Y492861D01*
X369207Y492642D01*
X369116Y492430D01*
X369052Y492224D01*
X369013Y492024D01*
X369000Y491831D01*
X368000D01*
X367987Y492024D01*
X367948Y492224D01*
X367884Y492430D01*
X367793Y492642D01*
X367677Y492861D01*
X367535Y493086D01*
X367367Y493317D01*
X367174Y493555D01*
X366709Y494048D01*
X370291D01*
X370046Y493798D01*
D02*
G37*
G36*
X348798Y494157D02*
X348719Y493151D01*
X348723Y492705D01*
X348757Y492298D01*
X348821Y491929D01*
X348914Y491599D01*
X349036Y491307D01*
X349187Y491054D01*
X349369Y490839D01*
X348548Y490245D01*
X348375Y490389D01*
X348149Y490528D01*
X347869Y490663D01*
X347537Y490794D01*
X347150Y490919D01*
X346218Y491158D01*
X345072Y491378D01*
X344420Y491482D01*
X348882Y494718D01*
X348798Y494157D01*
D02*
G37*
G36*
X379890Y478232D02*
X379925Y477764D01*
X379983Y477350D01*
X380065Y476992D01*
X380170Y476689D01*
X380299Y476441D01*
X380451Y476248D01*
X380626Y476110D01*
X380825Y476027D01*
X381047Y476000D01*
X375953D01*
X376175Y476027D01*
X376374Y476110D01*
X376549Y476248D01*
X376701Y476441D01*
X376830Y476689D01*
X376935Y476992D01*
X377017Y477350D01*
X377075Y477764D01*
X377110Y478232D01*
X377122Y478756D01*
X379878D01*
X379890Y478232D01*
D02*
G37*
G36*
X357966Y476807D02*
X357981Y476636D01*
X358006Y476484D01*
X358041Y476352D01*
X358086Y476241D01*
X358141Y476150D01*
X358206Y476079D01*
X358281Y476028D01*
X358366Y475998D01*
X358461Y475988D01*
X356461D01*
X356556Y475998D01*
X356641Y476028D01*
X356716Y476079D01*
X356781Y476150D01*
X356836Y476241D01*
X356881Y476352D01*
X356916Y476484D01*
X356941Y476636D01*
X356956Y476807D01*
X356961Y477000D01*
X357961D01*
X357966Y476807D01*
D02*
G37*
G36*
X361965Y473240D02*
X361955Y473335D01*
X361925Y473420D01*
X361875Y473495D01*
X361805Y473560D01*
X361715Y473615D01*
X361605Y473660D01*
X361475Y473695D01*
X361325Y473720D01*
X361155Y473735D01*
X360986Y473740D01*
X360815Y473735D01*
X360643Y473720D01*
X360492Y473695D01*
X360360Y473660D01*
X360249Y473615D01*
X360158Y473560D01*
X360087Y473495D01*
X360036Y473420D01*
X360006Y473335D01*
X359996Y473240D01*
Y475240D01*
X360006Y475145D01*
X360036Y475060D01*
X360087Y474985D01*
X360158Y474920D01*
X360249Y474865D01*
X360360Y474820D01*
X360492Y474785D01*
X360643Y474760D01*
X360815Y474745D01*
X360986Y474741D01*
X361155Y474745D01*
X361325Y474760D01*
X361475Y474785D01*
X361605Y474820D01*
X361715Y474865D01*
X361805Y474920D01*
X361875Y474985D01*
X361925Y475060D01*
X361955Y475145D01*
X361965Y475240D01*
Y473240D01*
D02*
G37*
G36*
X369121Y476159D02*
X369692Y475666D01*
X369764Y475623D01*
X369822Y475599D01*
X369865Y475593D01*
X369894Y475606D01*
X368965Y474677D01*
X368978Y474706D01*
X368972Y474749D01*
X368948Y474807D01*
X368905Y474879D01*
X368844Y474965D01*
X368764Y475065D01*
X368548Y475307D01*
X368258Y475606D01*
X368965Y476313D01*
X369121Y476159D01*
D02*
G37*
G36*
X381075Y475927D02*
X381157Y475862D01*
X381295Y475805D01*
X381488Y475756D01*
X381736Y475713D01*
X382039Y475679D01*
X382811Y475633D01*
X383803Y475618D01*
Y472862D01*
X383279Y472858D01*
X381488Y472725D01*
X381295Y472675D01*
X381157Y472618D01*
X381075Y472553D01*
X381047Y472480D01*
Y476000D01*
X381075Y475927D01*
D02*
G37*
G36*
X366991Y474212D02*
X366964Y474121D01*
X366966Y474015D01*
X366995Y473895D01*
X367053Y473761D01*
X367139Y473612D01*
X367253Y473450D01*
X367396Y473272D01*
X367766Y472874D01*
X367059Y472167D01*
X366853Y472366D01*
X366484Y472680D01*
X366321Y472794D01*
X366172Y472880D01*
X366038Y472938D01*
X365918Y472967D01*
X365812Y472969D01*
X365721Y472942D01*
X365645Y472886D01*
X367047Y474288D01*
X366991Y474212D01*
D02*
G37*
G36*
X393656Y469673D02*
X393589Y469735D01*
X393517Y469791D01*
X393438Y469840D01*
X393353Y469882D01*
X393263Y469918D01*
X393166Y469948D01*
X393064Y469971D01*
X392955Y469987D01*
X392841Y469997D01*
X392721Y470000D01*
Y471000D01*
X392841Y471003D01*
X392955Y471013D01*
X393064Y471029D01*
X393166Y471052D01*
X393263Y471082D01*
X393353Y471118D01*
X393438Y471160D01*
X393517Y471209D01*
X393589Y471265D01*
X393656Y471327D01*
Y469673D01*
D02*
G37*
G36*
X368965Y465760D02*
X368955Y465855D01*
X368925Y465940D01*
X368875Y466015D01*
X368805Y466080D01*
X368715Y466135D01*
X368605Y466180D01*
X368475Y466215D01*
X368325Y466240D01*
X368155Y466255D01*
X368011Y466259D01*
X367867Y466255D01*
X367694Y466240D01*
X367543Y466215D01*
X367411Y466180D01*
X367300Y466135D01*
X367209Y466080D01*
X367138Y466015D01*
X367087Y465940D01*
X367057Y465855D01*
X367047Y465760D01*
Y467760D01*
X367057Y467665D01*
X367087Y467580D01*
X367138Y467505D01*
X367209Y467440D01*
X367300Y467385D01*
X367411Y467340D01*
X367543Y467305D01*
X367694Y467280D01*
X367867Y467265D01*
X368011Y467261D01*
X368155Y467265D01*
X368325Y467280D01*
X368475Y467305D01*
X368605Y467340D01*
X368715Y467385D01*
X368805Y467440D01*
X368875Y467505D01*
X368925Y467580D01*
X368955Y467665D01*
X368965Y467760D01*
Y465760D01*
D02*
G37*
G36*
X361965D02*
X361955Y465855D01*
X361925Y465940D01*
X361875Y466015D01*
X361805Y466080D01*
X361715Y466135D01*
X361605Y466180D01*
X361475Y466215D01*
X361325Y466240D01*
X361155Y466255D01*
X360986Y466259D01*
X360815Y466255D01*
X360643Y466240D01*
X360492Y466215D01*
X360360Y466180D01*
X360249Y466135D01*
X360158Y466080D01*
X360087Y466015D01*
X360036Y465940D01*
X360006Y465855D01*
X359996Y465760D01*
Y467760D01*
X360006Y467665D01*
X360036Y467580D01*
X360087Y467505D01*
X360158Y467440D01*
X360249Y467385D01*
X360360Y467340D01*
X360492Y467305D01*
X360643Y467280D01*
X360815Y467265D01*
X360986Y467260D01*
X361155Y467265D01*
X361325Y467280D01*
X361475Y467305D01*
X361605Y467340D01*
X361715Y467385D01*
X361805Y467440D01*
X361875Y467505D01*
X361925Y467580D01*
X361955Y467665D01*
X361965Y467760D01*
Y465760D01*
D02*
G37*
G36*
X355119Y469029D02*
X355486Y468717D01*
X355649Y468604D01*
X355797Y468519D01*
X355932Y468463D01*
X356052Y468435D01*
X356158D01*
X356250Y468463D01*
X356328Y468519D01*
X354914Y467105D01*
X354970Y467183D01*
X354998Y467275D01*
Y467381D01*
X354970Y467501D01*
X354914Y467636D01*
X354829Y467784D01*
X354716Y467947D01*
X354574Y468123D01*
X354206Y468519D01*
X354914Y469227D01*
X355119Y469029D01*
D02*
G37*
G36*
X436566Y442082D02*
X437117Y441618D01*
X437282Y441505D01*
X437439Y441413D01*
X437586Y441342D01*
X437725Y441291D01*
X437854Y441261D01*
X437974Y441252D01*
X435441Y438719D01*
X435432Y438839D01*
X435402Y438968D01*
X435351Y439107D01*
X435280Y439254D01*
X435187Y439410D01*
X435075Y439576D01*
X434941Y439751D01*
X434611Y440127D01*
X434415Y440329D01*
X436364Y442278D01*
X436566Y442082D01*
D02*
G37*
G36*
X444910Y522765D02*
X444983Y522709D01*
X445062Y522660D01*
X445147Y522618D01*
X445237Y522582D01*
X445334Y522552D01*
X445436Y522529D01*
X445544Y522513D01*
X445659Y522503D01*
X445779Y522500D01*
Y521500D01*
X445659Y521497D01*
X445544Y521487D01*
X445436Y521471D01*
X445334Y521448D01*
X445237Y521418D01*
X445147Y521382D01*
X445062Y521340D01*
X444983Y521291D01*
X444910Y521235D01*
X444843Y521173D01*
Y522827D01*
X444910Y522765D01*
D02*
G37*
G36*
X533081Y519049D02*
X532800Y519514D01*
X532237Y520299D01*
X531953Y520617D01*
X531669Y520887D01*
X531384Y521108D01*
X531098Y521279D01*
X530810Y521402D01*
X530522Y521476D01*
X530233Y521500D01*
X530498Y522500D01*
X530688Y522519D01*
X530925Y522575D01*
X531208Y522669D01*
X531537Y522801D01*
X532333Y523177D01*
X533875Y524022D01*
X534481Y524380D01*
X533081Y519049D01*
D02*
G37*
G36*
X326386Y543469D02*
X326313Y543421D01*
X326247Y543366D01*
X326189Y543302D01*
X326139Y543230D01*
X326097Y543150D01*
X326062Y543061D01*
X326035Y542965D01*
X326015Y542860D01*
X326004Y542747D01*
X326000Y542626D01*
X325000Y542933D01*
X324998Y543053D01*
X324981Y543278D01*
X324967Y543383D01*
X324925Y543577D01*
X324898Y543667D01*
X324866Y543751D01*
X324831Y543830D01*
X324791Y543904D01*
X326386Y543469D01*
D02*
G37*
G36*
X326003Y518659D02*
X326013Y518544D01*
X326029Y518436D01*
X326052Y518334D01*
X326082Y518237D01*
X326118Y518147D01*
X326160Y518062D01*
X326209Y517983D01*
X326265Y517910D01*
X326327Y517843D01*
X324673D01*
X324735Y517910D01*
X324791Y517983D01*
X324840Y518062D01*
X324882Y518147D01*
X324918Y518237D01*
X324948Y518334D01*
X324971Y518436D01*
X324987Y518544D01*
X324997Y518659D01*
X325000Y518779D01*
X326000D01*
X326003Y518659D01*
D02*
G37*
G36*
X313961Y511439D02*
X313352Y511436D01*
X311798Y511319D01*
X311372Y511243D01*
X310991Y511149D01*
X310655Y511037D01*
X310365Y510906D01*
X310121Y510758D01*
X309922Y510591D01*
X309215Y511298D01*
X309382Y511497D01*
X309530Y511741D01*
X309661Y512031D01*
X309773Y512366D01*
X309867Y512747D01*
X309943Y513174D01*
X310000Y513647D01*
X310060Y514728D01*
X310063Y515337D01*
X313961Y511439D01*
D02*
G37*
G36*
Y501439D02*
X313352Y501436D01*
X311798Y501319D01*
X311372Y501243D01*
X310991Y501149D01*
X310655Y501037D01*
X310365Y500906D01*
X310121Y500758D01*
X309922Y500591D01*
X309215Y501298D01*
X309382Y501497D01*
X309530Y501741D01*
X309661Y502031D01*
X309773Y502366D01*
X309867Y502747D01*
X309943Y503174D01*
X310000Y503647D01*
X310060Y504728D01*
X310063Y505337D01*
X313961Y501439D01*
D02*
G37*
G36*
X313520Y491468D02*
X312944Y491528D01*
X311915Y491569D01*
X311461Y491550D01*
X311048Y491504D01*
X310675Y491433D01*
X310342Y491334D01*
X310050Y491209D01*
X309799Y491058D01*
X309588Y490880D01*
X308961Y491668D01*
X309113Y491850D01*
X309256Y492082D01*
X309390Y492366D01*
X309515Y492700D01*
X309632Y493086D01*
X309839Y494010D01*
X309929Y494548D01*
X310084Y495778D01*
X313520Y491468D01*
D02*
G37*
G36*
X302266Y480136D02*
X302065Y479928D01*
X301750Y479558D01*
X301635Y479394D01*
X301549Y479245D01*
X301491Y479111D01*
X301463Y478992D01*
X301462Y478887D01*
X301490Y478797D01*
X301547Y478722D01*
X300115Y480094D01*
X300193Y480040D01*
X300285Y480014D01*
X300391Y480016D01*
X300511Y480046D01*
X300646Y480104D01*
X300794Y480190D01*
X300957Y480304D01*
X301133Y480445D01*
X301529Y480813D01*
X302266Y480136D01*
D02*
G37*
G36*
X296465Y477740D02*
X296455Y477835D01*
X296425Y477920D01*
X296375Y477995D01*
X296305Y478060D01*
X296215Y478115D01*
X296105Y478160D01*
X295975Y478195D01*
X295825Y478220D01*
X295655Y478235D01*
X295465Y478240D01*
Y479240D01*
X295655Y479245D01*
X295825Y479260D01*
X295975Y479285D01*
X296105Y479320D01*
X296215Y479365D01*
X296305Y479420D01*
X296375Y479485D01*
X296425Y479560D01*
X296455Y479645D01*
X296465Y479740D01*
Y477740D01*
D02*
G37*
G36*
X293006Y479645D02*
X293036Y479560D01*
X293087Y479485D01*
X293158Y479420D01*
X293249Y479365D01*
X293360Y479320D01*
X293492Y479285D01*
X293643Y479260D01*
X293815Y479245D01*
X294008Y479240D01*
Y478240D01*
X293815Y478235D01*
X293643Y478220D01*
X293492Y478195D01*
X293360Y478160D01*
X293249Y478115D01*
X293158Y478060D01*
X293087Y477995D01*
X293036Y477920D01*
X293006Y477835D01*
X292996Y477740D01*
Y479740D01*
X293006Y479645D01*
D02*
G37*
G36*
X302266Y472626D02*
X302067Y472420D01*
X301753Y472051D01*
X301639Y471887D01*
X301553Y471739D01*
X301495Y471605D01*
X301466Y471485D01*
X301464Y471379D01*
X301491Y471288D01*
X301547Y471212D01*
X300145Y472614D01*
X300221Y472558D01*
X300312Y472531D01*
X300418Y472533D01*
X300538Y472562D01*
X300672Y472620D01*
X300821Y472706D01*
X300984Y472820D01*
X301161Y472963D01*
X301559Y473333D01*
X302266Y472626D01*
D02*
G37*
G36*
X296465Y470260D02*
X296455Y470355D01*
X296425Y470440D01*
X296375Y470515D01*
X296305Y470580D01*
X296215Y470635D01*
X296105Y470680D01*
X295975Y470715D01*
X295825Y470740D01*
X295655Y470755D01*
X295465Y470760D01*
Y471760D01*
X295655Y471765D01*
X295825Y471780D01*
X295975Y471805D01*
X296105Y471840D01*
X296215Y471885D01*
X296305Y471940D01*
X296375Y472005D01*
X296425Y472080D01*
X296455Y472165D01*
X296465Y472260D01*
Y470260D01*
D02*
G37*
G36*
X293006Y472165D02*
X293036Y472080D01*
X293087Y472005D01*
X293158Y471940D01*
X293249Y471885D01*
X293360Y471840D01*
X293492Y471805D01*
X293643Y471780D01*
X293815Y471765D01*
X294008Y471760D01*
Y470760D01*
X293815Y470755D01*
X293643Y470740D01*
X293492Y470715D01*
X293360Y470680D01*
X293249Y470635D01*
X293158Y470580D01*
X293087Y470515D01*
X293036Y470440D01*
X293006Y470355D01*
X292996Y470260D01*
Y472260D01*
X293006Y472165D01*
D02*
G37*
G36*
X287914Y470260D02*
X287904Y470355D01*
X287874Y470440D01*
X287824Y470515D01*
X287754Y470580D01*
X287664Y470635D01*
X287554Y470680D01*
X287424Y470715D01*
X287274Y470740D01*
X287104Y470755D01*
X286914Y470760D01*
Y471760D01*
X287104Y471765D01*
X287274Y471780D01*
X287424Y471805D01*
X287554Y471840D01*
X287664Y471885D01*
X287754Y471940D01*
X287824Y472005D01*
X287874Y472080D01*
X287904Y472165D01*
X287914Y472260D01*
Y470260D01*
D02*
G37*
G36*
X284045Y472165D02*
X284075Y472080D01*
X284125Y472005D01*
X284195Y471940D01*
X284285Y471885D01*
X284395Y471840D01*
X284525Y471805D01*
X284675Y471780D01*
X284845Y471765D01*
X285035Y471760D01*
Y470760D01*
X284845Y470755D01*
X284675Y470740D01*
X284525Y470715D01*
X284395Y470680D01*
X284285Y470635D01*
X284195Y470580D01*
X284125Y470515D01*
X284075Y470440D01*
X284045Y470355D01*
X284035Y470260D01*
Y472260D01*
X284045Y472165D01*
D02*
G37*
G36*
X301766Y464106D02*
X301567Y463900D01*
X301253Y463531D01*
X301139Y463368D01*
X301053Y463219D01*
X300995Y463085D01*
X300966Y462965D01*
X300964Y462860D01*
X300992Y462769D01*
X301047Y462692D01*
X299645Y464094D01*
X299721Y464039D01*
X299812Y464012D01*
X299918Y464013D01*
X300038Y464042D01*
X300172Y464100D01*
X300321Y464186D01*
X300484Y464300D01*
X300661Y464443D01*
X301059Y464813D01*
X301766Y464106D01*
D02*
G37*
G36*
X295965Y461740D02*
X295955Y461835D01*
X295925Y461920D01*
X295875Y461995D01*
X295805Y462060D01*
X295715Y462115D01*
X295605Y462160D01*
X295475Y462195D01*
X295325Y462220D01*
X295155Y462235D01*
X294965Y462240D01*
Y463240D01*
X295155Y463245D01*
X295325Y463260D01*
X295475Y463285D01*
X295605Y463320D01*
X295715Y463365D01*
X295805Y463420D01*
X295875Y463485D01*
X295925Y463560D01*
X295955Y463645D01*
X295965Y463740D01*
Y461740D01*
D02*
G37*
G36*
X292596Y463645D02*
X292626Y463560D01*
X292676Y463485D01*
X292746Y463420D01*
X292836Y463365D01*
X292946Y463320D01*
X293076Y463285D01*
X293226Y463260D01*
X293396Y463245D01*
X293586Y463240D01*
Y462240D01*
X293396Y462235D01*
X293226Y462220D01*
X293076Y462195D01*
X292946Y462160D01*
X292836Y462115D01*
X292746Y462060D01*
X292676Y461995D01*
X292626Y461920D01*
X292596Y461835D01*
X292586Y461740D01*
Y463740D01*
X292596Y463645D01*
D02*
G37*
G36*
X287504Y461740D02*
X287494Y461835D01*
X287464Y461920D01*
X287413Y461995D01*
X287342Y462060D01*
X287251Y462115D01*
X287140Y462160D01*
X287008Y462195D01*
X286857Y462220D01*
X286685Y462235D01*
X286492Y462240D01*
Y463240D01*
X286685Y463245D01*
X286857Y463260D01*
X287008Y463285D01*
X287140Y463320D01*
X287251Y463365D01*
X287342Y463420D01*
X287413Y463485D01*
X287464Y463560D01*
X287494Y463645D01*
X287504Y463740D01*
Y461740D01*
D02*
G37*
G36*
X283045Y463645D02*
X283075Y463560D01*
X283125Y463485D01*
X283195Y463420D01*
X283285Y463365D01*
X283395Y463320D01*
X283525Y463285D01*
X283675Y463260D01*
X283845Y463245D01*
X284035Y463240D01*
Y462240D01*
X283845Y462235D01*
X283675Y462220D01*
X283525Y462195D01*
X283395Y462160D01*
X283285Y462115D01*
X283195Y462060D01*
X283125Y461995D01*
X283075Y461920D01*
X283045Y461835D01*
X283035Y461740D01*
Y463740D01*
X283045Y463645D01*
D02*
G37*
G36*
X289974Y502315D02*
X289624Y502312D01*
X288992Y502264D01*
X288709Y502219D01*
X288450Y502160D01*
X288213Y502088D01*
X287999Y502002D01*
X287808Y501902D01*
X287639Y501788D01*
X287493Y501660D01*
X286786Y502367D01*
X286914Y502513D01*
X287028Y502682D01*
X287128Y502873D01*
X287214Y503087D01*
X287286Y503324D01*
X287345Y503583D01*
X287390Y503866D01*
X287421Y504171D01*
X287441Y504848D01*
X289974Y502315D01*
D02*
G37*
G36*
X264265Y483590D02*
X264209Y483517D01*
X264160Y483438D01*
X264118Y483353D01*
X264082Y483263D01*
X264052Y483166D01*
X264029Y483064D01*
X264013Y482956D01*
X264003Y482841D01*
X264000Y482721D01*
X263000D01*
X262997Y482841D01*
X262987Y482956D01*
X262971Y483064D01*
X262948Y483166D01*
X262918Y483263D01*
X262882Y483353D01*
X262840Y483438D01*
X262791Y483517D01*
X262735Y483590D01*
X262673Y483657D01*
X264327D01*
X264265Y483590D01*
D02*
G37*
G36*
X273544Y481808D02*
X273559Y481636D01*
X273584Y481484D01*
X273619Y481352D01*
X273664Y481241D01*
X273719Y481150D01*
X273784Y481079D01*
X273859Y481028D01*
X273944Y480998D01*
X274039Y480988D01*
X272039D01*
X272134Y480998D01*
X272219Y481028D01*
X272294Y481079D01*
X272359Y481150D01*
X272414Y481241D01*
X272459Y481352D01*
X272494Y481484D01*
X272519Y481636D01*
X272534Y481808D01*
X272539Y482000D01*
X273539D01*
X273544Y481808D01*
D02*
G37*
G36*
X264005Y481414D02*
X264020Y481242D01*
X264045Y481090D01*
X264080Y480958D01*
X264125Y480847D01*
X264180Y480756D01*
X264245Y480685D01*
X264320Y480635D01*
X264405Y480604D01*
X264500Y480594D01*
X262500D01*
X262595Y480604D01*
X262680Y480635D01*
X262755Y480685D01*
X262820Y480756D01*
X262875Y480847D01*
X262920Y480958D01*
X262955Y481090D01*
X262980Y481242D01*
X262995Y481414D01*
X263000Y481606D01*
X264000D01*
X264005Y481414D01*
D02*
G37*
G36*
X270504Y478240D02*
X270494Y478335D01*
X270464Y478420D01*
X270413Y478495D01*
X270342Y478560D01*
X270251Y478615D01*
X270140Y478660D01*
X270008Y478695D01*
X269857Y478720D01*
X269685Y478735D01*
X269492Y478740D01*
Y479740D01*
X269685Y479745D01*
X269857Y479760D01*
X270008Y479785D01*
X270140Y479820D01*
X270251Y479865D01*
X270342Y479920D01*
X270413Y479985D01*
X270464Y480060D01*
X270494Y480145D01*
X270504Y480240D01*
Y478240D01*
D02*
G37*
G36*
X265545Y480145D02*
X265575Y480060D01*
X265625Y479985D01*
X265695Y479920D01*
X265785Y479865D01*
X265895Y479820D01*
X266025Y479785D01*
X266175Y479760D01*
X266345Y479745D01*
X266535Y479740D01*
Y478740D01*
X266345Y478735D01*
X266175Y478720D01*
X266025Y478695D01*
X265895Y478660D01*
X265785Y478615D01*
X265695Y478560D01*
X265625Y478495D01*
X265575Y478420D01*
X265545Y478335D01*
X265535Y478240D01*
Y480240D01*
X265545Y480145D01*
D02*
G37*
G36*
X460461Y501439D02*
X459852Y501436D01*
X458298Y501319D01*
X457872Y501243D01*
X457490Y501149D01*
X457155Y501037D01*
X456865Y500906D01*
X456621Y500758D01*
X456422Y500591D01*
X455715Y501298D01*
X455882Y501497D01*
X456030Y501741D01*
X456161Y502031D01*
X456273Y502366D01*
X456367Y502747D01*
X456443Y503174D01*
X456500Y503647D01*
X456560Y504728D01*
X456563Y505337D01*
X460461Y501439D01*
D02*
G37*
G36*
X452003Y488159D02*
X452013Y488045D01*
X452029Y487936D01*
X452052Y487834D01*
X452082Y487737D01*
X452118Y487647D01*
X452160Y487562D01*
X452209Y487483D01*
X452265Y487410D01*
X452327Y487344D01*
X450673D01*
X450735Y487410D01*
X450791Y487483D01*
X450840Y487562D01*
X450882Y487647D01*
X450918Y487737D01*
X450948Y487834D01*
X450971Y487936D01*
X450987Y488045D01*
X450997Y488159D01*
X451000Y488279D01*
X452000D01*
X452003Y488159D01*
D02*
G37*
G36*
X463587Y517870D02*
X463873Y517636D01*
X464170Y517429D01*
X464478Y517250D01*
X464797Y517098D01*
X465126Y516974D01*
X465466Y516878D01*
X465816Y516809D01*
X466178Y516768D01*
X466550Y516754D01*
Y513998D01*
X466178Y513984D01*
X465816Y513943D01*
X465466Y513874D01*
X465126Y513777D01*
X464797Y513654D01*
X464478Y513502D01*
X464170Y513323D01*
X463873Y513116D01*
X463587Y512882D01*
X463312Y512620D01*
Y518132D01*
X463587Y517870D01*
D02*
G37*
G36*
X483066Y506639D02*
X483617Y506176D01*
X483782Y506063D01*
X483939Y505970D01*
X484086Y505899D01*
X484225Y505848D01*
X484354Y505818D01*
X484474Y505809D01*
X481941Y503276D01*
X481932Y503396D01*
X481902Y503525D01*
X481851Y503664D01*
X481780Y503811D01*
X481687Y503968D01*
X481574Y504133D01*
X481441Y504308D01*
X481111Y504684D01*
X480915Y504886D01*
X482864Y506835D01*
X483066Y506639D01*
D02*
G37*
G36*
X323411Y496765D02*
X323483Y496709D01*
X323562Y496660D01*
X323647Y496618D01*
X323737Y496582D01*
X323834Y496552D01*
X323936Y496529D01*
X324044Y496513D01*
X324159Y496503D01*
X324279Y496500D01*
Y495500D01*
X324159Y495497D01*
X324044Y495487D01*
X323936Y495471D01*
X323834Y495448D01*
X323737Y495418D01*
X323647Y495382D01*
X323562Y495340D01*
X323483Y495291D01*
X323411Y495235D01*
X323343Y495173D01*
Y496827D01*
X323411Y496765D01*
D02*
G37*
G36*
X333574Y495142D02*
X333514Y495210D01*
X333448Y495271D01*
X333374Y495325D01*
X333294Y495371D01*
X333207Y495411D01*
X333113Y495443D01*
X333013Y495468D01*
X332906Y495486D01*
X332792Y495496D01*
X332672Y495500D01*
X332788Y496500D01*
X332908Y496503D01*
X333132Y496526D01*
X333236Y496546D01*
X333334Y496572D01*
X333428Y496603D01*
X333516Y496640D01*
X333598Y496684D01*
X333676Y496732D01*
X333748Y496787D01*
X333574Y495142D01*
D02*
G37*
G36*
X289974Y494441D02*
X289624Y494438D01*
X288992Y494390D01*
X288709Y494345D01*
X288450Y494286D01*
X288213Y494214D01*
X287999Y494128D01*
X287808Y494028D01*
X287639Y493914D01*
X287493Y493786D01*
X286786Y494493D01*
X286914Y494639D01*
X287028Y494808D01*
X287128Y494999D01*
X287214Y495213D01*
X287286Y495450D01*
X287345Y495710D01*
X287390Y495992D01*
X287421Y496297D01*
X287441Y496974D01*
X289974Y494441D01*
D02*
G37*
G36*
X281993Y480914D02*
X282008Y480742D01*
X282033Y480590D01*
X282068Y480458D01*
X282113Y480347D01*
X282168Y480256D01*
X282233Y480185D01*
X282308Y480135D01*
X282393Y480104D01*
X282488Y480094D01*
X280488D01*
X280583Y480104D01*
X280668Y480135D01*
X280743Y480185D01*
X280808Y480256D01*
X280863Y480347D01*
X280908Y480458D01*
X280943Y480590D01*
X280968Y480742D01*
X280983Y480914D01*
X280988Y481106D01*
X281988D01*
X281993Y480914D01*
D02*
G37*
G36*
X356378Y452700D02*
X356332Y452622D01*
X356290Y452538D01*
X356255Y452450D01*
X356224Y452356D01*
X356200Y452257D01*
X356180Y452153D01*
X356167Y452043D01*
X356158Y451929D01*
X356155Y451809D01*
X355155Y451662D01*
X355152Y451782D01*
X355141Y451896D01*
X355123Y452003D01*
X355097Y452102D01*
X355065Y452195D01*
X355025Y452281D01*
X354977Y452360D01*
X354923Y452432D01*
X354861Y452497D01*
X354791Y452555D01*
X356431Y452773D01*
X356378Y452700D01*
D02*
G37*
G36*
X353442Y449276D02*
X353401Y449197D01*
X353366Y449112D01*
X353335Y449023D01*
X353309Y448928D01*
X353288Y448828D01*
X353271Y448724D01*
X353252Y448499D01*
X353250Y448379D01*
X352250Y448137D01*
X352246Y448258D01*
X352235Y448371D01*
X352216Y448477D01*
X352189Y448575D01*
X352155Y448665D01*
X352113Y448748D01*
X352064Y448822D01*
X352007Y448890D01*
X351943Y448949D01*
X351870Y449001D01*
X353487Y449351D01*
X353442Y449276D01*
D02*
G37*
G36*
X356155Y421191D02*
X356158Y421071D01*
X356180Y420847D01*
X356200Y420743D01*
X356224Y420644D01*
X356255Y420550D01*
X356290Y420462D01*
X356332Y420378D01*
X356378Y420300D01*
X356431Y420227D01*
X354791Y420445D01*
X354861Y420503D01*
X354923Y420568D01*
X354977Y420640D01*
X355025Y420719D01*
X355065Y420805D01*
X355097Y420898D01*
X355123Y420997D01*
X355141Y421104D01*
X355152Y421218D01*
X355155Y421338D01*
X356155Y421191D01*
D02*
G37*
G36*
X353254Y416242D02*
X353265Y416129D01*
X353284Y416023D01*
X353311Y415925D01*
X353345Y415835D01*
X353387Y415752D01*
X353436Y415677D01*
X353493Y415610D01*
X353557Y415551D01*
X353629Y415499D01*
X352013Y415149D01*
X352058Y415224D01*
X352099Y415303D01*
X352134Y415388D01*
X352165Y415477D01*
X352191Y415572D01*
X352212Y415672D01*
X352229Y415776D01*
X352248Y416001D01*
X352250Y416121D01*
X353250Y416363D01*
X353254Y416242D01*
D02*
G37*
G36*
X407446Y445195D02*
X407483Y444827D01*
X407547Y444471D01*
X407638Y444126D01*
X407756Y443794D01*
X407901Y443473D01*
X408073Y443165D01*
X408273Y442868D01*
X408499Y442583D01*
X408752Y442310D01*
X406804Y440362D01*
X406531Y440615D01*
X406246Y440841D01*
X405949Y441041D01*
X405641Y441213D01*
X405320Y441358D01*
X404988Y441476D01*
X404643Y441567D01*
X404287Y441631D01*
X403919Y441668D01*
X403539Y441677D01*
X407437Y445575D01*
X407446Y445195D01*
D02*
G37*
G36*
X439919Y410587D02*
X440032Y410517D01*
X440166Y410455D01*
X440320Y410401D01*
X440496Y410355D01*
X440693Y410318D01*
X440911Y410289D01*
X441410Y410256D01*
X441692Y410252D01*
Y407496D01*
X441410Y407492D01*
X440693Y407430D01*
X440496Y407393D01*
X440320Y407347D01*
X440166Y407294D01*
X440032Y407232D01*
X439919Y407161D01*
X439827Y407083D01*
Y410665D01*
X439919Y410587D01*
D02*
G37*
G36*
X456412Y409605D02*
X456670Y409404D01*
X456924Y409245D01*
X457173Y409129D01*
X457418Y409054D01*
X457659Y409022D01*
X457896Y409032D01*
X458128Y409084D01*
X458357Y409178D01*
X458581Y409315D01*
X456096Y404630D01*
X456082Y404905D01*
X456030Y405191D01*
X455938Y405489D01*
X455807Y405799D01*
X455637Y406120D01*
X455428Y406453D01*
X455180Y406797D01*
X454893Y407153D01*
X454201Y407900D01*
X456150Y409848D01*
X456412Y409605D01*
D02*
G37*
D19*
X308556Y572584D02*
X313542D01*
X296969Y584171D02*
Y584171D01*
X313542Y572584D02*
X314000Y572126D01*
X296969Y584171D02*
X308556Y572584D01*
X290639Y590500D02*
X296969Y584171D01*
X290000Y590500D02*
X290639D01*
X378500Y474240D02*
X402453D01*
X438000Y438693D01*
X372124Y515376D02*
X378562Y508938D01*
X378500Y474240D02*
Y508876D01*
X378562Y508938D01*
X345000Y515376D02*
X372124D01*
X438000Y408874D02*
X455176D01*
X459550Y404500D01*
X462000D01*
X421014Y427986D02*
Y428100D01*
X437548Y409326D02*
X438000Y408874D01*
X437548Y409326D02*
Y411452D01*
X421014Y427986D02*
X437548Y411452D01*
X350126Y572126D02*
X368500Y590500D01*
X403500Y445614D02*
X421014Y428100D01*
X472374Y515376D02*
X484500Y503250D01*
X460500Y515376D02*
X472374D01*
X345000Y572126D02*
X350126D01*
X472500Y558500D02*
X484500Y546500D01*
X460751Y558500D02*
X472500D01*
X484500Y546500D02*
X484500D01*
D20*
X449622Y624000D02*
X477953Y595669D01*
X487795D01*
X377000Y624000D02*
X449622D01*
X477427Y593439D02*
X486028D01*
X384500Y622000D02*
X448866D01*
X477427Y593439D01*
X487795Y595669D02*
X519090Y564375D01*
X486028Y593439D02*
X512218Y567249D01*
X494000Y555000D02*
X519340Y529660D01*
X475500Y564000D02*
X484500Y555000D01*
X494000D01*
X519340Y529660D02*
X531500D01*
X446000Y564000D02*
X475500D01*
X468874Y582126D02*
X471000Y580000D01*
X355500Y419500D02*
X355656Y419656D01*
Y453344D01*
X355500Y453500D02*
X355656Y453344D01*
X352750Y414750D02*
Y449750D01*
Y414750D02*
X353000Y414500D01*
X352500Y450000D02*
X352750Y449750D01*
X350500Y597500D02*
X377000Y624000D01*
X350500Y587626D02*
Y597500D01*
X373649Y615649D02*
X378149D01*
X360500Y602500D02*
X360500D01*
X373649Y615649D01*
X378149D02*
X384500Y622000D01*
X369433Y470500D02*
X394500D01*
X365693Y474240D02*
X369433Y470500D01*
X351000Y523000D02*
X357000Y529000D01*
X389233Y518000D02*
X389473Y517761D01*
X390239D02*
X390500Y517500D01*
X352000Y518000D02*
X389233D01*
X389473Y517761D02*
X390239D01*
X349557Y520443D02*
X352000Y518000D01*
X360760Y527807D02*
Y528988D01*
Y522039D02*
Y527807D01*
X360748Y529000D02*
X360760Y528988D01*
X357000Y529000D02*
X360748D01*
X329500Y523000D02*
X351000D01*
X322500Y496000D02*
X334376D01*
X334500Y495876D01*
X368500Y476071D02*
Y495876D01*
Y476071D02*
X370331Y474240D01*
X371512D01*
X364512D02*
X365693D01*
X357461D02*
X364512D01*
X333443Y520443D02*
X349557D01*
X325500Y517000D02*
Y544189D01*
X357461Y474240D02*
Y492915D01*
X345000Y505376D02*
X357461Y492915D01*
X345000Y582126D02*
X350500Y587626D01*
X262988Y479240D02*
X263500Y479752D01*
Y484500D01*
X356673Y466760D02*
X364512D01*
X353772Y469661D02*
X356673Y466760D01*
X353772Y469661D02*
Y485728D01*
X345000Y494500D02*
Y495376D01*
X325500Y544189D02*
X325811Y544500D01*
X333000Y520000D02*
X333443Y520443D01*
X314000Y592126D02*
X323500Y582626D01*
X460500Y538751D02*
X462249D01*
X451500Y486500D02*
Y496376D01*
X460500Y505376D01*
X451500Y496376D02*
Y496500D01*
X462249Y538751D02*
X468500Y532500D01*
X460500Y582126D02*
X468874D01*
X444000Y522000D02*
X535500D01*
X536500Y521000D01*
X307500Y470547D02*
Y489500D01*
X299693Y462740D02*
X307500Y470547D01*
Y489500D02*
X313376Y495376D01*
X314000D01*
X281488Y478740D02*
Y488488D01*
X290000Y497000D01*
X262988Y479240D02*
X273039D01*
X301071Y479618D02*
Y479648D01*
X305870Y476937D02*
Y497246D01*
X300193Y471260D02*
X305870Y476937D01*
Y497246D02*
X314000Y505376D01*
X301071Y479648D02*
X304240Y482817D01*
X300193Y478740D02*
X301071Y479618D01*
X304240Y482817D02*
Y505616D01*
X314000Y515376D01*
X290039Y462740D02*
X299693D01*
X280488D02*
X290039D01*
X364512Y466760D02*
X371512D01*
X345000Y494500D02*
X353772Y485728D01*
X273039Y479240D02*
Y487913D01*
X290000Y504874D01*
X281488Y471260D02*
X290461D01*
X300193D01*
X290461Y478740D02*
X300193D01*
D21*
X513466Y561651D02*
G03*
X513574Y561373I962J211D01*
G01*
X518265Y539917D02*
G03*
X518972Y539430I855J487D01*
G01*
X524749Y553032D02*
G03*
X524746Y553967I-867J466D01*
G01*
X288992Y455260D02*
X290039D01*
X288622Y455630D02*
X288992Y455260D01*
X519090Y564375D02*
X524746Y553967D01*
X513574Y561373D02*
X513575Y561369D01*
X512218Y567249D02*
X513466Y561651D01*
X518972Y539430D02*
X518977Y539430D01*
X518265Y539917D02*
X518265Y539917D01*
X491646Y566535D02*
X518265Y539917D01*
X458936Y566535D02*
X491646D01*
X430818Y590808D02*
X434664D01*
X429500Y592126D02*
X430818Y590808D01*
X434664D02*
X458936Y566535D01*
X521500Y546981D02*
X524749Y553032D01*
X518977Y539430D02*
X526500Y538320D01*
X513575Y561369D02*
X515065Y558790D01*
X516500Y555641D01*
D22*
X290000Y582626D02*
D03*
Y590500D02*
D03*
X339500Y407874D02*
D03*
Y400000D02*
D03*
X314000Y437693D02*
D03*
Y429819D02*
D03*
X339500Y437693D02*
D03*
Y429819D02*
D03*
X438000Y401000D02*
D03*
Y408874D02*
D03*
X463500Y430819D02*
D03*
Y438693D02*
D03*
X438000Y430819D02*
D03*
Y438693D02*
D03*
X484500Y538626D02*
D03*
Y546500D02*
D03*
Y495376D02*
D03*
Y503250D02*
D03*
X368500Y582626D02*
D03*
Y590500D02*
D03*
X406000Y539251D02*
D03*
Y547125D02*
D03*
X368500Y539251D02*
D03*
Y547125D02*
D03*
X406000Y582626D02*
D03*
Y590500D02*
D03*
X368500Y495876D02*
D03*
Y503750D02*
D03*
X406000Y495876D02*
D03*
Y503750D02*
D03*
X290000Y497000D02*
D03*
Y504874D02*
D03*
Y539251D02*
D03*
Y547125D02*
D03*
X484500Y581876D02*
D03*
Y589750D02*
D03*
D23*
X478402Y302786D02*
D03*
X298598D02*
D03*
X208697Y458500D02*
D03*
X298598Y614214D02*
D03*
X478402D02*
D03*
X568303Y458500D02*
D03*
D24*
X293347Y401000D02*
D03*
X315000D02*
D03*
X462000Y404500D02*
D03*
X483653D02*
D03*
D25*
X524899Y379748D02*
D03*
X529899Y388408D02*
D03*
X403500Y445614D02*
D03*
X373972D02*
D03*
Y435614D02*
D03*
X403500D02*
D03*
Y425614D02*
D03*
X373972D02*
D03*
Y415614D02*
D03*
X403500D02*
D03*
X373972Y395614D02*
D03*
X403500D02*
D03*
Y385614D02*
D03*
X373972D02*
D03*
Y375614D02*
D03*
X403500D02*
D03*
Y365614D02*
D03*
X373972D02*
D03*
X403500Y345614D02*
D03*
X373972D02*
D03*
Y335614D02*
D03*
X403500D02*
D03*
X373972Y315614D02*
D03*
X403500D02*
D03*
X373972Y295614D02*
D03*
X403500Y305614D02*
D03*
X373972D02*
D03*
X403500Y325614D02*
D03*
X373972D02*
D03*
Y355614D02*
D03*
X403500D02*
D03*
Y405614D02*
D03*
X373972D02*
D03*
Y455614D02*
D03*
X403500D02*
D03*
X460500Y485376D02*
D03*
Y495376D02*
D03*
Y505376D02*
D03*
Y515376D02*
D03*
X429500D02*
D03*
Y505376D02*
D03*
Y495376D02*
D03*
Y485376D02*
D03*
X460500Y528751D02*
D03*
Y538751D02*
D03*
Y548751D02*
D03*
Y558751D02*
D03*
X429500D02*
D03*
Y548751D02*
D03*
Y538751D02*
D03*
Y528751D02*
D03*
X460500Y572126D02*
D03*
Y582126D02*
D03*
Y592126D02*
D03*
Y602126D02*
D03*
X429500D02*
D03*
Y592126D02*
D03*
Y582126D02*
D03*
Y572126D02*
D03*
X314000Y602126D02*
D03*
Y592126D02*
D03*
Y582126D02*
D03*
Y572126D02*
D03*
X345000D02*
D03*
Y582126D02*
D03*
Y592126D02*
D03*
Y602126D02*
D03*
Y558624D02*
D03*
Y548624D02*
D03*
Y538624D02*
D03*
Y528624D02*
D03*
X314000D02*
D03*
Y538624D02*
D03*
Y548624D02*
D03*
Y558624D02*
D03*
Y485376D02*
D03*
Y495376D02*
D03*
Y505376D02*
D03*
Y515376D02*
D03*
X345000D02*
D03*
Y505376D02*
D03*
Y495376D02*
D03*
Y485376D02*
D03*
X531500Y529660D02*
D03*
X521500Y546981D02*
D03*
X526500Y538320D02*
D03*
X536500Y521000D02*
D03*
X388500Y616000D02*
D03*
X378500D02*
D03*
X250500Y540340D02*
D03*
X245500Y531679D02*
D03*
X255500Y549000D02*
D03*
X252073Y379797D02*
D03*
X257072Y371137D02*
D03*
X339500Y297000D02*
D03*
X329500D02*
D03*
X449500Y296500D02*
D03*
X439500D02*
D03*
D26*
X519899Y371087D02*
D03*
X240500Y523019D02*
D03*
D27*
X403500Y295614D02*
D03*
D28*
X516500Y555641D02*
D03*
X247073Y388457D02*
D03*
D29*
X398500Y616000D02*
D03*
X319500Y297000D02*
D03*
X429500Y296500D02*
D03*
D30*
X551181Y492126D02*
D03*
X561024Y472441D02*
D03*
X551181Y452756D02*
D03*
X561024Y433071D02*
D03*
X551181Y413386D02*
D03*
X531496Y492126D02*
D03*
Y452756D02*
D03*
Y413386D02*
D03*
X541339Y393701D02*
D03*
X531496Y374016D02*
D03*
X511811Y531496D02*
D03*
X521654Y511811D02*
D03*
X511811Y492126D02*
D03*
X521654Y472441D02*
D03*
X511811Y452756D02*
D03*
X521654Y433071D02*
D03*
X511811Y413386D02*
D03*
X521654Y393701D02*
D03*
Y354331D02*
D03*
X511811Y334646D02*
D03*
X492126Y610236D02*
D03*
X501968Y590551D02*
D03*
X492126Y570866D02*
D03*
X501968Y551181D02*
D03*
X492126Y531496D02*
D03*
X501968Y511811D02*
D03*
Y472441D02*
D03*
X492126Y452756D02*
D03*
X501968Y433071D02*
D03*
X492126Y413386D02*
D03*
X501968Y393701D02*
D03*
X492126Y374016D02*
D03*
X501968Y354331D02*
D03*
X492126Y334646D02*
D03*
X482283Y511811D02*
D03*
Y472441D02*
D03*
Y433071D02*
D03*
X472441Y413386D02*
D03*
X482283Y393701D02*
D03*
X472441Y374016D02*
D03*
X482283Y354331D02*
D03*
X472441Y334646D02*
D03*
X452756Y452756D02*
D03*
Y413386D02*
D03*
X462598Y393701D02*
D03*
X452756Y374016D02*
D03*
X462598Y354331D02*
D03*
X452756Y334646D02*
D03*
X462598Y314961D02*
D03*
X442913Y590551D02*
D03*
Y551181D02*
D03*
Y511811D02*
D03*
Y472441D02*
D03*
Y433071D02*
D03*
Y393701D02*
D03*
X433071Y374016D02*
D03*
X442913Y354331D02*
D03*
X433071Y334646D02*
D03*
X442913Y314961D02*
D03*
X423228Y590551D02*
D03*
X413386Y570866D02*
D03*
X423228Y551181D02*
D03*
Y511811D02*
D03*
Y472441D02*
D03*
X413386Y452756D02*
D03*
X423228Y393701D02*
D03*
Y354331D02*
D03*
X413386Y334646D02*
D03*
X423228Y314961D02*
D03*
X413386Y295276D02*
D03*
X393701Y570866D02*
D03*
X403543Y551181D02*
D03*
X393701Y531496D02*
D03*
X403543Y511811D02*
D03*
X393701Y492126D02*
D03*
Y452756D02*
D03*
Y413386D02*
D03*
Y374016D02*
D03*
Y334646D02*
D03*
Y295276D02*
D03*
X383858Y590551D02*
D03*
X374016Y570866D02*
D03*
Y531496D02*
D03*
Y492126D02*
D03*
X383858Y433071D02*
D03*
Y393701D02*
D03*
Y354331D02*
D03*
Y314961D02*
D03*
X364173Y551181D02*
D03*
Y393701D02*
D03*
X354331Y334646D02*
D03*
X364173Y314961D02*
D03*
X354331Y295276D02*
D03*
X334646Y492126D02*
D03*
X344488Y472441D02*
D03*
X334646Y452756D02*
D03*
X344488Y433071D02*
D03*
X334646Y413386D02*
D03*
X344488Y393701D02*
D03*
X334646Y374016D02*
D03*
X344488Y354331D02*
D03*
X334646Y334646D02*
D03*
X344488Y314961D02*
D03*
X324803Y590551D02*
D03*
Y472441D02*
D03*
X314961Y452756D02*
D03*
X324803Y433071D02*
D03*
X314961Y413386D02*
D03*
Y374016D02*
D03*
X324803Y354331D02*
D03*
X314961Y334646D02*
D03*
X324803Y314961D02*
D03*
X305118Y590551D02*
D03*
X295276Y570866D02*
D03*
Y531496D02*
D03*
X305118Y511811D02*
D03*
X295276Y492126D02*
D03*
X305118Y472441D02*
D03*
Y393701D02*
D03*
X295276Y374016D02*
D03*
X305118Y354331D02*
D03*
X295276Y334646D02*
D03*
X305118Y314961D02*
D03*
X285433Y590551D02*
D03*
X275591Y570866D02*
D03*
X285433Y551181D02*
D03*
X275591Y531496D02*
D03*
X285433Y511811D02*
D03*
X275591Y452756D02*
D03*
X285433Y433071D02*
D03*
X275591Y413386D02*
D03*
X285433Y393701D02*
D03*
X275591Y374016D02*
D03*
X285433Y354331D02*
D03*
X275591Y334646D02*
D03*
X285433Y314961D02*
D03*
X265748Y551181D02*
D03*
X255906Y531496D02*
D03*
X265748Y511811D02*
D03*
X255906Y492126D02*
D03*
Y452756D02*
D03*
X265748Y433071D02*
D03*
Y393701D02*
D03*
Y354331D02*
D03*
X236221Y531496D02*
D03*
X246063Y511811D02*
D03*
X236221Y492126D02*
D03*
X246063Y472441D02*
D03*
X236221Y452756D02*
D03*
X246063Y433071D02*
D03*
X236221Y413386D02*
D03*
X226378Y511811D02*
D03*
X216535Y492126D02*
D03*
X226378Y472441D02*
D03*
Y433071D02*
D03*
X206693Y472441D02*
D03*
X368329Y529071D02*
D03*
X368465Y522008D02*
D03*
X468740Y537126D02*
D03*
X471142Y584094D02*
D03*
X363543Y600827D02*
D03*
X243898Y515158D02*
D03*
X262677Y546890D02*
D03*
X294213Y555984D02*
D03*
X321929Y492480D02*
D03*
X336614Y499094D02*
D03*
X467677Y549449D02*
D03*
X456850Y543976D02*
D03*
X319843Y554055D02*
D03*
X320905Y515276D02*
D03*
X329449Y544488D02*
D03*
X383150Y463228D02*
D03*
X262992Y471693D02*
D03*
X272835Y471575D02*
D03*
X305000Y514921D02*
D03*
X288622Y455630D02*
D03*
X280472Y455394D02*
D03*
X259882Y485118D02*
D03*
X349134Y414134D02*
D03*
X358740Y420354D02*
D03*
X358976Y456063D02*
D03*
X348543Y449882D02*
D03*
X395551Y467244D02*
D03*
X445905Y518937D02*
D03*
X447244Y486535D02*
D03*
X510630Y560236D02*
D03*
X513386Y548189D02*
D03*
X519842Y535512D02*
D03*
X529961Y516890D02*
D03*
X525315Y525394D02*
D03*
X447362Y560748D02*
D03*
X391378Y521260D02*
D03*
X332520Y516142D02*
D03*
X337756Y537913D02*
D03*
X321850Y602283D02*
D03*
X337087Y581653D02*
D03*
X310827Y565590D02*
D03*
X363189Y485709D02*
D03*
X338228Y484803D02*
D03*
X337402Y515158D02*
D03*
X298780Y293858D02*
D03*
X306420Y298479D02*
D03*
X306239Y307407D02*
D03*
X298417Y311714D02*
D03*
X290776Y307093D02*
D03*
X290957Y298165D02*
D03*
X208878Y449572D02*
D03*
X216519Y454193D02*
D03*
X216338Y463121D02*
D03*
X208516Y467428D02*
D03*
X200875Y462807D02*
D03*
X201056Y453879D02*
D03*
X298780Y605287D02*
D03*
X306420Y609907D02*
D03*
X306239Y618835D02*
D03*
X298417Y623142D02*
D03*
X290776Y618521D02*
D03*
X290957Y609593D02*
D03*
X478583Y605287D02*
D03*
X486224Y609907D02*
D03*
X486043Y618835D02*
D03*
X478221Y623142D02*
D03*
X470579Y618521D02*
D03*
X470761Y609593D02*
D03*
X568484Y449572D02*
D03*
X576125Y454193D02*
D03*
X575944Y463121D02*
D03*
X568122Y467428D02*
D03*
X560481Y462807D02*
D03*
X560662Y453879D02*
D03*
X470761Y298165D02*
D03*
X470579Y307093D02*
D03*
X478221Y311714D02*
D03*
X486043Y307407D02*
D03*
X486224Y298479D02*
D03*
X478583Y293858D02*
D03*
X471000Y580000D02*
D03*
X355500Y419500D02*
D03*
X353000Y414500D02*
D03*
X352500Y450000D02*
D03*
X355500Y453500D02*
D03*
X394500Y470500D02*
D03*
X360760Y522039D02*
D03*
X334500Y495876D02*
D03*
X333000Y520000D02*
D03*
X263500Y484500D02*
D03*
X322500Y496000D02*
D03*
X325500Y517000D02*
D03*
X329500Y523000D02*
D03*
X298000Y455500D02*
D03*
X446000Y564000D02*
D03*
X325811Y544500D02*
D03*
X323500Y582626D02*
D03*
X468500Y532500D02*
D03*
X451500Y486500D02*
D03*
X444000Y522000D02*
D03*
X390500Y517500D02*
D03*
X360500Y602500D02*
D03*
D31*
X299012Y478740D02*
D03*
Y471260D02*
D03*
X281488D02*
D03*
Y478740D02*
D03*
X262988Y471760D02*
D03*
Y479240D02*
D03*
X280488Y455260D02*
D03*
Y462740D02*
D03*
X298512D02*
D03*
Y455260D02*
D03*
X371512Y474240D02*
D03*
Y466760D02*
D03*
X364512Y474240D02*
D03*
Y466760D02*
D03*
D32*
X290461Y478740D02*
D03*
Y471260D02*
D03*
X273039Y471760D02*
D03*
Y479240D02*
D03*
X290039Y455260D02*
D03*
Y462740D02*
D03*
X378500Y466760D02*
D03*
Y474240D02*
D03*
X357461D02*
D03*
Y466760D02*
D03*
D33*
X368240Y528988D02*
D03*
X360760D02*
D03*
D34*
X368240Y522039D02*
D03*
X360760D02*
D03*
M02*
